<svg width="117" height="192" viewBox="0 0 117 192" fill="none" xmlns="http://www.w3.org/2000/svg">
<path d="M62.2947 9.81549L114.232 61.6746C115.053 62.4942 115.053 63.8221 114.232 64.6411L93.3852 85.443C92.5644 86.2626 91.2331 86.2626 90.4123 85.443L75.4116 70.4745L75.4116 192H41.7259L41.7259 70.4612L26.439 85.7153C25.6182 86.5343 24.2869 86.5343 23.4661 85.7153L2.6195 63.9246C1.79871 63.105 1.79871 61.7771 2.6195 60.958L54.8423 9.82884C55.1029 9.56883 55.3841 9.34279 55.6804 9.14903C57.7204 7.79939 60.4968 8.02155 62.2947 9.81549Z" fill="#F9AB00"/>
<path d="M62.4509 3.53546L114.388 55.3946C115.209 56.2142 115.209 57.5421 114.388 58.3611L93.5414 79.163C92.7206 79.9826 91.3893 79.9826 90.5685 79.163L75.5678 64.1945L75.5678 185.72H41.8822L41.8822 64.1811L26.5953 79.4353C25.7745 80.2543 24.4431 80.2543 23.6224 79.4353L2.77575 57.6445C1.95496 56.825 1.95496 55.497 2.77575 54.678L54.9986 3.54882C55.2591 3.2888 55.5404 3.06276 55.8366 2.869C57.8766 1.51936 60.6531 1.74151 62.4509 3.53546Z" stroke="#1E1E1E" stroke-width="2.78379" stroke-miterlimit="10" stroke-linejoin="round"/>
</svg>
