<svg width="79" height="62" viewBox="0 0 79 62" fill="none" xmlns="http://www.w3.org/2000/svg">
<path d="M7.53146 12.0143L15.8875 25.101C12.5258 25.6593 9.53585 27.4331 6.9225 30.4231C4.30501 33.4081 3 37.051 3 41.3501C3 46.2043 4.72481 50.3575 8.18355 53.8162C11.6373 57.2708 15.8875 58.9998 20.9309 58.9998C25.9734 58.9998 30.2203 57.2708 33.6782 53.8162C37.7915 49.6971 39.4582 44.5924 38.6717 38.4929C38.3888 36.2985 37.7741 34.1647 36.8573 32.1512C35.549 29.2757 33.6018 25.992 31.0167 22.2985L19.2226 4.42899C18.2603 2.97133 16.3023 2.56149 14.8364 3.51225L8.48221 7.63221C7.01542 8.5838 6.59065 10.5409 7.53146 12.0143Z" fill="#34A853"/>
<path d="M7.53146 12.0143L15.8875 25.101C12.5258 25.6593 9.53585 27.4331 6.9225 30.4231C4.30501 33.4081 3 37.051 3 41.3501C3 46.2043 4.72481 50.3575 8.18355 53.8162C11.6373 57.2708 15.8875 58.9998 20.9309 58.9998C25.9734 58.9998 30.2203 57.2708 33.6782 53.8162C37.7915 49.6971 39.4582 44.5924 38.6717 38.4929C38.3888 36.2985 37.7741 34.1647 36.8573 32.1512C35.549 29.2757 33.6018 25.992 31.0167 22.2985L19.2226 4.42899C18.2603 2.97133 16.3023 2.56149 14.8364 3.51225L8.48221 7.63221C7.01542 8.5838 6.59065 10.5409 7.53146 12.0143Z" stroke="#1E1E1E" stroke-width="4.14816" stroke-miterlimit="10"/>
<path d="M45.5315 12.0143L53.8875 25.101C50.5258 25.6593 47.5358 27.4331 44.9225 30.4231C42.305 33.4081 41 37.051 41 41.3501C41 46.2043 42.7248 50.3575 46.1835 53.8162C49.6373 57.2708 53.8875 58.9998 58.9309 58.9998C63.9734 58.9998 68.2203 57.2708 71.6782 53.8162C75.7915 49.6971 77.4582 44.5924 76.6717 38.4929C76.3888 36.2985 75.7741 34.1647 74.8573 32.1512C73.549 29.2757 71.6018 25.992 69.0167 22.2985L57.2226 4.42899C56.2603 2.97133 54.3023 2.56149 52.8364 3.51225L46.4822 7.63221C45.0154 8.5838 44.5907 10.5409 45.5315 12.0143Z" fill="#34A853"/>
<path d="M45.5315 12.0143L53.8875 25.101C50.5258 25.6593 47.5358 27.4331 44.9225 30.4231C42.305 33.4081 41 37.051 41 41.3501C41 46.2043 42.7248 50.3575 46.1835 53.8162C49.6373 57.2708 53.8875 58.9998 58.9309 58.9998C63.9734 58.9998 68.2203 57.2708 71.6782 53.8162C75.7915 49.6971 77.4582 44.5924 76.6717 38.4929C76.3888 36.2985 75.7741 34.1647 74.8573 32.1512C73.549 29.2757 71.6018 25.992 69.0167 22.2985L57.2226 4.42899C56.2603 2.97133 54.3023 2.56149 52.8364 3.51225L46.4822 7.63221C45.0154 8.5838 44.5907 10.5409 45.5315 12.0143Z" stroke="#1E1E1E" stroke-width="4.14816" stroke-miterlimit="10"/>
</svg>
