<svg width="45" height="150" viewBox="0 0 45 150" fill="none" xmlns="http://www.w3.org/2000/svg">
<path d="M22.5537 43.1095C33.9063 43.1095 43.1094 33.9064 43.1094 22.5539C43.1094 11.2013 33.9063 1.99823 22.5537 1.99823C11.2012 1.99823 1.99809 11.2013 1.99809 22.5539C1.99809 33.9064 11.2012 43.1095 22.5537 43.1095Z" fill="#5CDB6D"/>
<path d="M22.5537 43.1095C33.9063 43.1095 43.1094 33.9064 43.1094 22.5539C43.1094 11.2013 33.9063 1.99823 22.5537 1.99823C11.2012 1.99823 1.99809 11.2013 1.99809 22.5539C1.99809 33.9064 11.2012 43.1095 22.5537 43.1095Z" stroke="#1E1E1E" stroke-width="2.02854" stroke-miterlimit="10" stroke-linejoin="round"/>
<path d="M22.5537 95.5846C33.9063 95.5846 43.1094 86.3815 43.1094 75.029C43.1094 63.6764 33.9063 54.4733 22.5537 54.4733C11.2012 54.4733 1.99809 63.6764 1.99809 75.029C1.99809 86.3815 11.2012 95.5846 22.5537 95.5846Z" fill="#5CDB6D"/>
<path d="M22.5537 95.5846C33.9063 95.5846 43.1094 86.3815 43.1094 75.029C43.1094 63.6764 33.9063 54.4733 22.5537 54.4733C11.2012 54.4733 1.99809 63.6764 1.99809 75.029C1.99809 86.3815 11.2012 95.5846 22.5537 95.5846Z" stroke="#1E1E1E" stroke-width="2.02854" stroke-miterlimit="10" stroke-linejoin="round"/>
<path d="M22.5537 148.054C33.9063 148.054 43.1094 138.851 43.1094 127.499C43.1094 116.146 33.9063 106.943 22.5537 106.943C11.2012 106.943 1.99809 116.146 1.99809 127.499C1.99809 138.851 11.2012 148.054 22.5537 148.054Z" fill="#5CDB6D"/>
<path d="M22.5537 148.054C33.9063 148.054 43.1094 138.851 43.1094 127.499C43.1094 116.146 33.9063 106.943 22.5537 106.943C11.2012 106.943 1.99809 116.146 1.99809 127.499C1.99809 138.851 11.2012 148.054 22.5537 148.054Z" stroke="#1E1E1E" stroke-width="2.02854" stroke-miterlimit="10" stroke-linejoin="round"/>
</svg>
