<svg width="137" height="50" viewBox="0 0 137 50" fill="none" xmlns="http://www.w3.org/2000/svg">
<rect x="-0.137571" y="0.763798" width="19.4577" height="8.21783" rx="4.10892" transform="matrix(-0.821252 0.570566 0.570566 0.821252 38.551 19.0073)" fill="#F8AD00" stroke="#D1D1D1" stroke-width="1.09755"/>
<rect x="27.9735" y="12.6133" width="19.4577" height="8.21783" rx="4.10892" transform="rotate(34.7897 27.9735 12.6133)" fill="#38A952" stroke="#D1D1D1" stroke-width="1.09755"/>
<rect x="0.137571" y="-0.763798" width="19.4577" height="8.21783" rx="4.10892" transform="matrix(0.821252 -0.570566 -0.570566 -0.821252 5.06731 29.8951)" fill="#E8443D" stroke="#D1D1D1" stroke-width="1.09755"/>
<rect x="16.7433" y="37.3893" width="19.4577" height="8.21783" rx="4.10892" transform="rotate(-145.21 16.7433 37.3893)" fill="#3F86F9" stroke="#D1D1D1" stroke-width="1.09755"/>
<path d="M54.6809 23.8537H49.0834V8.09279H54.6809C59.6857 8.09279 62.715 11.2977 62.715 15.8854C62.715 20.4732 59.576 23.8537 54.6809 23.8537ZM52.4199 10.9684V20.9781H54.5053C57.6443 20.9781 59.2906 19.1561 59.2906 15.8854C59.2906 12.7464 57.6443 10.9684 54.5053 10.9684H52.4199Z" fill="#262626"/>
<path d="M69.9126 24.0512C66.4004 24.0512 64.0517 21.6147 64.0517 17.9488C64.0517 14.4586 66.4882 11.9123 69.8687 11.9123C73.5784 11.9123 76.037 14.9196 75.4882 18.7391H67.1687C67.3663 20.6488 68.2882 21.7025 69.8467 21.7025C71.1858 21.7025 72.0858 21.0439 72.437 19.8805H75.4662C74.8077 22.5366 72.7662 24.0512 69.9126 24.0512ZM69.8028 14.1513C68.376 14.1513 67.476 15.0732 67.2126 16.8074H72.2614C72.1736 15.183 71.2516 14.1513 69.8028 14.1513Z" fill="#262626"/>
<path d="M88.3784 12.1318L84.076 23.8537H80.7394L76.4151 12.1318H79.7077L82.4955 20.3854L85.3053 12.1318H88.3784Z" fill="#262626"/>
<path d="M93.4199 23.8537H90.0834V8.09279H100.269V10.9903H93.4199V14.9635H99.1931V17.8391H93.4199V23.8537Z" fill="#262626"/>
<path d="M107.913 24.0512C104.4 24.0512 102.052 21.6147 102.052 17.9488C102.052 14.4586 104.488 11.9123 107.869 11.9123C111.578 11.9123 114.037 14.9196 113.488 18.7391H105.169C105.366 20.6488 106.288 21.7025 107.847 21.7025C109.186 21.7025 110.086 21.0439 110.437 19.8805H113.466C112.808 22.5366 110.766 24.0512 107.913 24.0512ZM107.803 14.1513C106.376 14.1513 105.476 15.0732 105.213 16.8074H110.261C110.174 15.183 109.252 14.1513 107.803 14.1513Z" fill="#262626"/>
<path d="M125.72 20.1C125.72 22.5586 123.854 24.0732 120.517 24.0732C117.181 24.0732 115.315 22.4708 115.074 19.8586H117.993C118.015 21.0659 119.047 21.8342 120.561 21.8342C121.747 21.8342 122.647 21.461 122.647 20.6269C122.647 19.8805 122.164 19.5732 121.044 19.3537L118.937 18.9586C116.83 18.5854 115.557 17.422 115.557 15.6001C115.557 13.4269 117.422 11.9123 120.342 11.9123C123.283 11.9123 125.303 13.4708 125.522 15.9952H122.603C122.493 14.8537 121.637 14.1513 120.342 14.1513C119.222 14.1513 118.476 14.5684 118.476 15.3147C118.476 16.0171 118.959 16.3025 120.013 16.5001L122.274 16.9171C124.556 17.3561 125.72 18.4098 125.72 20.1Z" fill="#262626"/>
<path d="M135.108 20.8903V23.5464C134.361 23.9195 133.659 24.0732 132.759 24.0732C130.344 24.0732 128.83 22.6903 128.83 20.0561V14.744H126.459V12.1318H128.83V8.66352H131.859V12.1318H135.217V14.744H131.859V19.3537C131.859 20.7147 132.474 21.2634 133.571 21.2634C134.142 21.2634 134.669 21.1317 135.108 20.8903Z" fill="#262626"/>
<rect x="50.8926" y="31.1281" width="82.1338" height="17.7439" rx="8.87194" stroke="#262626" stroke-width="0.548777"/>
<path d="M82.348 44.5H77.848V36.6195H78.6712V43.7646H82.348V44.5ZM86.963 44.5V43.4463C86.6228 44.1707 85.9203 44.6097 85.0203 44.6097C83.824 44.6097 83.0447 43.9402 83.0447 42.8975C83.0447 41.7671 83.9447 41.1744 85.7008 41.1744C86.052 41.1744 86.3155 41.1963 86.8862 41.2402V40.7573C86.8862 39.7915 86.3703 39.2207 85.4923 39.2207C84.5484 39.2207 83.9557 39.8024 83.9447 40.7463H83.2423C83.2752 39.4622 84.1643 38.6061 85.4813 38.6061C86.8313 38.6061 87.6215 39.3963 87.6215 40.7354V44.5H86.963ZM83.7801 42.8756C83.7801 43.578 84.3179 44.05 85.1301 44.05C86.2057 44.05 86.8862 43.3475 86.8862 42.261V41.7451C86.3923 41.7012 86.052 41.6902 85.7338 41.6902C84.4167 41.6902 83.7801 42.0744 83.7801 42.8756ZM91.3121 46.739C89.8414 46.739 88.9194 45.9707 88.8536 44.6756H89.5889C89.6548 45.6195 90.2694 46.1243 91.3011 46.1243C92.4426 46.1243 93.0462 45.5207 93.0462 44.3792V43.1719C92.695 43.9841 91.9926 44.4561 91.1365 44.4561C89.6767 44.4561 88.6999 43.2817 88.6999 41.5256C88.6999 39.7695 89.6657 38.6061 91.1255 38.6061C91.9926 38.6061 92.7169 39.1 93.0901 39.9451V38.7159H93.8035V44.3683C93.8035 45.8609 92.8926 46.739 91.3121 46.739ZM89.4682 41.5256C89.4682 42.9414 90.1377 43.7975 91.2462 43.7975C92.3328 43.7975 93.0572 42.9195 93.0572 41.5805C93.0572 40.1646 92.3438 39.2646 91.2462 39.2646C90.1487 39.2646 89.4682 40.1207 89.4682 41.5256ZM97.6793 44.6097C96.0878 44.6097 94.9354 43.3475 94.9354 41.6024C94.9354 39.8683 96.0878 38.6171 97.6793 38.6171C99.2817 38.6171 100.434 39.8683 100.434 41.6024C100.434 43.3475 99.2817 44.6097 97.6793 44.6097ZM97.6793 43.9402C98.8097 43.9402 99.6549 43.0402 99.6549 41.6024C99.6549 40.1866 98.8097 39.2866 97.6793 39.2866C96.5598 39.2866 95.7146 40.1866 95.7146 41.6024C95.7146 43.0402 96.5598 43.9402 97.6793 43.9402ZM105.891 42.8866C105.891 43.9512 105.035 44.6097 103.608 44.6097C102.17 44.6097 101.292 43.8853 101.183 42.689H101.918C101.973 43.5122 102.62 44.028 103.608 44.028C104.552 44.028 105.123 43.6658 105.123 43.0073C105.123 42.4366 104.794 42.1731 103.916 41.9975L103.081 41.8329C101.984 41.6244 101.402 41.0866 101.402 40.2524C101.402 39.2866 102.258 38.6061 103.52 38.6061C104.848 38.6061 105.726 39.3195 105.814 40.4719H105.09C105.013 39.6707 104.431 39.1988 103.52 39.1988C102.708 39.1988 102.148 39.5829 102.148 40.1866C102.148 40.7573 102.5 41.0317 103.356 41.1963L104.223 41.361C105.375 41.5805 105.891 42.0634 105.891 42.8866Z" fill="#262626"/>
</svg>
