<svg width="76" height="32" viewBox="0 0 76 32" fill="none" xmlns="http://www.w3.org/2000/svg">
<path d="M14.8559 0.916544C20.5939 0.776855 25.6347 3.78842 28.3505 8.33177C28.5831 8.72102 29.1499 8.731 29.3824 8.34161C32.0364 3.89411 36.9171 0.911921 42.5 0.911921C48.083 0.911921 52.9638 3.89396 55.6177 8.34161C55.8501 8.731 56.4169 8.72102 56.6497 8.33177C59.3655 3.78842 64.4063 0.776855 70.1442 0.916544C78.1102 1.1105 84.8875 7.91733 84.9985 15.8303C85.117 24.2876 78.2498 31.1802 69.7614 31.1802C64.1786 31.1802 59.2978 28.1981 56.6438 23.7506C56.414 23.3656 55.8475 23.3656 55.6177 23.7506C52.9638 28.1981 48.0829 31.1802 42.5 31.1802C36.9171 31.1802 32.0364 28.1981 29.3824 23.7506C29.1526 23.3654 28.5861 23.3654 28.3563 23.7506C25.7024 28.1981 20.8214 31.1802 15.2386 31.1802C6.75036 31.1802 -0.117043 24.2876 0.00151062 15.8303C0.112602 7.91718 6.88994 1.1105 14.8559 0.916544Z" fill="#FFB8B8"/>
</svg>
