<svg width="1117" height="708" viewBox="0 0 1117 708" fill="none" xmlns="http://www.w3.org/2000/svg">
<line x1="0.5" y1="2.35535e-08" x2="0.499967" y2="708" stroke="#D1D1D1"/>
<line x1="95.5" y1="0.00141245" x2="93.5" y2="708.001" stroke="#D1D1D1"/>
<line x1="186.5" y1="2.35535e-08" x2="186.5" y2="708.001" stroke="#D1D1D1"/>
<line x1="279.5" y1="2.35535e-08" x2="279.5" y2="708" stroke="#D1D1D1"/>
<line x1="372.5" y1="2.35535e-08" x2="372.5" y2="708.001" stroke="#D1D1D1"/>
<line x1="464.5" y1="-0.00070619" x2="465.5" y2="707.999" stroke="#D1D1D1"/>
<line x1="558.5" y1="2.35535e-08" x2="558.5" y2="708.001" stroke="#D1D1D1"/>
<line x1="649.5" y1="-0.0014124" x2="651.5" y2="707.999" stroke="#D1D1D1"/>
<line x1="743.5" y1="-0.00070619" x2="744.5" y2="707.999" stroke="#D1D1D1"/>
<line x1="836.5" y1="-0.00070619" x2="837.5" y2="707.999" stroke="#D1D1D1"/>
<line x1="928.5" y1="-0.00198808" x2="930.5" y2="502.998" stroke="#D1D1D1"/>
<line x1="930.5" y1="596" x2="930.5" y2="708" stroke="#D1D1D1"/>
<line x1="1024.5" y1="0.00099401" x2="1023.5" y2="503.001" stroke="#D1D1D1"/>
<line x1="1023.5" y1="596" x2="1023.5" y2="708" stroke="#D1D1D1"/>
<line x1="1116.5" y1="-2.06827e-08" x2="1116.5" y2="708.001" stroke="#D1D1D1"/>
<line x1="1116" y1="38.5" y2="38.5" stroke="#D1D1D1"/>
<line x1="1116" y1="131.5" y2="131.5" stroke="#D1D1D1"/>
<line x1="1116" y1="224.5" y2="224.5" stroke="#D1D1D1"/>
<line x1="1116" y1="317.5" y2="317.5" stroke="#D1D1D1"/>
<line x1="1116" y1="410.5" y2="410.5" stroke="#D1D1D1"/>
<line x1="1116" y1="503.5" y2="503.5" stroke="#D1D1D1"/>
<line x1="1116" y1="596.5" y2="596.5" stroke="#D1D1D1"/>
<line x1="1116" y1="689.5" y2="689.5" stroke="#D1D1D1"/>
<rect width="101" height="101" transform="translate(1015 406)" fill="#FF7DAF"/>
<path d="M1027.5 421.361V422.587H1022.6V425.04H1026.28V426.267H1022.6V429.946H1021.37V421.361H1027.5ZM1033.02 422.587H1030.57V423.2H1029.96V428.107H1030.57V428.72H1033.02V428.107H1033.64V423.2H1033.02V422.587ZM1029.96 421.974V421.361H1033.64V421.974H1034.25V422.587H1034.86V428.72H1034.25V429.333H1033.64V429.946H1029.96V429.333H1029.34V428.72H1028.73V422.587H1029.34V421.974H1029.96ZM1036.09 429.946V421.361H1037.31V428.72H1042.22V429.946H1036.09ZM1043.45 429.946V421.361H1044.67V428.72H1049.58V429.946H1043.45ZM1055.1 422.587H1052.65V423.2H1052.03V428.107H1052.65V428.72H1055.1V428.107H1055.71V423.2H1055.1V422.587ZM1052.03 421.974V421.361H1055.71V421.974H1056.33V422.587H1056.94V428.72H1056.33V429.333H1055.71V429.946H1052.03V429.333H1051.42V428.72H1050.81V422.587H1051.42V421.974H1052.03ZM1058.17 421.361H1059.39V428.107H1060.62V425.04H1061.85V428.107H1063.07V421.361H1064.3V428.72H1063.69V429.333H1063.07V429.946H1061.85V429.333H1060.62V429.946H1059.39V429.333H1058.78V428.72H1058.17V421.361ZM1073.5 428.72H1072.88V421.361H1074.11V428.107H1074.72V428.72H1077.18V428.107H1077.79V421.361H1079.02V428.72H1078.4V429.333H1077.79V429.946H1074.11V429.333H1073.5V428.72ZM1085.76 422.587H1086.38V423.814H1085.15V423.2H1084.54V422.587H1082.08V423.2H1081.47V424.427H1082.08V425.04H1085.15V425.653H1085.76V426.267H1086.38V428.72H1085.76V429.333H1085.15V429.946H1081.47V429.333H1080.86V428.72H1080.24V427.493H1081.47V428.107H1082.08V428.72H1084.54V428.107H1085.15V426.88H1084.54V426.267H1081.47V425.653H1080.86V425.04H1080.24V422.587H1080.86V421.974H1081.47V421.361H1085.15V421.974H1085.76V422.587ZM1027.5 433.361V434.587H1022.6V437.04H1026.28V438.267H1022.6V441.946H1021.37V433.361H1027.5ZM1033.02 434.587H1030.57V435.2H1029.96V440.107H1030.57V440.72H1033.02V440.107H1033.64V435.2H1033.02V434.587ZM1029.96 433.974V433.361H1033.64V433.974H1034.25V434.587H1034.86V440.72H1034.25V441.333H1033.64V441.946H1029.96V441.333H1029.34V440.72H1028.73V434.587H1029.34V433.974H1029.96ZM1037.31 434.587V437.04H1040.38V436.427H1040.99V435.2H1040.38V434.587H1037.31ZM1037.93 438.267H1037.31V441.946H1036.09V433.361H1040.99V433.974H1041.61V434.587H1042.22V437.04H1041.61V437.653H1040.99V438.267H1039.77V438.88H1040.38V439.493H1040.99V440.107H1041.61V440.72H1042.22V441.946H1040.99V441.333H1040.38V440.72H1039.77V440.107H1039.15V439.493H1038.54V438.88H1037.93V438.267ZM1052.03 441.946H1050.81V433.361H1052.03V434.587H1052.65V435.2H1053.26V435.814H1054.49V435.2H1055.1V434.587H1055.71V433.361H1056.94V441.946H1055.71V436.427H1055.1V437.04H1054.49V438.267H1053.26V437.04H1052.65V436.427H1052.03V441.946ZM1062.46 434.587H1060.01V435.2H1059.39V440.107H1060.01V440.72H1062.46V440.107H1063.07V435.2H1062.46V434.587ZM1059.39 433.974V433.361H1063.07V433.974H1063.69V434.587H1064.3V440.72H1063.69V441.333H1063.07V441.946H1059.39V441.333H1058.78V440.72H1058.17V434.587H1058.78V433.974H1059.39ZM1066.75 434.587V437.04H1069.82V436.427H1070.43V435.2H1069.82V434.587H1066.75ZM1067.36 438.267H1066.75V441.946H1065.52V433.361H1070.43V433.974H1071.04V434.587H1071.66V437.04H1071.04V437.653H1070.43V438.267H1069.2V438.88H1069.82V439.493H1070.43V440.107H1071.04V440.72H1071.66V441.946H1070.43V441.333H1069.82V440.72H1069.2V440.107H1068.59V439.493H1067.98V438.88H1067.36V438.267ZM1079.02 433.361V434.587H1074.11V437.04H1077.79V438.267H1074.11V440.72H1079.02V441.946H1072.88V433.361H1079.02ZM1021.98 453.72H1021.37V446.361H1022.6V453.107H1023.21V453.72H1025.66V453.107H1026.28V446.361H1027.5V453.72H1026.89V454.333H1026.28V454.946H1022.6V454.333H1021.98V453.72ZM1029.96 447.587V450.04H1033.02V449.427H1033.64V448.2H1033.02V447.587H1029.96ZM1029.96 451.267V454.946H1028.73V446.361H1033.64V446.974H1034.25V447.587H1034.86V450.04H1034.25V450.653H1033.64V451.267H1029.96ZM1037.31 447.587V453.72H1040.38V453.107H1040.99V448.2H1040.38V447.587H1037.31ZM1036.09 454.946V446.361H1040.99V446.974H1041.61V447.587H1042.22V453.72H1041.61V454.333H1040.99V454.946H1036.09ZM1044.67 451.267H1048.35V449.427H1047.74V448.814H1047.13V448.2H1045.9V448.814H1045.29V449.427H1044.67V451.267ZM1044.67 454.946H1043.45V448.814H1044.06V448.2H1044.67V447.587H1045.29V446.974H1045.9V446.361H1047.13V446.974H1047.74V447.587H1048.35V448.2H1048.97V448.814H1049.58V454.946H1048.35V452.493H1044.67V454.946ZM1053.26 447.587H1050.81V446.361H1056.94V447.587H1054.49V454.946H1053.26V447.587ZM1064.3 446.361V447.587H1059.39V450.04H1063.07V451.267H1059.39V453.72H1064.3V454.946H1058.17V446.361H1064.3ZM1071.04 447.587H1071.66V448.814H1070.43V448.2H1069.82V447.587H1067.36V448.2H1066.75V449.427H1067.36V450.04H1070.43V450.653H1071.04V451.267H1071.66V453.72H1071.04V454.333H1070.43V454.946H1066.75V454.333H1066.14V453.72H1065.52V452.493H1066.75V453.107H1067.36V453.72H1069.82V453.107H1070.43V451.88H1069.82V451.267H1066.75V450.653H1066.14V450.04H1065.52V447.587H1066.14V446.974H1066.75V446.361H1070.43V446.974H1071.04V447.587ZM1024.44 461.427H1023.82V463.88H1024.44V461.427ZM1025.66 464.493V463.88H1026.28V463.267H1026.89V460.814H1026.28V460.2H1025.66V459.587H1023.21V460.2H1022.6V460.814H1021.98V464.493H1022.6V465.107H1023.21V465.72H1025.66V465.107H1026.89V465.72H1026.28V466.333H1022.6V465.72H1021.98V465.107H1021.37V460.2H1021.98V459.587H1022.6V458.974H1026.28V459.587H1026.89V460.2H1027.5V463.88H1026.89V464.493H1025.66ZM1025.66 463.88H1025.05V464.493H1023.21V463.88H1022.6V461.427H1023.21V460.814H1024.44V461.427H1025.05V460.814H1025.66V463.88ZM1034.25 459.587H1034.86V460.814H1033.64V460.2H1033.02V459.587H1030.57V460.2H1029.96V465.107H1030.57V465.72H1033.02V465.107H1033.64V463.267H1031.8V462.04H1034.86V465.72H1034.25V466.333H1033.64V466.946H1029.96V466.333H1029.34V465.72H1028.73V459.587H1029.34V458.974H1029.96V458.361H1033.64V458.974H1034.25V459.587ZM1037.31 459.587V465.72H1040.38V465.107H1040.99V460.2H1040.38V459.587H1037.31ZM1036.09 466.946V458.361H1040.99V458.974H1041.61V459.587H1042.22V465.72H1041.61V466.333H1040.99V466.946H1036.09ZM1048.97 459.587H1049.58V460.814H1048.35V460.2H1047.74V459.587H1045.29V460.2H1044.67V465.107H1045.29V465.72H1047.74V465.107H1048.35V463.267H1046.51V462.04H1049.58V465.72H1048.97V466.333H1048.35V466.946H1044.67V466.333H1044.06V465.72H1043.45V459.587H1044.06V458.974H1044.67V458.361H1048.35V458.974H1048.97V459.587ZM1050.81 466.946V458.361H1052.03V465.72H1056.94V466.946H1050.81ZM1059.39 463.267H1063.07V461.427H1062.46V460.814H1061.85V460.2H1060.62V460.814H1060.01V461.427H1059.39V463.267ZM1059.39 466.946H1058.17V460.814H1058.78V460.2H1059.39V459.587H1060.01V458.974H1060.62V458.361H1061.85V458.974H1062.46V459.587H1063.07V460.2H1063.69V460.814H1064.3V466.946H1063.07V464.493H1059.39V466.946ZM1071.04 459.587H1071.66V460.814H1070.43V460.2H1069.82V459.587H1067.36V460.2H1066.75V465.107H1067.36V465.72H1069.82V465.107H1070.43V463.267H1068.59V462.04H1071.66V465.72H1071.04V466.333H1070.43V466.946H1066.75V466.333H1066.14V465.72H1065.52V459.587H1066.14V458.974H1066.75V458.361H1070.43V458.974H1071.04V459.587ZM1077.18 459.587H1074.72V460.2H1074.11V465.107H1074.72V465.72H1077.18V465.107H1077.79V460.2H1077.18V459.587ZM1074.11 458.974V458.361H1077.79V458.974H1078.4V459.587H1079.02V465.72H1078.4V466.333H1077.79V466.946H1074.11V466.333H1073.5V465.72H1072.88V459.587H1073.5V458.974H1074.11ZM1085.76 459.587H1086.38V460.814H1085.15V460.2H1084.54V459.587H1082.08V460.2H1081.47V461.427H1082.08V462.04H1085.15V462.653H1085.76V463.267H1086.38V465.72H1085.76V466.333H1085.15V466.946H1081.47V466.333H1080.86V465.72H1080.24V464.493H1081.47V465.107H1082.08V465.72H1084.54V465.107H1085.15V463.88H1084.54V463.267H1081.47V462.653H1080.86V462.04H1080.24V459.587H1080.86V458.974H1081.47V458.361H1085.15V458.974H1085.76V459.587Z" fill="#1E1E1E"/>
<rect width="101" height="101" transform="translate(0 309)" fill="#039855"/>
<path d="M8.2089 331.72H10.6619V331.107H11.2752V330.493H12.5017V331.72H11.8885V332.333H11.2752V332.946H7.59564V332.333H6.98238V331.72H6.36912V325.587H6.98238V324.974H7.59564V324.361H11.2752V324.974H11.8885V325.587H12.5017V326.814H11.2752V326.2H10.6619V325.587H8.2089V326.2H7.59564V331.107H8.2089V331.72ZM15.568 331.72H18.0211V331.107H18.6343V328.04H18.0211V327.427H15.568V328.04H14.9548V331.107H15.568V331.72ZM14.9548 332.946V332.333H14.3415V331.72H13.7283V327.427H14.3415V326.814H14.9548V326.2H18.6343V326.814H19.2476V327.427H19.8609V331.72H19.2476V332.333H18.6343V332.946H14.9548ZM24.767 332.946H23.5404V327.427H21.7006V326.2H23.5404V324.974H24.1537V324.361H26.6067V325.587H24.767V326.2H26.6067V327.427H24.767V332.946ZM32.1261 332.946H30.8996V327.427H29.0598V326.2H30.8996V324.974H31.5128V324.361H33.9659V325.587H32.1261V326.2H33.9659V327.427H32.1261V332.946ZM37.0322 328.04V328.653H40.7117V328.04H40.0985V327.427H37.6454V328.04H37.0322ZM41.9383 331.107V331.72H41.325V332.333H40.7117V332.946H37.0322V332.333H36.4189V331.72H35.8056V327.427H36.4189V326.814H37.0322V326.2H40.7117V326.814H41.325V327.427H41.9383V329.267H41.325V329.88H37.0322V331.107H37.6454V331.72H40.0985V331.107H41.9383ZM44.3913 328.04V328.653H48.0709V328.04H47.4576V327.427H45.0046V328.04H44.3913ZM49.2974 331.107V331.72H48.6841V332.333H48.0709V332.946H44.3913V332.333H43.778V331.72H43.1648V327.427H43.778V326.814H44.3913V326.2H48.0709V326.814H48.6841V327.427H49.2974V329.267H48.6841V329.88H44.3913V331.107H45.0046V331.72H47.4576V331.107H49.2974ZM53.5902 331.72V332.946H52.3637V331.72H53.5902ZM8.2089 343.72H10.6619V343.107H11.2752V342.493H12.5017V343.72H11.8885V344.333H11.2752V344.946H7.59564V344.333H6.98238V343.72H6.36912V337.587H6.98238V336.974H7.59564V336.361H11.2752V336.974H11.8885V337.587H12.5017V338.814H11.2752V338.2H10.6619V337.587H8.2089V338.2H7.59564V343.107H8.2089V343.72ZM15.568 343.72H18.0211V343.107H18.6343V340.04H18.0211V339.427H15.568V340.04H14.9548V343.107H15.568V343.72ZM14.9548 344.946V344.333H14.3415V343.72H13.7283V339.427H14.3415V338.814H14.9548V338.2H18.6343V338.814H19.2476V339.427H19.8609V343.72H19.2476V344.333H18.6343V344.946H14.9548ZM25.9935 339.427V336.361H27.22V344.946H25.9935V343.72H25.3802V344.333H24.767V344.946H22.9272V344.333H22.3139V343.72H21.7006V343.107H21.0874V340.04H21.7006V339.427H22.3139V338.814H22.9272V338.2H24.767V338.814H25.3802V339.427H25.9935ZM22.9272 343.107H23.5404V343.72H24.1537V343.107H24.767V342.493H25.3802V340.653H24.767V340.04H24.1537V339.427H23.5404V340.04H22.9272V340.653H22.3139V342.493H22.9272V343.107ZM29.673 340.04V340.653H33.3526V340.04H32.7393V339.427H30.2863V340.04H29.673ZM34.5791 343.107V343.72H33.9659V344.333H33.3526V344.946H29.673V344.333H29.0598V343.72H28.4465V339.427H29.0598V338.814H29.673V338.2H33.3526V338.814H33.9659V339.427H34.5791V341.267H33.9659V341.88H29.673V343.107H30.2863V343.72H32.7393V343.107H34.5791ZM38.872 343.72V344.946H37.6454V343.72H38.872ZM8.2089 356.72H10.6619V356.107H11.2752V355.493H12.5017V356.72H11.8885V357.333H11.2752V357.946H7.59564V357.333H6.98238V356.72H6.36912V350.587H6.98238V349.974H7.59564V349.361H11.2752V349.974H11.8885V350.587H12.5017V351.814H11.2752V351.2H10.6619V350.587H8.2089V351.2H7.59564V356.107H8.2089V356.72ZM15.568 356.72H18.0211V356.107H18.6343V353.04H18.0211V352.427H15.568V353.04H14.9548V356.107H15.568V356.72ZM14.9548 357.946V357.333H14.3415V356.72H13.7283V352.427H14.3415V351.814H14.9548V351.2H18.6343V351.814H19.2476V352.427H19.8609V356.72H19.2476V357.333H18.6343V357.946H14.9548ZM22.3139 353.04V357.946H21.0874V351.2H22.3139V351.814H22.9272V351.2H25.9935V351.814H26.6067V352.427H27.22V357.946H25.9935V353.04H25.3802V352.427H24.767V357.946H23.5404V352.427H22.9272V353.04H22.3139ZM29.673 353.04V357.946H28.4465V351.2H29.673V351.814H30.2863V351.2H33.3526V351.814H33.9659V352.427H34.5791V357.946H33.3526V353.04H32.7393V352.427H32.1261V357.946H30.8996V352.427H30.2863V353.04H29.673ZM35.8056 351.2H37.0322V356.107H37.6454V356.72H40.0985V356.107H40.7117V351.2H41.9383V356.72H41.325V357.333H40.7117V357.946H37.0322V357.333H36.4189V356.72H35.8056V351.2ZM44.3913 353.04V357.946H43.1648V351.2H44.3913V351.814H45.0046V351.2H48.0709V351.814H48.6841V352.427H49.2974V357.946H48.0709V353.04H47.4576V352.427H45.0046V353.04H44.3913ZM54.2035 349.974V351.2H52.977V349.974H54.2035ZM54.8167 356.72H55.43V357.946H54.2035V357.333H53.5902V356.72H52.977V353.653H51.7504V352.427H54.2035V356.107H54.8167V356.72ZM62.1759 356.72H62.7891V357.946H61.5626V357.333H60.9494V356.72H60.3361V352.427H59.1096V351.2H60.3361V349.361H61.5626V351.2H62.7891V352.427H61.5626V356.107H62.1759V356.72ZM66.4687 357.946V356.72H69.535V356.107H70.1483V354.267H69.535V354.88H68.9217V355.493H66.4687V354.88H65.8554V354.267H65.2422V350.587H66.4687V353.653H67.082V354.267H68.3085V353.653H68.9217V353.04H69.535V351.814H70.1483V350.587H71.3748V356.72H70.7615V357.333H70.1483V357.946H66.4687ZM75.6676 356.72V357.946H74.4411V356.72H75.6676ZM7.59564 362.587V365.04H10.6619V364.427H11.2752V363.2H10.6619V362.587H7.59564ZM8.2089 366.267H7.59564V369.946H6.36912V361.361H11.2752V361.974H11.8885V362.587H12.5017V365.04H11.8885V365.653H11.2752V366.267H10.0487V366.88H10.6619V367.493H11.2752V368.107H11.8885V368.72H12.5017V369.946H11.2752V369.333H10.6619V368.72H10.0487V368.107H9.43543V367.493H8.82216V366.88H8.2089V366.267ZM14.9548 365.04V365.653H18.6343V365.04H18.0211V364.427H15.568V365.04H14.9548ZM19.8609 368.107V368.72H19.2476V369.333H18.6343V369.946H14.9548V369.333H14.3415V368.72H13.7283V364.427H14.3415V363.814H14.9548V363.2H18.6343V363.814H19.2476V364.427H19.8609V366.267H19.2476V366.88H14.9548V368.107H15.568V368.72H18.0211V368.107H19.8609ZM25.9935 364.427H25.3802V363.814H23.5404V364.427H22.9272V366.267H23.5404V366.88H25.3802V366.267H25.9935V364.427ZM22.3139 367.493V369.946H21.0874V362.587H22.3139V363.2H22.9272V362.587H25.9935V363.2H26.6067V363.814H27.22V366.88H26.6067V367.493H25.9935V368.107H22.9272V367.493H22.3139ZM29.673 365.04V365.653H33.3526V365.04H32.7393V364.427H30.2863V365.04H29.673ZM34.5791 368.107V368.72H33.9659V369.333H33.3526V369.946H29.673V369.333H29.0598V368.72H28.4465V364.427H29.0598V363.814H29.673V363.2H33.3526V363.814H33.9659V364.427H34.5791V366.267H33.9659V366.88H29.673V368.107H30.2863V368.72H32.7393V368.107H34.5791ZM37.6454 368.72H40.0985V368.107H40.7117V366.88H40.0985V366.267H37.6454V366.88H37.0322V368.107H37.6454V368.72ZM37.0322 369.946V369.333H36.4189V368.72H35.8056V366.267H36.4189V365.653H37.0322V365.04H40.0985V365.653H40.7117V364.427H40.0985V363.814H37.0322V362.587H40.7117V363.2H41.325V363.814H41.9383V369.946H40.7117V369.333H40.0985V369.946H37.0322ZM47.4576 368.72H48.0709V369.946H46.8443V369.333H46.2311V368.72H45.6178V364.427H44.3913V363.2H45.6178V361.361H46.8443V363.2H48.0709V364.427H46.8443V368.107H47.4576V368.72ZM53.5902 368.72V369.946H52.3637V368.72H53.5902Z" fill="#1E1E1E"/>
<rect width="101" height="101" transform="translate(279 127)" fill="#E89702"/>
<path d="M322.754 180.773V180.16H322.141V179.547H321.528V178.934H320.914V178.32H320.301V177.707H319.688V175.867H320.301V175.254H320.914V174.641H321.528V174.028H322.141V173.414H322.754V172.801H323.367V172.188H324.594V173.414H323.981V174.028H323.367V174.641H322.754V175.254H322.141V175.867H321.528V176.481H320.914V177.094H321.528V177.707H322.141V178.32H322.754V178.934H323.367V179.547H323.981V180.16H324.594V181.387H323.367V180.773H322.754ZM331.34 172.801H332.566V175.254H331.953V175.867H331.34V176.481H330.727V177.094H330.113V177.707H329.5V178.32H328.887V178.934H328.273V179.547H327.66V181.387H326.434V178.934H327.047V178.32H327.66V177.707H328.273V177.094H328.887V176.481H329.5V175.867H330.113V175.254H330.727V174.641H331.34V172.801ZM335.633 180.773V181.387H334.406V180.16H335.019V179.547H335.633V178.934H336.246V178.32H336.859V177.707H337.472V177.094H338.086V176.481H337.472V175.867H336.859V175.254H336.246V174.641H335.633V174.028H335.019V173.414H334.406V172.188H335.633V172.801H336.246V173.414H336.859V174.028H337.472V174.641H338.086V175.254H338.699V175.867H339.312V177.707H338.699V178.32H338.086V178.934H337.472V179.547H336.859V180.16H336.246V180.773H335.633Z" fill="#1E1E1E"/>
<rect width="101" height="101" transform="translate(744 266)" fill="#FA7319"/>
<path d="M787.754 319.773V319.16H787.141V318.547H786.528V317.934H785.914V317.32H785.301V316.707H784.688V314.867H785.301V314.254H785.914V313.641H786.528V313.028H787.141V312.414H787.754V311.801H788.367V311.188H789.594V312.414H788.981V313.028H788.367V313.641H787.754V314.254H787.141V314.867H786.528V315.481H785.914V316.094H786.528V316.707H787.141V317.32H787.754V317.934H788.367V318.547H788.981V319.16H789.594V320.387H788.367V319.773H787.754ZM796.34 311.801H797.566V314.254H796.953V314.867H796.34V315.481H795.727V316.094H795.113V316.707H794.5V317.32H793.887V317.934H793.273V318.547H792.66V320.387H791.434V317.934H792.047V317.32H792.66V316.707H793.273V316.094H793.887V315.481H794.5V314.867H795.113V314.254H795.727V313.641H796.34V311.801ZM800.633 319.773V320.387H799.406V319.16H800.019V318.547H800.633V317.934H801.246V317.32H801.859V316.707H802.472V316.094H803.086V315.481H802.472V314.867H801.859V314.254H801.246V313.641H800.633V313.028H800.019V312.414H799.406V311.188H800.633V311.801H801.246V312.414H801.859V313.028H802.472V313.641H803.086V314.254H803.699V314.867H804.312V316.707H803.699V317.32H803.086V317.934H802.472V318.547H801.859V319.16H801.246V319.773H800.633Z" fill="#1E1E1E"/>
<rect width="101" height="101" transform="translate(248 452)" fill="#FC7D73"/>
<path d="M256.823 465.587H254.37V464.361H260.503V465.587H258.05V472.946H256.823V465.587ZM262.956 468.04V468.653H266.635V468.04H266.022V467.427H263.569V468.04H262.956ZM267.862 471.107V471.72H267.249V472.333H266.635V472.946H262.956V472.333H262.342V471.72H261.729V467.427H262.342V466.814H262.956V466.2H266.635V466.814H267.249V467.427H267.862V469.267H267.249V469.88H262.956V471.107H263.569V471.72H266.022V471.107H267.862ZM273.994 471.107V470.493H275.221V471.72H274.608V472.333H273.994V472.946H270.315V472.333H269.702V471.72H269.088V467.427H269.702V466.814H270.315V466.2H273.994V466.814H274.608V467.427H275.221V468.653H273.994V468.04H273.381V467.427H270.928V468.04H270.315V471.107H270.928V471.72H273.381V471.107H273.994ZM277.674 469.267V472.946H276.447V464.361H277.674V467.427H278.287V466.814H278.901V466.2H280.74V466.814H281.354V467.427H281.967V468.04H282.58V472.946H281.354V468.653H280.74V468.04H280.127V467.427H279.514V468.04H278.901V468.653H278.287V469.267H277.674ZM287.486 464.974V466.2H286.26V464.974H287.486ZM288.099 471.72H288.713V472.946H287.486V472.333H286.873V471.72H286.26V468.653H285.033V467.427H287.486V471.107H288.099V471.72ZM292.392 468.04V468.653H296.072V468.04H295.459V467.427H293.006V468.04H292.392ZM297.298 471.107V471.72H296.685V472.333H296.072V472.946H292.392V472.333H291.779V471.72H291.166V467.427H291.779V466.814H292.392V466.2H296.072V466.814H296.685V467.427H297.298V469.267H296.685V469.88H292.392V471.107H293.006V471.72H295.459V471.107H297.298ZM299.138 471.72H298.525V470.493H299.751V471.107H300.365V471.72H302.818V470.493H301.591V469.88H300.365V469.267H299.138V468.653H298.525V467.427H299.138V466.814H299.751V466.2H303.431V466.814H304.044V467.427H304.657V468.653H303.431V468.04H302.818V467.427H300.365V468.653H302.204V469.267H303.431V469.88H304.044V470.493H304.657V471.72H304.044V472.333H303.431V472.946H299.751V472.333H299.138V471.72ZM255.597 482.267H259.276V480.427H258.663V479.814H258.05V479.2H256.823V479.814H256.21V480.427H255.597V482.267ZM255.597 485.946H254.37V479.814H254.983V479.2H255.597V478.587H256.21V477.974H256.823V477.361H258.05V477.974H258.663V478.587H259.276V479.2H259.889V479.814H260.503V485.946H259.276V483.493H255.597V485.946ZM262.342 484.72H261.729V483.493H262.956V484.107H263.569V484.72H266.022V483.493H264.796V482.88H263.569V482.267H262.342V481.653H261.729V480.427H262.342V479.814H262.956V479.2H266.635V479.814H267.249V480.427H267.862V481.653H266.635V481.04H266.022V480.427H263.569V481.653H265.409V482.267H266.635V482.88H267.249V483.493H267.862V484.72H267.249V485.333H266.635V485.946H262.956V485.333H262.342V484.72ZM269.702 484.72H269.088V483.493H270.315V484.107H270.928V484.72H273.381V483.493H272.155V482.88H270.928V482.267H269.702V481.653H269.088V480.427H269.702V479.814H270.315V479.2H273.994V479.814H274.608V480.427H275.221V481.653H273.994V481.04H273.381V480.427H270.928V481.653H272.768V482.267H273.994V482.88H274.608V483.493H275.221V484.72H274.608V485.333H273.994V485.946H270.315V485.333H269.702V484.72ZM277.674 481.04V481.653H281.354V481.04H280.74V480.427H278.287V481.04H277.674ZM282.58 484.107V484.72H281.967V485.333H281.354V485.946H277.674V485.333H277.061V484.72H276.447V480.427H277.061V479.814H277.674V479.2H281.354V479.814H281.967V480.427H282.58V482.267H281.967V482.88H277.674V484.107H278.287V484.72H280.74V484.107H282.58ZM285.033 481.04V485.946H283.807V479.2H285.033V479.814H285.646V479.2H288.713V479.814H289.326V480.427H289.939V485.946H288.713V481.04H288.099V480.427H287.486V485.946H286.26V480.427H285.646V481.04H285.033ZM294.232 484.72H294.845V484.107H295.459V483.493H296.072V481.653H295.459V481.04H294.845V480.427H294.232V481.04H293.619V481.653H293.006V483.493H293.619V484.107H294.232V484.72ZM292.392 484.72V485.946H291.166V477.361H292.392V480.427H293.006V479.814H293.619V479.2H295.459V479.814H296.072V480.427H296.685V481.04H297.298V484.107H296.685V484.72H296.072V485.333H295.459V485.946H293.619V485.333H293.006V484.72H292.392ZM302.204 477.361V485.946H300.978V477.361H302.204ZM307.111 481.04V481.653H310.79V481.04H310.177V480.427H307.724V481.04H307.111ZM312.017 484.107V484.72H311.403V485.333H310.79V485.946H307.111V485.333H306.497V484.72H305.884V480.427H306.497V479.814H307.111V479.2H310.79V479.814H311.403V480.427H312.017V482.267H311.403V482.88H307.111V484.107H307.724V484.72H310.177V484.107H312.017ZM316.309 484.72V485.946H315.083V484.72H316.309ZM316.309 483.493H315.083V477.361H316.309V483.493ZM323.669 484.72V485.946H322.442V484.72H323.669ZM323.669 483.493H322.442V477.361H323.669V483.493ZM331.028 484.72V485.946H329.801V484.72H331.028ZM331.028 483.493H329.801V477.361H331.028V483.493Z" fill="#1E1E1E"/>
<rect width="101" height="101" transform="translate(926 80)" fill="#4285F4"/>
<path d="M933.597 97.2667H937.276V95.427H936.663V94.8137H936.05V94.2004H934.823V94.8137H934.21V95.427H933.597V97.2667ZM933.597 100.946H932.37V94.8137H932.983V94.2004H933.597V93.5872H934.21V92.9739H934.823V92.3607H936.05V92.9739H936.663V93.5872H937.276V94.2004H937.889V94.8137H938.503V100.946H937.276V98.4933H933.597V100.946ZM947.088 94.2004H948.315V99.1065H948.928V99.7198H949.541V96.6535H950.768V99.7198H951.381V99.1065H951.994V94.2004H953.221V99.7198H952.608V100.333H951.994V100.946H950.768V100.333H949.541V100.946H948.315V100.333H947.702V99.7198H947.088V94.2004ZM955.674 96.0402V96.6535H959.354V96.0402H958.74V95.427H956.287V96.0402H955.674ZM960.58 99.1065V99.7198H959.967V100.333H959.354V100.946H955.674V100.333H955.061V99.7198H954.447V95.427H955.061V94.8137H955.674V94.2004H959.354V94.8137H959.967V95.427H960.58V97.2667H959.967V97.88H955.674V99.1065H956.287V99.7198H958.74V99.1065H960.58ZM963.033 96.0402V96.6535H966.713V96.0402H966.099V95.427H963.646V96.0402H963.033ZM967.939 99.1065V99.7198H967.326V100.333H966.713V100.946H963.033V100.333H962.42V99.7198H961.807V95.427H962.42V94.8137H963.033V94.2004H966.713V94.8137H967.326V95.427H967.939V97.2667H967.326V97.88H963.033V99.1065H963.646V99.7198H966.099V99.1065H967.939ZM970.392 99.7198V100.946H969.166V92.3607H970.392V97.88H971.006V97.2667H971.619V96.6535H972.232V96.0402H972.845V95.427H973.459V94.8137H974.072V94.2004H975.298V95.427H974.685V96.0402H974.072V96.6535H973.459V97.2667H972.845V97.88H973.459V98.4933H974.072V99.1065H974.685V99.7198H975.298V100.946H974.072V100.333H973.459V99.7198H972.845V99.1065H972.232V98.4933H971.619V99.1065H971.006V99.7198H970.392ZM985.724 99.7198H988.177V99.1065H988.79V96.0402H988.177V95.427H985.724V96.0402H985.111V99.1065H985.724V99.7198ZM985.111 100.946V100.333H984.497V99.7198H983.884V95.427H984.497V94.8137H985.111V94.2004H988.79V94.8137H989.403V95.427H990.017V99.7198H989.403V100.333H988.79V100.946H985.111ZM994.923 100.946H993.696V95.427H991.856V94.2004H993.696V92.9739H994.309V92.3607H996.763V93.5872H994.923V94.2004H996.763V95.427H994.923V100.946ZM936.05 105.361V113.946H934.823V105.361H936.05ZM940.956 109.04V109.653H944.635V109.04H944.022V108.427H941.569V109.04H940.956ZM945.862 112.107V112.72H945.249V113.333H944.635V113.946H940.956V113.333H940.342V112.72H939.729V108.427H940.342V107.814H940.956V107.2H944.635V107.814H945.249V108.427H945.862V110.267H945.249V110.88H940.956V112.107H941.569V112.72H944.022V112.107H945.862ZM948.928 112.72H951.381V112.107H951.994V110.88H951.381V110.267H948.928V110.88H948.315V112.107H948.928V112.72ZM948.315 113.946V113.333H947.702V112.72H947.088V110.267H947.702V109.653H948.315V109.04H951.381V109.653H951.994V108.427H951.381V107.814H948.315V106.587H951.994V107.2H952.608V107.814H953.221V113.946H951.994V113.333H951.381V113.946H948.315ZM955.674 110.267V113.946H954.447V107.2H955.674V108.427H956.287V107.814H956.901V107.2H959.354V107.814H959.967V108.427H960.58V109.653H959.354V109.04H958.74V108.427H957.514V109.04H956.901V109.653H956.287V110.267H955.674ZM963.033 109.04V113.946H961.807V107.2H963.033V107.814H963.646V107.2H966.713V107.814H967.326V108.427H967.939V113.946H966.713V109.04H966.099V108.427H963.646V109.04H963.033ZM972.845 105.974V107.2H971.619V105.974H972.845ZM973.459 112.72H974.072V113.946H972.845V113.333H972.232V112.72H971.619V109.653H970.392V108.427H972.845V112.107H973.459V112.72ZM977.751 109.04V113.946H976.525V107.2H977.751V107.814H978.365V107.2H981.431V107.814H982.044V108.427H982.657V113.946H981.431V109.04H980.818V108.427H978.365V109.04H977.751ZM988.79 109.04V108.427H988.177V107.814H985.724V108.427H985.111V109.04H985.724V109.653H988.177V109.04H988.79ZM985.111 113.333H984.497V112.107H985.724V112.72H988.177V112.107H988.79V110.267H988.177V110.88H985.111V110.267H984.497V109.653H983.884V107.814H984.497V107.2H985.111V106.587H988.79V107.2H989.403V107.814H990.017V112.72H989.403V113.333H988.79V113.946H985.111V113.333ZM993.696 112.72V111.493H994.923V112.72H994.309V113.333H993.696V113.946H992.47V113.333H993.083V112.72H993.696ZM933.597 121.04V125.946H932.37V119.2H933.597V119.814H934.21V119.2H937.276V119.814H937.889V120.427H938.503V125.946H937.276V121.04H936.663V120.427H934.21V121.04H933.597ZM940.956 121.04V121.653H944.635V121.04H944.022V120.427H941.569V121.04H940.956ZM945.862 124.107V124.72H945.249V125.333H944.635V125.946H940.956V125.333H940.342V124.72H939.729V120.427H940.342V119.814H940.956V119.2H944.635V119.814H945.249V120.427H945.862V122.267H945.249V122.88H940.956V124.107H941.569V124.72H944.022V124.107H945.862ZM951.381 124.72H951.994V125.946H950.768V125.333H950.155V124.72H949.541V120.427H948.315V119.2H949.541V117.361H950.768V119.2H951.994V120.427H950.768V124.107H951.381V124.72ZM954.447 119.2H955.674V124.107H956.287V124.72H956.901V121.653H958.127V124.72H958.74V124.107H959.354V119.2H960.58V124.72H959.967V125.333H959.354V125.946H958.127V125.333H956.901V125.946H955.674V125.333H955.061V124.72H954.447V119.2ZM963.646 124.72H966.099V124.107H966.713V121.04H966.099V120.427H963.646V121.04H963.033V124.107H963.646V124.72ZM963.033 125.946V125.333H962.42V124.72H961.807V120.427H962.42V119.814H963.033V119.2H966.713V119.814H967.326V120.427H967.939V124.72H967.326V125.333H966.713V125.946H963.033ZM970.392 122.267V125.946H969.166V119.2H970.392V120.427H971.006V119.814H971.619V119.2H974.072V119.814H974.685V120.427H975.298V121.653H974.072V121.04H973.459V120.427H972.232V121.04H971.619V121.653H971.006V122.267H970.392ZM977.751 124.72V125.946H976.525V117.361H977.751V122.88H978.365V122.267H978.978V121.653H979.591V121.04H980.204V120.427H980.818V119.814H981.431V119.2H982.657V120.427H982.044V121.04H981.431V121.653H980.818V122.267H980.204V122.88H980.818V123.493H981.431V124.107H982.044V124.72H982.657V125.946H981.431V125.333H980.818V124.72H980.204V124.107H979.591V123.493H978.978V124.107H978.365V124.72H977.751ZM987.564 117.974V119.2H986.337V117.974H987.564ZM988.177 124.72H988.79V125.946H987.564V125.333H986.95V124.72H986.337V121.653H985.111V120.427H987.564V124.107H988.177V124.72ZM992.47 121.04V125.946H991.243V119.2H992.47V119.814H993.083V119.2H996.149V119.814H996.763V120.427H997.376V125.946H996.149V121.04H995.536V120.427H993.083V121.04H992.47ZM1003.51 121.04V120.427H1002.9V119.814H1000.44V120.427H999.829V121.04H1000.44V121.653H1002.9V121.04H1003.51ZM999.829 125.333H999.216V124.107H1000.44V124.72H1002.9V124.107H1003.51V122.267H1002.9V122.88H999.829V122.267H999.216V121.653H998.602V119.814H999.216V119.2H999.829V118.587H1003.51V119.2H1004.12V119.814H1004.73V124.72H1004.12V125.333H1003.51V125.946H999.829V125.333ZM934.21 137.72H936.663V137.107H937.276V135.88H936.663V135.267H934.21V135.88H933.597V137.107H934.21V137.72ZM933.597 138.946V138.333H932.983V137.72H932.37V135.267H932.983V134.653H933.597V134.04H936.663V134.653H937.276V133.427H936.663V132.814H933.597V131.587H937.276V132.2H937.889V132.814H938.503V138.946H937.276V138.333H936.663V138.946H933.597ZM940.956 134.04V138.946H939.729V132.2H940.956V132.814H941.569V132.2H944.635V132.814H945.249V133.427H945.862V138.946H944.635V134.04H944.022V133.427H941.569V134.04H940.956ZM951.994 133.427V130.361H953.221V138.946H951.994V137.72H951.381V138.333H950.768V138.946H948.928V138.333H948.315V137.72H947.702V137.107H947.088V134.04H947.702V133.427H948.315V132.814H948.928V132.2H950.768V132.814H951.381V133.427H951.994ZM948.928 137.107H949.541V137.72H950.155V137.107H950.768V136.493H951.381V134.653H950.768V134.04H950.155V133.427H949.541V134.04H948.928V134.653H948.315V136.493H948.928V137.107ZM966.713 134.04V133.427H966.099V132.814H963.646V133.427H963.033V134.04H963.646V134.653H966.099V134.04H966.713ZM963.033 138.333H962.42V137.107H963.646V137.72H966.099V137.107H966.713V135.267H966.099V135.88H963.033V135.267H962.42V134.653H961.807V132.814H962.42V132.2H963.033V131.587H966.713V132.2H967.326V132.814H967.939V137.72H967.326V138.333H966.713V138.946H963.033V138.333ZM970.392 135.267V138.946H969.166V132.2H970.392V133.427H971.006V132.814H971.619V132.2H974.072V132.814H974.685V133.427H975.298V134.653H974.072V134.04H973.459V133.427H972.232V134.04H971.619V134.653H971.006V135.267H970.392ZM977.751 134.04V134.653H981.431V134.04H980.818V133.427H978.365V134.04H977.751ZM982.657 137.107V137.72H982.044V138.333H981.431V138.946H977.751V138.333H977.138V137.72H976.525V133.427H977.138V132.814H977.751V132.2H981.431V132.814H982.044V133.427H982.657V135.267H982.044V135.88H977.751V137.107H978.365V137.72H980.818V137.107H982.657ZM985.724 137.72H988.177V137.107H988.79V135.88H988.177V135.267H985.724V135.88H985.111V137.107H985.724V137.72ZM985.111 138.946V138.333H984.497V137.72H983.884V135.267H984.497V134.653H985.111V134.04H988.177V134.653H988.79V133.427H988.177V132.814H985.111V131.587H988.79V132.2H989.403V132.814H990.017V138.946H988.79V138.333H988.177V138.946H985.111ZM995.536 137.72H996.149V138.946H994.923V138.333H994.309V137.72H993.696V133.427H992.47V132.2H993.696V130.361H994.923V132.2H996.149V133.427H994.923V137.107H995.536V137.72ZM932.37 144.2H933.597V147.88H934.21V148.493H934.823V149.107H936.05V148.493H936.663V147.88H937.276V144.2H938.503V148.493H937.889V149.107H937.276V149.72H936.663V150.333H936.05V150.946H934.823V150.333H934.21V149.72H933.597V149.107H932.983V148.493H932.37V144.2ZM943.409 142.974V144.2H942.182V142.974H943.409ZM944.022 149.72H944.635V150.946H943.409V150.333H942.796V149.72H942.182V146.653H940.956V145.427H943.409V149.107H944.022V149.72ZM950.155 149.72H950.768V149.107H951.381V148.493H951.994V146.653H951.381V146.04H950.768V145.427H950.155V146.04H949.541V146.653H948.928V148.493H949.541V149.107H950.155V149.72ZM948.315 149.72V150.946H947.088V142.361H948.315V145.427H948.928V144.814H949.541V144.2H951.381V144.814H951.994V145.427H952.608V146.04H953.221V149.107H952.608V149.72H951.994V150.333H951.381V150.946H949.541V150.333H948.928V149.72H948.315ZM955.674 146.04V146.653H959.354V146.04H958.74V145.427H956.287V146.04H955.674ZM960.58 149.107V149.72H959.967V150.333H959.354V150.946H955.674V150.333H955.061V149.72H954.447V145.427H955.061V144.814H955.674V144.2H959.354V144.814H959.967V145.427H960.58V147.267H959.967V147.88H955.674V149.107H956.287V149.72H958.74V149.107H960.58ZM962.42 149.72H961.807V148.493H963.033V149.107H963.646V149.72H966.099V148.493H964.873V147.88H963.646V147.267H962.42V146.653H961.807V145.427H962.42V144.814H963.033V144.2H966.713V144.814H967.326V145.427H967.939V146.653H966.713V146.04H966.099V145.427H963.646V146.653H965.486V147.267H966.713V147.88H967.326V148.493H967.939V149.72H967.326V150.333H966.713V150.946H963.033V150.333H962.42V149.72Z" fill="#1E1E1E"/>
<path d="M822.854 558H818.899L824.925 540.545H829.681L835.698 558H831.743L827.371 544.534H827.235L822.854 558ZM822.607 551.139H831.948V554.02H822.607V551.139ZM837.079 558V540.545H843.965C845.283 540.545 846.408 540.781 847.34 541.253C848.277 541.719 848.991 542.381 849.479 543.239C849.973 544.091 850.221 545.094 850.221 546.247C850.221 547.406 849.971 548.403 849.471 549.239C848.971 550.068 848.246 550.705 847.297 551.148C846.354 551.591 845.212 551.812 843.871 551.812H839.26V548.847H843.275C843.979 548.847 844.564 548.75 845.03 548.557C845.496 548.364 845.843 548.074 846.07 547.688C846.303 547.301 846.42 546.821 846.42 546.247C846.42 545.668 846.303 545.179 846.07 544.781C845.843 544.384 845.493 544.082 845.022 543.878C844.556 543.668 843.968 543.562 843.258 543.562H840.769V558H837.079ZM846.505 550.057L850.843 558H846.769L842.525 550.057H846.505ZM852.109 558V540.545H863.87V543.588H855.799V547.747H863.265V550.79H855.799V554.957H863.904V558H852.109ZM869.896 540.545H874.029L878.01 548.062H878.18L882.16 540.545H886.294L879.927 551.83V558H876.262V551.83L869.896 540.545ZM902.574 549.273C902.574 551.176 902.214 552.795 901.492 554.131C900.776 555.466 899.799 556.486 898.56 557.19C897.327 557.889 895.941 558.239 894.401 558.239C892.85 558.239 891.458 557.886 890.225 557.182C888.992 556.477 888.018 555.457 887.302 554.122C886.586 552.787 886.228 551.17 886.228 549.273C886.228 547.369 886.586 545.75 887.302 544.415C888.018 543.08 888.992 542.062 890.225 541.364C891.458 540.659 892.85 540.307 894.401 540.307C895.941 540.307 897.327 540.659 898.56 541.364C899.799 542.062 900.776 543.08 901.492 544.415C902.214 545.75 902.574 547.369 902.574 549.273ZM898.833 549.273C898.833 548.04 898.648 547 898.279 546.153C897.915 545.307 897.401 544.665 896.736 544.227C896.071 543.79 895.293 543.571 894.401 543.571C893.509 543.571 892.731 543.79 892.066 544.227C891.401 544.665 890.884 545.307 890.515 546.153C890.151 547 889.969 548.04 889.969 549.273C889.969 550.506 890.151 551.545 890.515 552.392C890.884 553.239 891.401 553.881 892.066 554.318C892.731 554.756 893.509 554.974 894.401 554.974C895.293 554.974 896.071 554.756 896.736 554.318C897.401 553.881 897.915 553.239 898.279 552.392C898.648 551.545 898.833 550.506 898.833 549.273ZM915.369 540.545H919.06V551.881C919.06 553.153 918.756 554.267 918.148 555.222C917.545 556.176 916.702 556.92 915.616 557.455C914.531 557.983 913.267 558.247 911.824 558.247C910.375 558.247 909.108 557.983 908.023 557.455C906.937 556.92 906.094 556.176 905.491 555.222C904.889 554.267 904.588 553.153 904.588 551.881V540.545H908.278V551.565C908.278 552.23 908.423 552.821 908.713 553.338C909.008 553.855 909.423 554.261 909.957 554.557C910.491 554.852 911.114 555 911.824 555C912.54 555 913.162 554.852 913.69 554.557C914.224 554.261 914.636 553.855 914.926 553.338C915.222 552.821 915.369 552.23 915.369 551.565V540.545ZM925.546 543.588V540.545H939.881V543.588H934.537V558H930.889V543.588H925.546ZM941.522 558V540.545H945.212V547.747H952.704V540.545H956.385V558H952.704V550.79H945.212V558H941.522ZM958.708 558V540.545H970.469V543.588H962.398V547.747H969.864V550.79H962.398V554.957H970.503V558H958.708ZM972.683 558V540.545H979.57C980.888 540.545 982.013 540.781 982.945 541.253C983.882 541.719 984.595 542.381 985.084 543.239C985.578 544.091 985.825 545.094 985.825 546.247C985.825 547.406 985.575 548.403 985.075 549.239C984.575 550.068 983.851 550.705 982.902 551.148C981.959 551.591 980.817 551.812 979.476 551.812H974.865V548.847H978.879C979.584 548.847 980.169 548.75 980.635 548.557C981.101 548.364 981.448 548.074 981.675 547.688C981.908 547.301 982.024 546.821 982.024 546.247C982.024 545.668 981.908 545.179 981.675 544.781C981.448 544.384 981.098 544.082 980.626 543.878C980.161 543.668 979.573 543.562 978.862 543.562H976.374V558H972.683ZM982.109 550.057L986.448 558H982.374L978.129 550.057H982.109ZM987.713 558V540.545H999.475V543.588H991.404V547.747H998.87V550.79H991.404V554.957H999.509V558H987.713ZM1004.74 552.767V552.477C1004.75 551.483 1004.83 550.69 1005 550.099C1005.18 549.509 1005.44 549.031 1005.77 548.668C1006.11 548.304 1006.51 547.974 1006.98 547.679C1007.33 547.452 1007.65 547.216 1007.93 546.972C1008.21 546.727 1008.43 546.457 1008.59 546.162C1008.76 545.861 1008.84 545.526 1008.84 545.156C1008.84 544.764 1008.75 544.42 1008.56 544.125C1008.37 543.83 1008.12 543.602 1007.8 543.443C1007.49 543.284 1007.14 543.205 1006.76 543.205C1006.39 543.205 1006.04 543.287 1005.71 543.452C1005.38 543.611 1005.11 543.849 1004.9 544.168C1004.69 544.48 1004.58 544.869 1004.56 545.335H1001.08C1001.11 544.199 1001.38 543.261 1001.9 542.523C1002.42 541.778 1003.1 541.224 1003.96 540.861C1004.81 540.491 1005.75 540.307 1006.78 540.307C1007.91 540.307 1008.91 540.494 1009.78 540.869C1010.65 541.239 1011.33 541.776 1011.82 542.48C1012.32 543.185 1012.56 544.034 1012.56 545.028C1012.56 545.693 1012.45 546.284 1012.23 546.801C1012.02 547.312 1011.71 547.767 1011.32 548.165C1010.93 548.557 1010.46 548.912 1009.93 549.23C1009.48 549.497 1009.11 549.776 1008.82 550.065C1008.54 550.355 1008.32 550.69 1008.18 551.071C1008.05 551.452 1007.98 551.92 1007.97 552.477V552.767H1004.74ZM1006.43 558.222C1005.86 558.222 1005.37 558.023 1004.97 557.625C1004.57 557.222 1004.38 556.739 1004.38 556.176C1004.38 555.619 1004.57 555.142 1004.97 554.744C1005.37 554.347 1005.86 554.148 1006.43 554.148C1006.97 554.148 1007.44 554.347 1007.85 554.744C1008.26 555.142 1008.47 555.619 1008.47 556.176C1008.47 556.551 1008.37 556.895 1008.17 557.207C1007.99 557.514 1007.74 557.761 1007.43 557.949C1007.13 558.131 1006.79 558.222 1006.43 558.222Z" fill="#282828"/>
<path d="M815.148 521.986L806.792 508.899C810.154 508.341 813.144 506.567 815.757 503.577C818.375 500.592 819.68 496.949 819.68 492.65C819.68 487.796 817.955 483.643 814.496 480.184C811.042 476.729 806.792 475 801.749 475C796.706 475 792.459 476.729 789.002 480.184C784.888 484.303 783.221 489.408 784.008 495.507C784.291 497.701 784.906 499.835 785.822 501.849C787.131 504.724 789.078 508.008 791.663 511.702L803.457 529.571C804.419 531.029 806.377 531.439 807.843 530.488L814.197 526.368C815.664 525.416 816.089 523.459 815.148 521.986Z" fill="#34A853"/>
<path d="M815.148 521.986L806.792 508.899C810.154 508.341 813.144 506.567 815.757 503.577C818.375 500.592 819.68 496.949 819.68 492.65C819.68 487.796 817.955 483.643 814.496 480.184C811.042 476.729 806.792 475 801.749 475C796.706 475 792.459 476.729 789.002 480.184C784.888 484.303 783.221 489.408 784.008 495.507C784.291 497.701 784.906 499.835 785.822 501.849C787.131 504.724 789.078 508.008 791.663 511.702L803.457 529.571C804.419 531.029 806.377 531.439 807.843 530.488L814.197 526.368C815.664 525.416 816.089 523.459 815.148 521.986Z" stroke="#1E1E1E" stroke-width="4.14816" stroke-miterlimit="10"/>
<path d="M775.328 521.986L766.972 508.899C770.334 508.341 773.324 506.567 775.937 503.577C778.554 500.592 779.859 496.949 779.859 492.65C779.859 487.796 778.135 483.643 774.676 480.184C771.222 476.729 766.972 475 761.929 475C756.886 475 752.639 476.729 749.181 480.184C745.068 484.303 743.401 489.408 744.188 495.507C744.471 497.701 745.085 499.835 746.002 501.849C747.31 504.724 749.258 508.008 751.843 511.702L763.637 529.571C764.599 531.029 766.557 531.439 768.023 530.488L774.377 526.368C775.844 525.416 776.269 523.459 775.328 521.986Z" fill="#34A853"/>
<path d="M775.328 521.986L766.972 508.899C770.334 508.341 773.324 506.567 775.937 503.577C778.554 500.592 779.859 496.949 779.859 492.65C779.859 487.796 778.135 483.643 774.676 480.184C771.222 476.729 766.972 475 761.929 475C756.886 475 752.639 476.729 749.181 480.184C745.068 484.303 743.401 489.408 744.188 495.507C744.471 497.701 745.085 499.835 746.002 501.849C747.31 504.724 749.258 508.008 751.843 511.702L763.637 529.571C764.599 531.029 766.557 531.439 768.023 530.488L774.377 526.368C775.844 525.416 776.269 523.459 775.328 521.986Z" stroke="#1E1E1E" stroke-width="4.14816" stroke-miterlimit="10"/>
<path d="M1026.53 574.014L1034.89 587.101C1031.53 587.659 1028.54 589.433 1025.92 592.423C1023.31 595.408 1022 599.051 1022 603.35C1022 608.204 1023.72 612.357 1027.18 615.816C1030.64 619.271 1034.89 621 1039.93 621C1044.97 621 1049.22 619.271 1052.68 615.816C1056.79 611.697 1058.46 606.592 1057.67 600.493C1057.39 598.299 1056.77 596.165 1055.86 594.151C1054.55 591.276 1052.6 587.992 1050.02 584.298L1038.22 566.429C1037.26 564.971 1035.3 564.561 1033.84 565.512L1027.48 569.632C1026.02 570.584 1025.59 572.541 1026.53 574.014Z" fill="#34A853"/>
<path d="M1026.53 574.014L1034.89 587.101C1031.53 587.659 1028.54 589.433 1025.92 592.423C1023.31 595.408 1022 599.051 1022 603.35C1022 608.204 1023.72 612.357 1027.18 615.816C1030.64 619.271 1034.89 621 1039.93 621C1044.97 621 1049.22 619.271 1052.68 615.816C1056.79 611.697 1058.46 606.592 1057.67 600.493C1057.39 598.299 1056.77 596.165 1055.86 594.151C1054.55 591.276 1052.6 587.992 1050.02 584.298L1038.22 566.429C1037.26 564.971 1035.3 564.561 1033.84 565.512L1027.48 569.632C1026.02 570.584 1025.59 572.541 1026.53 574.014Z" stroke="#1E1E1E" stroke-width="4.14816" stroke-miterlimit="10"/>
<path d="M1064.53 574.014L1072.89 587.101C1069.53 587.659 1066.54 589.433 1063.92 592.423C1061.31 595.408 1060 599.051 1060 603.35C1060 608.204 1061.72 612.357 1065.18 615.816C1068.64 619.271 1072.89 621 1077.93 621C1082.97 621 1087.22 619.271 1090.68 615.816C1094.79 611.697 1096.46 606.592 1095.67 600.493C1095.39 598.299 1094.77 596.165 1093.86 594.151C1092.55 591.276 1090.6 587.992 1088.02 584.298L1076.22 566.429C1075.26 564.971 1073.3 564.561 1071.84 565.512L1065.48 569.632C1064.02 570.584 1063.59 572.541 1064.53 574.014Z" fill="#34A853"/>
<path d="M1064.53 574.014L1072.89 587.101C1069.53 587.659 1066.54 589.433 1063.92 592.423C1061.31 595.408 1060 599.051 1060 603.35C1060 608.204 1061.72 612.357 1065.18 615.816C1068.64 619.271 1072.89 621 1077.93 621C1082.97 621 1087.22 619.271 1090.68 615.816C1094.79 611.697 1096.46 606.592 1095.67 600.493C1095.39 598.299 1094.77 596.165 1093.86 594.151C1092.55 591.276 1090.6 587.992 1088.02 584.298L1076.22 566.429C1075.26 564.971 1073.3 564.561 1071.84 565.512L1065.48 569.632C1064.02 570.584 1063.59 572.541 1064.53 574.014Z" stroke="#1E1E1E" stroke-width="4.14816" stroke-miterlimit="10"/>
</svg>
