<svg width="1440" height="744" viewBox="0 0 1440 744" fill="none" xmlns="http://www.w3.org/2000/svg">
<line x1="186.5" y1="2.18557e-08" x2="186.5" y2="763" stroke="#D1D1D1"/>
<line x1="279.5" y1="93" x2="279.5" y2="763" stroke="#D1D1D1"/>
<line x1="372.5" y1="93" x2="372.5" y2="763" stroke="#D1D1D1"/>
<line x1="465.5" y1="93" x2="465.5" y2="763" stroke="#D1D1D1"/>
<line x1="558.5" y1="93" x2="558.5" y2="763" stroke="#D1D1D1"/>
<line x1="651.5" y1="93" x2="651.5" y2="763" stroke="#D1D1D1"/>
<line x1="744.5" y1="93" x2="744.5" y2="763" stroke="#D1D1D1"/>
<line x1="837.5" y1="93" x2="837.5" y2="763" stroke="#D1D1D1"/>
<line x1="930.5" y1="93" x2="930.5" y2="763" stroke="#D1D1D1"/>
<line x1="1023.5" y1="93" x2="1023.5" y2="763" stroke="#D1D1D1"/>
<line x1="1116.5" y1="93" x2="1116.5" y2="558" stroke="#D1D1D1"/>
<line x1="1116.5" y1="651" x2="1116.5" y2="763" stroke="#D1D1D1"/>
<line x1="1209.5" y1="-2.18557e-08" x2="1209.5" y2="558" stroke="#D1D1D1"/>
<line x1="1209.5" y1="651" x2="1209.5" y2="763" stroke="#D1D1D1"/>
<line x1="1302.5" y1="93" x2="1302.5" y2="763" stroke="#D1D1D1"/>
<line x1="1440" y1="93.5" y2="93.5" stroke="#D1D1D1"/>
<line x1="1302" y1="186.5" x2="186" y2="186.5" stroke="#D1D1D1"/>
<line x1="1302" y1="279.5" x2="186" y2="279.5" stroke="#D1D1D1"/>
<line x1="1302" y1="372.5" x2="186" y2="372.5" stroke="#D1D1D1"/>
<line x1="1302" y1="465.5" x2="186" y2="465.5" stroke="#D1D1D1"/>
<line x1="1302" y1="558.5" x2="186" y2="558.5" stroke="#D1D1D1"/>
<line x1="1302" y1="651.5" x2="186" y2="651.5" stroke="#D1D1D1"/>
<rect width="101" height="101" transform="translate(1201 461)" fill="#FF7DAF"/>
<path d="M1213.5 476.361V477.587H1208.6V480.04H1212.28V481.267H1208.6V484.946H1207.37V476.361H1213.5ZM1219.02 477.587H1216.57V478.2H1215.96V483.107H1216.57V483.72H1219.02V483.107H1219.64V478.2H1219.02V477.587ZM1215.96 476.974V476.361H1219.64V476.974H1220.25V477.587H1220.86V483.72H1220.25V484.333H1219.64V484.946H1215.96V484.333H1215.34V483.72H1214.73V477.587H1215.34V476.974H1215.96ZM1222.09 484.946V476.361H1223.31V483.72H1228.22V484.946H1222.09ZM1229.45 484.946V476.361H1230.67V483.72H1235.58V484.946H1229.45ZM1241.1 477.587H1238.65V478.2H1238.03V483.107H1238.65V483.72H1241.1V483.107H1241.71V478.2H1241.1V477.587ZM1238.03 476.974V476.361H1241.71V476.974H1242.33V477.587H1242.94V483.72H1242.33V484.333H1241.71V484.946H1238.03V484.333H1237.42V483.72H1236.81V477.587H1237.42V476.974H1238.03ZM1244.17 476.361H1245.39V483.107H1246.62V480.04H1247.85V483.107H1249.07V476.361H1250.3V483.72H1249.69V484.333H1249.07V484.946H1247.85V484.333H1246.62V484.946H1245.39V484.333H1244.78V483.72H1244.17V476.361ZM1259.5 483.72H1258.88V476.361H1260.11V483.107H1260.72V483.72H1263.18V483.107H1263.79V476.361H1265.02V483.72H1264.4V484.333H1263.79V484.946H1260.11V484.333H1259.5V483.72ZM1271.76 477.587H1272.38V478.814H1271.15V478.2H1270.54V477.587H1268.08V478.2H1267.47V479.427H1268.08V480.04H1271.15V480.653H1271.76V481.267H1272.38V483.72H1271.76V484.333H1271.15V484.946H1267.47V484.333H1266.86V483.72H1266.24V482.493H1267.47V483.107H1268.08V483.72H1270.54V483.107H1271.15V481.88H1270.54V481.267H1267.47V480.653H1266.86V480.04H1266.24V477.587H1266.86V476.974H1267.47V476.361H1271.15V476.974H1271.76V477.587ZM1213.5 488.361V489.587H1208.6V492.04H1212.28V493.267H1208.6V496.946H1207.37V488.361H1213.5ZM1219.02 489.587H1216.57V490.2H1215.96V495.107H1216.57V495.72H1219.02V495.107H1219.64V490.2H1219.02V489.587ZM1215.96 488.974V488.361H1219.64V488.974H1220.25V489.587H1220.86V495.72H1220.25V496.333H1219.64V496.946H1215.96V496.333H1215.34V495.72H1214.73V489.587H1215.34V488.974H1215.96ZM1223.31 489.587V492.04H1226.38V491.427H1226.99V490.2H1226.38V489.587H1223.31ZM1223.93 493.267H1223.31V496.946H1222.09V488.361H1226.99V488.974H1227.61V489.587H1228.22V492.04H1227.61V492.653H1226.99V493.267H1225.77V493.88H1226.38V494.493H1226.99V495.107H1227.61V495.72H1228.22V496.946H1226.99V496.333H1226.38V495.72H1225.77V495.107H1225.15V494.493H1224.54V493.88H1223.93V493.267ZM1238.03 496.946H1236.81V488.361H1238.03V489.587H1238.65V490.2H1239.26V490.814H1240.49V490.2H1241.1V489.587H1241.71V488.361H1242.94V496.946H1241.71V491.427H1241.1V492.04H1240.49V493.267H1239.26V492.04H1238.65V491.427H1238.03V496.946ZM1248.46 489.587H1246.01V490.2H1245.39V495.107H1246.01V495.72H1248.46V495.107H1249.07V490.2H1248.46V489.587ZM1245.39 488.974V488.361H1249.07V488.974H1249.69V489.587H1250.3V495.72H1249.69V496.333H1249.07V496.946H1245.39V496.333H1244.78V495.72H1244.17V489.587H1244.78V488.974H1245.39ZM1252.75 489.587V492.04H1255.82V491.427H1256.43V490.2H1255.82V489.587H1252.75ZM1253.36 493.267H1252.75V496.946H1251.52V488.361H1256.43V488.974H1257.04V489.587H1257.66V492.04H1257.04V492.653H1256.43V493.267H1255.2V493.88H1255.82V494.493H1256.43V495.107H1257.04V495.72H1257.66V496.946H1256.43V496.333H1255.82V495.72H1255.2V495.107H1254.59V494.493H1253.98V493.88H1253.36V493.267ZM1265.02 488.361V489.587H1260.11V492.04H1263.79V493.267H1260.11V495.72H1265.02V496.946H1258.88V488.361H1265.02ZM1207.98 508.72H1207.37V501.361H1208.6V508.107H1209.21V508.72H1211.66V508.107H1212.28V501.361H1213.5V508.72H1212.89V509.333H1212.28V509.946H1208.6V509.333H1207.98V508.72ZM1215.96 502.587V505.04H1219.02V504.427H1219.64V503.2H1219.02V502.587H1215.96ZM1215.96 506.267V509.946H1214.73V501.361H1219.64V501.974H1220.25V502.587H1220.86V505.04H1220.25V505.653H1219.64V506.267H1215.96ZM1223.31 502.587V508.72H1226.38V508.107H1226.99V503.2H1226.38V502.587H1223.31ZM1222.09 509.946V501.361H1226.99V501.974H1227.61V502.587H1228.22V508.72H1227.61V509.333H1226.99V509.946H1222.09ZM1230.67 506.267H1234.35V504.427H1233.74V503.814H1233.13V503.2H1231.9V503.814H1231.29V504.427H1230.67V506.267ZM1230.67 509.946H1229.45V503.814H1230.06V503.2H1230.67V502.587H1231.29V501.974H1231.9V501.361H1233.13V501.974H1233.74V502.587H1234.35V503.2H1234.97V503.814H1235.58V509.946H1234.35V507.493H1230.67V509.946ZM1239.26 502.587H1236.81V501.361H1242.94V502.587H1240.49V509.946H1239.26V502.587ZM1250.3 501.361V502.587H1245.39V505.04H1249.07V506.267H1245.39V508.72H1250.3V509.946H1244.17V501.361H1250.3ZM1257.04 502.587H1257.66V503.814H1256.43V503.2H1255.82V502.587H1253.36V503.2H1252.75V504.427H1253.36V505.04H1256.43V505.653H1257.04V506.267H1257.66V508.72H1257.04V509.333H1256.43V509.946H1252.75V509.333H1252.14V508.72H1251.52V507.493H1252.75V508.107H1253.36V508.72H1255.82V508.107H1256.43V506.88H1255.82V506.267H1252.75V505.653H1252.14V505.04H1251.52V502.587H1252.14V501.974H1252.75V501.361H1256.43V501.974H1257.04V502.587ZM1210.44 516.427H1209.82V518.88H1210.44V516.427ZM1211.66 519.493V518.88H1212.28V518.267H1212.89V515.814H1212.28V515.2H1211.66V514.587H1209.21V515.2H1208.6V515.814H1207.98V519.493H1208.6V520.107H1209.21V520.72H1211.66V520.107H1212.89V520.72H1212.28V521.333H1208.6V520.72H1207.98V520.107H1207.37V515.2H1207.98V514.587H1208.6V513.974H1212.28V514.587H1212.89V515.2H1213.5V518.88H1212.89V519.493H1211.66ZM1211.66 518.88H1211.05V519.493H1209.21V518.88H1208.6V516.427H1209.21V515.814H1210.44V516.427H1211.05V515.814H1211.66V518.88ZM1220.25 514.587H1220.86V515.814H1219.64V515.2H1219.02V514.587H1216.57V515.2H1215.96V520.107H1216.57V520.72H1219.02V520.107H1219.64V518.267H1217.8V517.04H1220.86V520.72H1220.25V521.333H1219.64V521.946H1215.96V521.333H1215.34V520.72H1214.73V514.587H1215.34V513.974H1215.96V513.361H1219.64V513.974H1220.25V514.587ZM1223.31 514.587V520.72H1226.38V520.107H1226.99V515.2H1226.38V514.587H1223.31ZM1222.09 521.946V513.361H1226.99V513.974H1227.61V514.587H1228.22V520.72H1227.61V521.333H1226.99V521.946H1222.09ZM1234.97 514.587H1235.58V515.814H1234.35V515.2H1233.74V514.587H1231.29V515.2H1230.67V520.107H1231.29V520.72H1233.74V520.107H1234.35V518.267H1232.51V517.04H1235.58V520.72H1234.97V521.333H1234.35V521.946H1230.67V521.333H1230.06V520.72H1229.45V514.587H1230.06V513.974H1230.67V513.361H1234.35V513.974H1234.97V514.587ZM1236.81 521.946V513.361H1238.03V520.72H1242.94V521.946H1236.81ZM1245.39 518.267H1249.07V516.427H1248.46V515.814H1247.85V515.2H1246.62V515.814H1246.01V516.427H1245.39V518.267ZM1245.39 521.946H1244.17V515.814H1244.78V515.2H1245.39V514.587H1246.01V513.974H1246.62V513.361H1247.85V513.974H1248.46V514.587H1249.07V515.2H1249.69V515.814H1250.3V521.946H1249.07V519.493H1245.39V521.946ZM1257.04 514.587H1257.66V515.814H1256.43V515.2H1255.82V514.587H1253.36V515.2H1252.75V520.107H1253.36V520.72H1255.82V520.107H1256.43V518.267H1254.59V517.04H1257.66V520.72H1257.04V521.333H1256.43V521.946H1252.75V521.333H1252.14V520.72H1251.52V514.587H1252.14V513.974H1252.75V513.361H1256.43V513.974H1257.04V514.587ZM1263.18 514.587H1260.72V515.2H1260.11V520.107H1260.72V520.72H1263.18V520.107H1263.79V515.2H1263.18V514.587ZM1260.11 513.974V513.361H1263.79V513.974H1264.4V514.587H1265.02V520.72H1264.4V521.333H1263.79V521.946H1260.11V521.333H1259.5V520.72H1258.88V514.587H1259.5V513.974H1260.11ZM1271.76 514.587H1272.38V515.814H1271.15V515.2H1270.54V514.587H1268.08V515.2H1267.47V516.427H1268.08V517.04H1271.15V517.653H1271.76V518.267H1272.38V520.72H1271.76V521.333H1271.15V521.946H1267.47V521.333H1266.86V520.72H1266.24V519.493H1267.47V520.107H1268.08V520.72H1270.54V520.107H1271.15V518.88H1270.54V518.267H1267.47V517.653H1266.86V517.04H1266.24V514.587H1266.86V513.974H1267.47V513.361H1271.15V513.974H1271.76V514.587Z" fill="#1E1E1E"/>
<rect width="101" height="101" transform="translate(186 364)" fill="#039855"/>
<path d="M194.21 386.72H196.663V386.107H197.276V385.493H198.503V386.72H197.889V387.333H197.276V387.946H193.597V387.333H192.983V386.72H192.37V380.587H192.983V379.974H193.597V379.361H197.276V379.974H197.889V380.587H198.503V381.814H197.276V381.2H196.663V380.587H194.21V381.2H193.597V386.107H194.21V386.72ZM201.569 386.72H204.022V386.107H204.635V383.04H204.022V382.427H201.569V383.04H200.956V386.107H201.569V386.72ZM200.956 387.946V387.333H200.342V386.72H199.729V382.427H200.342V381.814H200.956V381.2H204.635V381.814H205.249V382.427H205.862V386.72H205.249V387.333H204.635V387.946H200.956ZM210.768 387.946H209.541V382.427H207.702V381.2H209.541V379.974H210.155V379.361H212.608V380.587H210.768V381.2H212.608V382.427H210.768V387.946ZM218.127 387.946H216.901V382.427H215.061V381.2H216.901V379.974H217.514V379.361H219.967V380.587H218.127V381.2H219.967V382.427H218.127V387.946ZM223.033 383.04V383.653H226.713V383.04H226.099V382.427H223.646V383.04H223.033ZM227.939 386.107V386.72H227.326V387.333H226.713V387.946H223.033V387.333H222.42V386.72H221.807V382.427H222.42V381.814H223.033V381.2H226.713V381.814H227.326V382.427H227.939V384.267H227.326V384.88H223.033V386.107H223.646V386.72H226.099V386.107H227.939ZM230.392 383.04V383.653H234.072V383.04H233.459V382.427H231.006V383.04H230.392ZM235.298 386.107V386.72H234.685V387.333H234.072V387.946H230.392V387.333H229.779V386.72H229.166V382.427H229.779V381.814H230.392V381.2H234.072V381.814H234.685V382.427H235.298V384.267H234.685V384.88H230.392V386.107H231.006V386.72H233.459V386.107H235.298ZM239.591 386.72V387.946H238.365V386.72H239.591ZM194.21 398.72H196.663V398.107H197.276V397.493H198.503V398.72H197.889V399.333H197.276V399.946H193.597V399.333H192.983V398.72H192.37V392.587H192.983V391.974H193.597V391.361H197.276V391.974H197.889V392.587H198.503V393.814H197.276V393.2H196.663V392.587H194.21V393.2H193.597V398.107H194.21V398.72ZM201.569 398.72H204.022V398.107H204.635V395.04H204.022V394.427H201.569V395.04H200.956V398.107H201.569V398.72ZM200.956 399.946V399.333H200.342V398.72H199.729V394.427H200.342V393.814H200.956V393.2H204.635V393.814H205.249V394.427H205.862V398.72H205.249V399.333H204.635V399.946H200.956ZM211.994 394.427V391.361H213.221V399.946H211.994V398.72H211.381V399.333H210.768V399.946H208.928V399.333H208.315V398.72H207.702V398.107H207.088V395.04H207.702V394.427H208.315V393.814H208.928V393.2H210.768V393.814H211.381V394.427H211.994ZM208.928 398.107H209.541V398.72H210.155V398.107H210.768V397.493H211.381V395.653H210.768V395.04H210.155V394.427H209.541V395.04H208.928V395.653H208.315V397.493H208.928V398.107ZM215.674 395.04V395.653H219.354V395.04H218.74V394.427H216.287V395.04H215.674ZM220.58 398.107V398.72H219.967V399.333H219.354V399.946H215.674V399.333H215.061V398.72H214.447V394.427H215.061V393.814H215.674V393.2H219.354V393.814H219.967V394.427H220.58V396.267H219.967V396.88H215.674V398.107H216.287V398.72H218.74V398.107H220.58ZM224.873 398.72V399.946H223.646V398.72H224.873ZM194.21 411.72H196.663V411.107H197.276V410.493H198.503V411.72H197.889V412.333H197.276V412.946H193.597V412.333H192.983V411.72H192.37V405.587H192.983V404.974H193.597V404.361H197.276V404.974H197.889V405.587H198.503V406.814H197.276V406.2H196.663V405.587H194.21V406.2H193.597V411.107H194.21V411.72ZM201.569 411.72H204.022V411.107H204.635V408.04H204.022V407.427H201.569V408.04H200.956V411.107H201.569V411.72ZM200.956 412.946V412.333H200.342V411.72H199.729V407.427H200.342V406.814H200.956V406.2H204.635V406.814H205.249V407.427H205.862V411.72H205.249V412.333H204.635V412.946H200.956ZM208.315 408.04V412.946H207.088V406.2H208.315V406.814H208.928V406.2H211.994V406.814H212.608V407.427H213.221V412.946H211.994V408.04H211.381V407.427H210.768V412.946H209.541V407.427H208.928V408.04H208.315ZM215.674 408.04V412.946H214.447V406.2H215.674V406.814H216.287V406.2H219.354V406.814H219.967V407.427H220.58V412.946H219.354V408.04H218.74V407.427H218.127V412.946H216.901V407.427H216.287V408.04H215.674ZM221.807 406.2H223.033V411.107H223.646V411.72H226.099V411.107H226.713V406.2H227.939V411.72H227.326V412.333H226.713V412.946H223.033V412.333H222.42V411.72H221.807V406.2ZM230.392 408.04V412.946H229.166V406.2H230.392V406.814H231.006V406.2H234.072V406.814H234.685V407.427H235.298V412.946H234.072V408.04H233.459V407.427H231.006V408.04H230.392ZM240.204 404.974V406.2H238.978V404.974H240.204ZM240.818 411.72H241.431V412.946H240.204V412.333H239.591V411.72H238.978V408.653H237.751V407.427H240.204V411.107H240.818V411.72ZM248.177 411.72H248.79V412.946H247.564V412.333H246.95V411.72H246.337V407.427H245.111V406.2H246.337V404.361H247.564V406.2H248.79V407.427H247.564V411.107H248.177V411.72ZM252.47 412.946V411.72H255.536V411.107H256.149V409.267H255.536V409.88H254.923V410.493H252.47V409.88H251.856V409.267H251.243V405.587H252.47V408.653H253.083V409.267H254.309V408.653H254.923V408.04H255.536V406.814H256.149V405.587H257.376V411.72H256.763V412.333H256.149V412.946H252.47ZM261.669 411.72V412.946H260.442V411.72H261.669ZM193.597 417.587V420.04H196.663V419.427H197.276V418.2H196.663V417.587H193.597ZM194.21 421.267H193.597V424.946H192.37V416.361H197.276V416.974H197.889V417.587H198.503V420.04H197.889V420.653H197.276V421.267H196.05V421.88H196.663V422.493H197.276V423.107H197.889V423.72H198.503V424.946H197.276V424.333H196.663V423.72H196.05V423.107H195.436V422.493H194.823V421.88H194.21V421.267ZM200.956 420.04V420.653H204.635V420.04H204.022V419.427H201.569V420.04H200.956ZM205.862 423.107V423.72H205.249V424.333H204.635V424.946H200.956V424.333H200.342V423.72H199.729V419.427H200.342V418.814H200.956V418.2H204.635V418.814H205.249V419.427H205.862V421.267H205.249V421.88H200.956V423.107H201.569V423.72H204.022V423.107H205.862ZM211.994 419.427H211.381V418.814H209.541V419.427H208.928V421.267H209.541V421.88H211.381V421.267H211.994V419.427ZM208.315 422.493V424.946H207.088V417.587H208.315V418.2H208.928V417.587H211.994V418.2H212.608V418.814H213.221V421.88H212.608V422.493H211.994V423.107H208.928V422.493H208.315ZM215.674 420.04V420.653H219.354V420.04H218.74V419.427H216.287V420.04H215.674ZM220.58 423.107V423.72H219.967V424.333H219.354V424.946H215.674V424.333H215.061V423.72H214.447V419.427H215.061V418.814H215.674V418.2H219.354V418.814H219.967V419.427H220.58V421.267H219.967V421.88H215.674V423.107H216.287V423.72H218.74V423.107H220.58ZM223.646 423.72H226.099V423.107H226.713V421.88H226.099V421.267H223.646V421.88H223.033V423.107H223.646V423.72ZM223.033 424.946V424.333H222.42V423.72H221.807V421.267H222.42V420.653H223.033V420.04H226.099V420.653H226.713V419.427H226.099V418.814H223.033V417.587H226.713V418.2H227.326V418.814H227.939V424.946H226.713V424.333H226.099V424.946H223.033ZM233.459 423.72H234.072V424.946H232.845V424.333H232.232V423.72H231.619V419.427H230.392V418.2H231.619V416.361H232.845V418.2H234.072V419.427H232.845V423.107H233.459V423.72ZM239.591 423.72V424.946H238.365V423.72H239.591Z" fill="#1E1E1E"/>
<rect width="101" height="101" transform="translate(465 182)" fill="#E89702"/>
<path d="M508.754 235.773V235.16H508.141V234.547H507.528V233.934H506.914V233.32H506.301V232.707H505.688V230.867H506.301V230.254H506.914V229.641H507.528V229.028H508.141V228.414H508.754V227.801H509.367V227.188H510.594V228.414H509.981V229.028H509.367V229.641H508.754V230.254H508.141V230.867H507.528V231.481H506.914V232.094H507.528V232.707H508.141V233.32H508.754V233.934H509.367V234.547H509.981V235.16H510.594V236.387H509.367V235.773H508.754ZM517.34 227.801H518.566V230.254H517.953V230.867H517.34V231.481H516.727V232.094H516.113V232.707H515.5V233.32H514.887V233.934H514.273V234.547H513.66V236.387H512.434V233.934H513.047V233.32H513.66V232.707H514.273V232.094H514.887V231.481H515.5V230.867H516.113V230.254H516.727V229.641H517.34V227.801ZM521.633 235.773V236.387H520.406V235.16H521.019V234.547H521.633V233.934H522.246V233.32H522.859V232.707H523.472V232.094H524.086V231.481H523.472V230.867H522.859V230.254H522.246V229.641H521.633V229.028H521.019V228.414H520.406V227.188H521.633V227.801H522.246V228.414H522.859V229.028H523.472V229.641H524.086V230.254H524.699V230.867H525.312V232.707H524.699V233.32H524.086V233.934H523.472V234.547H522.859V235.16H522.246V235.773H521.633Z" fill="#1E1E1E"/>
<rect width="101" height="101" transform="translate(930 321)" fill="#FA7319"/>
<path d="M973.754 374.773V374.16H973.141V373.547H972.528V372.934H971.914V372.32H971.301V371.707H970.688V369.867H971.301V369.254H971.914V368.641H972.528V368.028H973.141V367.414H973.754V366.801H974.367V366.188H975.594V367.414H974.981V368.028H974.367V368.641H973.754V369.254H973.141V369.867H972.528V370.481H971.914V371.094H972.528V371.707H973.141V372.32H973.754V372.934H974.367V373.547H974.981V374.16H975.594V375.387H974.367V374.773H973.754ZM982.34 366.801H983.566V369.254H982.953V369.867H982.34V370.481H981.727V371.094H981.113V371.707H980.5V372.32H979.887V372.934H979.273V373.547H978.66V375.387H977.434V372.934H978.047V372.32H978.66V371.707H979.273V371.094H979.887V370.481H980.5V369.867H981.113V369.254H981.727V368.641H982.34V366.801ZM986.633 374.773V375.387H985.406V374.16H986.019V373.547H986.633V372.934H987.246V372.32H987.859V371.707H988.472V371.094H989.086V370.481H988.472V369.867H987.859V369.254H987.246V368.641H986.633V368.028H986.019V367.414H985.406V366.188H986.633V366.801H987.246V367.414H987.859V368.028H988.472V368.641H989.086V369.254H989.699V369.867H990.312V371.707H989.699V372.32H989.086V372.934H988.472V373.547H987.859V374.16H987.246V374.773H986.633Z" fill="#1E1E1E"/>
<rect width="101" height="101" transform="translate(434 507)" fill="#FC7D73"/>
<path d="M442.823 520.587H440.37V519.361H446.503V520.587H444.05V527.946H442.823V520.587ZM448.956 523.04V523.653H452.635V523.04H452.022V522.427H449.569V523.04H448.956ZM453.862 526.107V526.72H453.249V527.333H452.635V527.946H448.956V527.333H448.342V526.72H447.729V522.427H448.342V521.814H448.956V521.2H452.635V521.814H453.249V522.427H453.862V524.267H453.249V524.88H448.956V526.107H449.569V526.72H452.022V526.107H453.862ZM459.994 526.107V525.493H461.221V526.72H460.608V527.333H459.994V527.946H456.315V527.333H455.702V526.72H455.088V522.427H455.702V521.814H456.315V521.2H459.994V521.814H460.608V522.427H461.221V523.653H459.994V523.04H459.381V522.427H456.928V523.04H456.315V526.107H456.928V526.72H459.381V526.107H459.994ZM463.674 524.267V527.946H462.447V519.361H463.674V522.427H464.287V521.814H464.901V521.2H466.74V521.814H467.354V522.427H467.967V523.04H468.58V527.946H467.354V523.653H466.74V523.04H466.127V522.427H465.514V523.04H464.901V523.653H464.287V524.267H463.674ZM473.486 519.974V521.2H472.26V519.974H473.486ZM474.099 526.72H474.713V527.946H473.486V527.333H472.873V526.72H472.26V523.653H471.033V522.427H473.486V526.107H474.099V526.72ZM478.392 523.04V523.653H482.072V523.04H481.459V522.427H479.006V523.04H478.392ZM483.298 526.107V526.72H482.685V527.333H482.072V527.946H478.392V527.333H477.779V526.72H477.166V522.427H477.779V521.814H478.392V521.2H482.072V521.814H482.685V522.427H483.298V524.267H482.685V524.88H478.392V526.107H479.006V526.72H481.459V526.107H483.298ZM485.138 526.72H484.525V525.493H485.751V526.107H486.365V526.72H488.818V525.493H487.591V524.88H486.365V524.267H485.138V523.653H484.525V522.427H485.138V521.814H485.751V521.2H489.431V521.814H490.044V522.427H490.657V523.653H489.431V523.04H488.818V522.427H486.365V523.653H488.204V524.267H489.431V524.88H490.044V525.493H490.657V526.72H490.044V527.333H489.431V527.946H485.751V527.333H485.138V526.72ZM441.597 537.267H445.276V535.427H444.663V534.814H444.05V534.2H442.823V534.814H442.21V535.427H441.597V537.267ZM441.597 540.946H440.37V534.814H440.983V534.2H441.597V533.587H442.21V532.974H442.823V532.361H444.05V532.974H444.663V533.587H445.276V534.2H445.889V534.814H446.503V540.946H445.276V538.493H441.597V540.946ZM448.342 539.72H447.729V538.493H448.956V539.107H449.569V539.72H452.022V538.493H450.796V537.88H449.569V537.267H448.342V536.653H447.729V535.427H448.342V534.814H448.956V534.2H452.635V534.814H453.249V535.427H453.862V536.653H452.635V536.04H452.022V535.427H449.569V536.653H451.409V537.267H452.635V537.88H453.249V538.493H453.862V539.72H453.249V540.333H452.635V540.946H448.956V540.333H448.342V539.72ZM455.702 539.72H455.088V538.493H456.315V539.107H456.928V539.72H459.381V538.493H458.155V537.88H456.928V537.267H455.702V536.653H455.088V535.427H455.702V534.814H456.315V534.2H459.994V534.814H460.608V535.427H461.221V536.653H459.994V536.04H459.381V535.427H456.928V536.653H458.768V537.267H459.994V537.88H460.608V538.493H461.221V539.72H460.608V540.333H459.994V540.946H456.315V540.333H455.702V539.72ZM463.674 536.04V536.653H467.354V536.04H466.74V535.427H464.287V536.04H463.674ZM468.58 539.107V539.72H467.967V540.333H467.354V540.946H463.674V540.333H463.061V539.72H462.447V535.427H463.061V534.814H463.674V534.2H467.354V534.814H467.967V535.427H468.58V537.267H467.967V537.88H463.674V539.107H464.287V539.72H466.74V539.107H468.58ZM471.033 536.04V540.946H469.807V534.2H471.033V534.814H471.646V534.2H474.713V534.814H475.326V535.427H475.939V540.946H474.713V536.04H474.099V535.427H473.486V540.946H472.26V535.427H471.646V536.04H471.033ZM480.232 539.72H480.845V539.107H481.459V538.493H482.072V536.653H481.459V536.04H480.845V535.427H480.232V536.04H479.619V536.653H479.006V538.493H479.619V539.107H480.232V539.72ZM478.392 539.72V540.946H477.166V532.361H478.392V535.427H479.006V534.814H479.619V534.2H481.459V534.814H482.072V535.427H482.685V536.04H483.298V539.107H482.685V539.72H482.072V540.333H481.459V540.946H479.619V540.333H479.006V539.72H478.392ZM488.204 532.361V540.946H486.978V532.361H488.204ZM493.111 536.04V536.653H496.79V536.04H496.177V535.427H493.724V536.04H493.111ZM498.017 539.107V539.72H497.403V540.333H496.79V540.946H493.111V540.333H492.497V539.72H491.884V535.427H492.497V534.814H493.111V534.2H496.79V534.814H497.403V535.427H498.017V537.267H497.403V537.88H493.111V539.107H493.724V539.72H496.177V539.107H498.017ZM502.309 539.72V540.946H501.083V539.72H502.309ZM502.309 538.493H501.083V532.361H502.309V538.493ZM509.669 539.72V540.946H508.442V539.72H509.669ZM509.669 538.493H508.442V532.361H509.669V538.493ZM517.028 539.72V540.946H515.801V539.72H517.028ZM517.028 538.493H515.801V532.361H517.028V538.493Z" fill="#1E1E1E"/>
<rect width="101" height="101" transform="translate(1112 135)" fill="#4285F4"/>
<path d="M1119.6 152.267H1123.28V150.427H1122.66V149.814H1122.05V149.2H1120.82V149.814H1120.21V150.427H1119.6V152.267ZM1119.6 155.946H1118.37V149.814H1118.98V149.2H1119.6V148.587H1120.21V147.974H1120.82V147.361H1122.05V147.974H1122.66V148.587H1123.28V149.2H1123.89V149.814H1124.5V155.946H1123.28V153.493H1119.6V155.946ZM1133.09 149.2H1134.31V154.107H1134.93V154.72H1135.54V151.653H1136.77V154.72H1137.38V154.107H1137.99V149.2H1139.22V154.72H1138.61V155.333H1137.99V155.946H1136.77V155.333H1135.54V155.946H1134.31V155.333H1133.7V154.72H1133.09V149.2ZM1141.67 151.04V151.653H1145.35V151.04H1144.74V150.427H1142.29V151.04H1141.67ZM1146.58 154.107V154.72H1145.97V155.333H1145.35V155.946H1141.67V155.333H1141.06V154.72H1140.45V150.427H1141.06V149.814H1141.67V149.2H1145.35V149.814H1145.97V150.427H1146.58V152.267H1145.97V152.88H1141.67V154.107H1142.29V154.72H1144.74V154.107H1146.58ZM1149.03 151.04V151.653H1152.71V151.04H1152.1V150.427H1149.65V151.04H1149.03ZM1153.94 154.107V154.72H1153.33V155.333H1152.71V155.946H1149.03V155.333H1148.42V154.72H1147.81V150.427H1148.42V149.814H1149.03V149.2H1152.71V149.814H1153.33V150.427H1153.94V152.267H1153.33V152.88H1149.03V154.107H1149.65V154.72H1152.1V154.107H1153.94ZM1156.39 154.72V155.946H1155.17V147.361H1156.39V152.88H1157.01V152.267H1157.62V151.653H1158.23V151.04H1158.85V150.427H1159.46V149.814H1160.07V149.2H1161.3V150.427H1160.69V151.04H1160.07V151.653H1159.46V152.267H1158.85V152.88H1159.46V153.493H1160.07V154.107H1160.69V154.72H1161.3V155.946H1160.07V155.333H1159.46V154.72H1158.85V154.107H1158.23V153.493H1157.62V154.107H1157.01V154.72H1156.39ZM1171.72 154.72H1174.18V154.107H1174.79V151.04H1174.18V150.427H1171.72V151.04H1171.11V154.107H1171.72V154.72ZM1171.11 155.946V155.333H1170.5V154.72H1169.88V150.427H1170.5V149.814H1171.11V149.2H1174.79V149.814H1175.4V150.427H1176.02V154.72H1175.4V155.333H1174.79V155.946H1171.11ZM1180.92 155.946H1179.7V150.427H1177.86V149.2H1179.7V147.974H1180.31V147.361H1182.76V148.587H1180.92V149.2H1182.76V150.427H1180.92V155.946ZM1122.05 160.361V168.946H1120.82V160.361H1122.05ZM1126.96 164.04V164.653H1130.64V164.04H1130.02V163.427H1127.57V164.04H1126.96ZM1131.86 167.107V167.72H1131.25V168.333H1130.64V168.946H1126.96V168.333H1126.34V167.72H1125.73V163.427H1126.34V162.814H1126.96V162.2H1130.64V162.814H1131.25V163.427H1131.86V165.267H1131.25V165.88H1126.96V167.107H1127.57V167.72H1130.02V167.107H1131.86ZM1134.93 167.72H1137.38V167.107H1137.99V165.88H1137.38V165.267H1134.93V165.88H1134.31V167.107H1134.93V167.72ZM1134.31 168.946V168.333H1133.7V167.72H1133.09V165.267H1133.7V164.653H1134.31V164.04H1137.38V164.653H1137.99V163.427H1137.38V162.814H1134.31V161.587H1137.99V162.2H1138.61V162.814H1139.22V168.946H1137.99V168.333H1137.38V168.946H1134.31ZM1141.67 165.267V168.946H1140.45V162.2H1141.67V163.427H1142.29V162.814H1142.9V162.2H1145.35V162.814H1145.97V163.427H1146.58V164.653H1145.35V164.04H1144.74V163.427H1143.51V164.04H1142.9V164.653H1142.29V165.267H1141.67ZM1149.03 164.04V168.946H1147.81V162.2H1149.03V162.814H1149.65V162.2H1152.71V162.814H1153.33V163.427H1153.94V168.946H1152.71V164.04H1152.1V163.427H1149.65V164.04H1149.03ZM1158.85 160.974V162.2H1157.62V160.974H1158.85ZM1159.46 167.72H1160.07V168.946H1158.85V168.333H1158.23V167.72H1157.62V164.653H1156.39V163.427H1158.85V167.107H1159.46V167.72ZM1163.75 164.04V168.946H1162.52V162.2H1163.75V162.814H1164.36V162.2H1167.43V162.814H1168.04V163.427H1168.66V168.946H1167.43V164.04H1166.82V163.427H1164.36V164.04H1163.75ZM1174.79 164.04V163.427H1174.18V162.814H1171.72V163.427H1171.11V164.04H1171.72V164.653H1174.18V164.04H1174.79ZM1171.11 168.333H1170.5V167.107H1171.72V167.72H1174.18V167.107H1174.79V165.267H1174.18V165.88H1171.11V165.267H1170.5V164.653H1169.88V162.814H1170.5V162.2H1171.11V161.587H1174.79V162.2H1175.4V162.814H1176.02V167.72H1175.4V168.333H1174.79V168.946H1171.11V168.333ZM1179.7 167.72V166.493H1180.92V167.72H1180.31V168.333H1179.7V168.946H1178.47V168.333H1179.08V167.72H1179.7ZM1119.6 176.04V180.946H1118.37V174.2H1119.6V174.814H1120.21V174.2H1123.28V174.814H1123.89V175.427H1124.5V180.946H1123.28V176.04H1122.66V175.427H1120.21V176.04H1119.6ZM1126.96 176.04V176.653H1130.64V176.04H1130.02V175.427H1127.57V176.04H1126.96ZM1131.86 179.107V179.72H1131.25V180.333H1130.64V180.946H1126.96V180.333H1126.34V179.72H1125.73V175.427H1126.34V174.814H1126.96V174.2H1130.64V174.814H1131.25V175.427H1131.86V177.267H1131.25V177.88H1126.96V179.107H1127.57V179.72H1130.02V179.107H1131.86ZM1137.38 179.72H1137.99V180.946H1136.77V180.333H1136.15V179.72H1135.54V175.427H1134.31V174.2H1135.54V172.361H1136.77V174.2H1137.99V175.427H1136.77V179.107H1137.38V179.72ZM1140.45 174.2H1141.67V179.107H1142.29V179.72H1142.9V176.653H1144.13V179.72H1144.74V179.107H1145.35V174.2H1146.58V179.72H1145.97V180.333H1145.35V180.946H1144.13V180.333H1142.9V180.946H1141.67V180.333H1141.06V179.72H1140.45V174.2ZM1149.65 179.72H1152.1V179.107H1152.71V176.04H1152.1V175.427H1149.65V176.04H1149.03V179.107H1149.65V179.72ZM1149.03 180.946V180.333H1148.42V179.72H1147.81V175.427H1148.42V174.814H1149.03V174.2H1152.71V174.814H1153.33V175.427H1153.94V179.72H1153.33V180.333H1152.71V180.946H1149.03ZM1156.39 177.267V180.946H1155.17V174.2H1156.39V175.427H1157.01V174.814H1157.62V174.2H1160.07V174.814H1160.69V175.427H1161.3V176.653H1160.07V176.04H1159.46V175.427H1158.23V176.04H1157.62V176.653H1157.01V177.267H1156.39ZM1163.75 179.72V180.946H1162.52V172.361H1163.75V177.88H1164.36V177.267H1164.98V176.653H1165.59V176.04H1166.2V175.427H1166.82V174.814H1167.43V174.2H1168.66V175.427H1168.04V176.04H1167.43V176.653H1166.82V177.267H1166.2V177.88H1166.82V178.493H1167.43V179.107H1168.04V179.72H1168.66V180.946H1167.43V180.333H1166.82V179.72H1166.2V179.107H1165.59V178.493H1164.98V179.107H1164.36V179.72H1163.75ZM1173.56 172.974V174.2H1172.34V172.974H1173.56ZM1174.18 179.72H1174.79V180.946H1173.56V180.333H1172.95V179.72H1172.34V176.653H1171.11V175.427H1173.56V179.107H1174.18V179.72ZM1178.47 176.04V180.946H1177.24V174.2H1178.47V174.814H1179.08V174.2H1182.15V174.814H1182.76V175.427H1183.38V180.946H1182.15V176.04H1181.54V175.427H1179.08V176.04H1178.47ZM1189.51 176.04V175.427H1188.9V174.814H1186.44V175.427H1185.83V176.04H1186.44V176.653H1188.9V176.04H1189.51ZM1185.83 180.333H1185.22V179.107H1186.44V179.72H1188.9V179.107H1189.51V177.267H1188.9V177.88H1185.83V177.267H1185.22V176.653H1184.6V174.814H1185.22V174.2H1185.83V173.587H1189.51V174.2H1190.12V174.814H1190.73V179.72H1190.12V180.333H1189.51V180.946H1185.83V180.333ZM1120.21 192.72H1122.66V192.107H1123.28V190.88H1122.66V190.267H1120.21V190.88H1119.6V192.107H1120.21V192.72ZM1119.6 193.946V193.333H1118.98V192.72H1118.37V190.267H1118.98V189.653H1119.6V189.04H1122.66V189.653H1123.28V188.427H1122.66V187.814H1119.6V186.587H1123.28V187.2H1123.89V187.814H1124.5V193.946H1123.28V193.333H1122.66V193.946H1119.6ZM1126.96 189.04V193.946H1125.73V187.2H1126.96V187.814H1127.57V187.2H1130.64V187.814H1131.25V188.427H1131.86V193.946H1130.64V189.04H1130.02V188.427H1127.57V189.04H1126.96ZM1137.99 188.427V185.361H1139.22V193.946H1137.99V192.72H1137.38V193.333H1136.77V193.946H1134.93V193.333H1134.31V192.72H1133.7V192.107H1133.09V189.04H1133.7V188.427H1134.31V187.814H1134.93V187.2H1136.77V187.814H1137.38V188.427H1137.99ZM1134.93 192.107H1135.54V192.72H1136.15V192.107H1136.77V191.493H1137.38V189.653H1136.77V189.04H1136.15V188.427H1135.54V189.04H1134.93V189.653H1134.31V191.493H1134.93V192.107ZM1152.71 189.04V188.427H1152.1V187.814H1149.65V188.427H1149.03V189.04H1149.65V189.653H1152.1V189.04H1152.71ZM1149.03 193.333H1148.42V192.107H1149.65V192.72H1152.1V192.107H1152.71V190.267H1152.1V190.88H1149.03V190.267H1148.42V189.653H1147.81V187.814H1148.42V187.2H1149.03V186.587H1152.71V187.2H1153.33V187.814H1153.94V192.72H1153.33V193.333H1152.71V193.946H1149.03V193.333ZM1156.39 190.267V193.946H1155.17V187.2H1156.39V188.427H1157.01V187.814H1157.62V187.2H1160.07V187.814H1160.69V188.427H1161.3V189.653H1160.07V189.04H1159.46V188.427H1158.23V189.04H1157.62V189.653H1157.01V190.267H1156.39ZM1163.75 189.04V189.653H1167.43V189.04H1166.82V188.427H1164.36V189.04H1163.75ZM1168.66 192.107V192.72H1168.04V193.333H1167.43V193.946H1163.75V193.333H1163.14V192.72H1162.52V188.427H1163.14V187.814H1163.75V187.2H1167.43V187.814H1168.04V188.427H1168.66V190.267H1168.04V190.88H1163.75V192.107H1164.36V192.72H1166.82V192.107H1168.66ZM1171.72 192.72H1174.18V192.107H1174.79V190.88H1174.18V190.267H1171.72V190.88H1171.11V192.107H1171.72V192.72ZM1171.11 193.946V193.333H1170.5V192.72H1169.88V190.267H1170.5V189.653H1171.11V189.04H1174.18V189.653H1174.79V188.427H1174.18V187.814H1171.11V186.587H1174.79V187.2H1175.4V187.814H1176.02V193.946H1174.79V193.333H1174.18V193.946H1171.11ZM1181.54 192.72H1182.15V193.946H1180.92V193.333H1180.31V192.72H1179.7V188.427H1178.47V187.2H1179.7V185.361H1180.92V187.2H1182.15V188.427H1180.92V192.107H1181.54V192.72ZM1118.37 199.2H1119.6V202.88H1120.21V203.493H1120.82V204.107H1122.05V203.493H1122.66V202.88H1123.28V199.2H1124.5V203.493H1123.89V204.107H1123.28V204.72H1122.66V205.333H1122.05V205.946H1120.82V205.333H1120.21V204.72H1119.6V204.107H1118.98V203.493H1118.37V199.2ZM1129.41 197.974V199.2H1128.18V197.974H1129.41ZM1130.02 204.72H1130.64V205.946H1129.41V205.333H1128.8V204.72H1128.18V201.653H1126.96V200.427H1129.41V204.107H1130.02V204.72ZM1136.15 204.72H1136.77V204.107H1137.38V203.493H1137.99V201.653H1137.38V201.04H1136.77V200.427H1136.15V201.04H1135.54V201.653H1134.93V203.493H1135.54V204.107H1136.15V204.72ZM1134.31 204.72V205.946H1133.09V197.361H1134.31V200.427H1134.93V199.814H1135.54V199.2H1137.38V199.814H1137.99V200.427H1138.61V201.04H1139.22V204.107H1138.61V204.72H1137.99V205.333H1137.38V205.946H1135.54V205.333H1134.93V204.72H1134.31ZM1141.67 201.04V201.653H1145.35V201.04H1144.74V200.427H1142.29V201.04H1141.67ZM1146.58 204.107V204.72H1145.97V205.333H1145.35V205.946H1141.67V205.333H1141.06V204.72H1140.45V200.427H1141.06V199.814H1141.67V199.2H1145.35V199.814H1145.97V200.427H1146.58V202.267H1145.97V202.88H1141.67V204.107H1142.29V204.72H1144.74V204.107H1146.58ZM1148.42 204.72H1147.81V203.493H1149.03V204.107H1149.65V204.72H1152.1V203.493H1150.87V202.88H1149.65V202.267H1148.42V201.653H1147.81V200.427H1148.42V199.814H1149.03V199.2H1152.71V199.814H1153.33V200.427H1153.94V201.653H1152.71V201.04H1152.1V200.427H1149.65V201.653H1151.49V202.267H1152.71V202.88H1153.33V203.493H1153.94V204.72H1153.33V205.333H1152.71V205.946H1149.03V205.333H1148.42V204.72Z" fill="#1E1E1E"/>
</svg>
