<svg width="1117" height="670" viewBox="0 0 1117 670" fill="none" xmlns="http://www.w3.org/2000/svg">
<line x1="0.5" y1="2.48894e-08" x2="0.499967" y2="670" stroke="#D1D1D1"/>
<line x1="93.5" y1="1.91918e-08" x2="93.5" y2="670" stroke="#D1D1D1"/>
<line x1="186.5" y1="1.91918e-08" x2="186.5" y2="670" stroke="#D1D1D1"/>
<line x1="279.5" y1="1.91918e-08" x2="279.5" y2="670" stroke="#D1D1D1"/>
<line x1="372.5" y1="1.91918e-08" x2="372.5" y2="670" stroke="#D1D1D1"/>
<line x1="465.5" y1="1.91918e-08" x2="465.5" y2="670" stroke="#D1D1D1"/>
<line x1="558.5" y1="1.91918e-08" x2="558.5" y2="670" stroke="#D1D1D1"/>
<line x1="651.5" y1="1.91918e-08" x2="651.5" y2="670" stroke="#D1D1D1"/>
<line x1="744.5" y1="1.91918e-08" x2="744.5" y2="670" stroke="#D1D1D1"/>
<line x1="837.5" y1="1.91918e-08" x2="837.5" y2="670" stroke="#D1D1D1"/>
<line x1="930.5" y1="-2.18557e-08" x2="930.5" y2="465" stroke="#D1D1D1"/>
<line x1="930.5" y1="558" x2="930.5" y2="670" stroke="#D1D1D1"/>
<line x1="1025.5" y1="0.00215049" x2="1023.5" y2="465.002" stroke="#D1D1D1"/>
<line x1="1023.5" y1="558" x2="1023.5" y2="670" stroke="#D1D1D1"/>
<line x1="1116.5" y1="-2.18557e-08" x2="1116.5" y2="670" stroke="#D1D1D1"/>
<line x1="1116" y1="0.5" y2="0.5" stroke="#D1D1D1"/>
<line x1="1116" y1="93.5" y2="93.5" stroke="#D1D1D1"/>
<line x1="1116" y1="186.5" y2="186.5" stroke="#D1D1D1"/>
<line x1="1116" y1="279.5" y2="279.5" stroke="#D1D1D1"/>
<line x1="1116" y1="372.5" y2="372.5" stroke="#D1D1D1"/>
<line x1="1116" y1="465.5" y2="465.5" stroke="#D1D1D1"/>
<line x1="1116" y1="558.5" y2="558.5" stroke="#D1D1D1"/>
<line x1="1116" y1="651.5" y2="651.5" stroke="#D1D1D1"/>
<rect width="101" height="101" transform="translate(1015 368)" fill="#FF7DAF"/>
<path d="M1027.5 383.361V384.587H1022.6V387.04H1026.28V388.267H1022.6V391.946H1021.37V383.361H1027.5ZM1033.02 384.587H1030.57V385.2H1029.96V390.107H1030.57V390.72H1033.02V390.107H1033.64V385.2H1033.02V384.587ZM1029.96 383.974V383.361H1033.64V383.974H1034.25V384.587H1034.86V390.72H1034.25V391.333H1033.64V391.946H1029.96V391.333H1029.34V390.72H1028.73V384.587H1029.34V383.974H1029.96ZM1036.09 391.946V383.361H1037.31V390.72H1042.22V391.946H1036.09ZM1043.45 391.946V383.361H1044.67V390.72H1049.58V391.946H1043.45ZM1055.1 384.587H1052.65V385.2H1052.03V390.107H1052.65V390.72H1055.1V390.107H1055.71V385.2H1055.1V384.587ZM1052.03 383.974V383.361H1055.71V383.974H1056.33V384.587H1056.94V390.72H1056.33V391.333H1055.71V391.946H1052.03V391.333H1051.42V390.72H1050.81V384.587H1051.42V383.974H1052.03ZM1058.17 383.361H1059.39V390.107H1060.62V387.04H1061.85V390.107H1063.07V383.361H1064.3V390.72H1063.69V391.333H1063.07V391.946H1061.85V391.333H1060.62V391.946H1059.39V391.333H1058.78V390.72H1058.17V383.361ZM1073.5 390.72H1072.88V383.361H1074.11V390.107H1074.72V390.72H1077.18V390.107H1077.79V383.361H1079.02V390.72H1078.4V391.333H1077.79V391.946H1074.11V391.333H1073.5V390.72ZM1085.76 384.587H1086.38V385.814H1085.15V385.2H1084.54V384.587H1082.08V385.2H1081.47V386.427H1082.08V387.04H1085.15V387.653H1085.76V388.267H1086.38V390.72H1085.76V391.333H1085.15V391.946H1081.47V391.333H1080.86V390.72H1080.24V389.493H1081.47V390.107H1082.08V390.72H1084.54V390.107H1085.15V388.88H1084.54V388.267H1081.47V387.653H1080.86V387.04H1080.24V384.587H1080.86V383.974H1081.47V383.361H1085.15V383.974H1085.76V384.587ZM1027.5 395.361V396.587H1022.6V399.04H1026.28V400.267H1022.6V403.946H1021.37V395.361H1027.5ZM1033.02 396.587H1030.57V397.2H1029.96V402.107H1030.57V402.72H1033.02V402.107H1033.64V397.2H1033.02V396.587ZM1029.96 395.974V395.361H1033.64V395.974H1034.25V396.587H1034.86V402.72H1034.25V403.333H1033.64V403.946H1029.96V403.333H1029.34V402.72H1028.73V396.587H1029.34V395.974H1029.96ZM1037.31 396.587V399.04H1040.38V398.427H1040.99V397.2H1040.38V396.587H1037.31ZM1037.93 400.267H1037.31V403.946H1036.09V395.361H1040.99V395.974H1041.61V396.587H1042.22V399.04H1041.61V399.653H1040.99V400.267H1039.77V400.88H1040.38V401.493H1040.99V402.107H1041.61V402.72H1042.22V403.946H1040.99V403.333H1040.38V402.72H1039.77V402.107H1039.15V401.493H1038.54V400.88H1037.93V400.267ZM1052.03 403.946H1050.81V395.361H1052.03V396.587H1052.65V397.2H1053.26V397.814H1054.49V397.2H1055.1V396.587H1055.71V395.361H1056.94V403.946H1055.71V398.427H1055.1V399.04H1054.49V400.267H1053.26V399.04H1052.65V398.427H1052.03V403.946ZM1062.46 396.587H1060.01V397.2H1059.39V402.107H1060.01V402.72H1062.46V402.107H1063.07V397.2H1062.46V396.587ZM1059.39 395.974V395.361H1063.07V395.974H1063.69V396.587H1064.3V402.72H1063.69V403.333H1063.07V403.946H1059.39V403.333H1058.78V402.72H1058.17V396.587H1058.78V395.974H1059.39ZM1066.75 396.587V399.04H1069.82V398.427H1070.43V397.2H1069.82V396.587H1066.75ZM1067.36 400.267H1066.75V403.946H1065.52V395.361H1070.43V395.974H1071.04V396.587H1071.66V399.04H1071.04V399.653H1070.43V400.267H1069.2V400.88H1069.82V401.493H1070.43V402.107H1071.04V402.72H1071.66V403.946H1070.43V403.333H1069.82V402.72H1069.2V402.107H1068.59V401.493H1067.98V400.88H1067.36V400.267ZM1079.02 395.361V396.587H1074.11V399.04H1077.79V400.267H1074.11V402.72H1079.02V403.946H1072.88V395.361H1079.02ZM1021.98 415.72H1021.37V408.361H1022.6V415.107H1023.21V415.72H1025.66V415.107H1026.28V408.361H1027.5V415.72H1026.89V416.333H1026.28V416.946H1022.6V416.333H1021.98V415.72ZM1029.96 409.587V412.04H1033.02V411.427H1033.64V410.2H1033.02V409.587H1029.96ZM1029.96 413.267V416.946H1028.73V408.361H1033.64V408.974H1034.25V409.587H1034.86V412.04H1034.25V412.653H1033.64V413.267H1029.96ZM1037.31 409.587V415.72H1040.38V415.107H1040.99V410.2H1040.38V409.587H1037.31ZM1036.09 416.946V408.361H1040.99V408.974H1041.61V409.587H1042.22V415.72H1041.61V416.333H1040.99V416.946H1036.09ZM1044.67 413.267H1048.35V411.427H1047.74V410.814H1047.13V410.2H1045.9V410.814H1045.29V411.427H1044.67V413.267ZM1044.67 416.946H1043.45V410.814H1044.06V410.2H1044.67V409.587H1045.29V408.974H1045.9V408.361H1047.13V408.974H1047.74V409.587H1048.35V410.2H1048.97V410.814H1049.58V416.946H1048.35V414.493H1044.67V416.946ZM1053.26 409.587H1050.81V408.361H1056.94V409.587H1054.49V416.946H1053.26V409.587ZM1064.3 408.361V409.587H1059.39V412.04H1063.07V413.267H1059.39V415.72H1064.3V416.946H1058.17V408.361H1064.3ZM1071.04 409.587H1071.66V410.814H1070.43V410.2H1069.82V409.587H1067.36V410.2H1066.75V411.427H1067.36V412.04H1070.43V412.653H1071.04V413.267H1071.66V415.72H1071.04V416.333H1070.43V416.946H1066.75V416.333H1066.14V415.72H1065.52V414.493H1066.75V415.107H1067.36V415.72H1069.82V415.107H1070.43V413.88H1069.82V413.267H1066.75V412.653H1066.14V412.04H1065.52V409.587H1066.14V408.974H1066.75V408.361H1070.43V408.974H1071.04V409.587ZM1024.44 423.427H1023.82V425.88H1024.44V423.427ZM1025.66 426.493V425.88H1026.28V425.267H1026.89V422.814H1026.28V422.2H1025.66V421.587H1023.21V422.2H1022.6V422.814H1021.98V426.493H1022.6V427.107H1023.21V427.72H1025.66V427.107H1026.89V427.72H1026.28V428.333H1022.6V427.72H1021.98V427.107H1021.37V422.2H1021.98V421.587H1022.6V420.974H1026.28V421.587H1026.89V422.2H1027.5V425.88H1026.89V426.493H1025.66ZM1025.66 425.88H1025.05V426.493H1023.21V425.88H1022.6V423.427H1023.21V422.814H1024.44V423.427H1025.05V422.814H1025.66V425.88ZM1034.25 421.587H1034.86V422.814H1033.64V422.2H1033.02V421.587H1030.57V422.2H1029.96V427.107H1030.57V427.72H1033.02V427.107H1033.64V425.267H1031.8V424.04H1034.86V427.72H1034.25V428.333H1033.64V428.946H1029.96V428.333H1029.34V427.72H1028.73V421.587H1029.34V420.974H1029.96V420.361H1033.64V420.974H1034.25V421.587ZM1037.31 421.587V427.72H1040.38V427.107H1040.99V422.2H1040.38V421.587H1037.31ZM1036.09 428.946V420.361H1040.99V420.974H1041.61V421.587H1042.22V427.72H1041.61V428.333H1040.99V428.946H1036.09ZM1048.97 421.587H1049.58V422.814H1048.35V422.2H1047.74V421.587H1045.29V422.2H1044.67V427.107H1045.29V427.72H1047.74V427.107H1048.35V425.267H1046.51V424.04H1049.58V427.72H1048.97V428.333H1048.35V428.946H1044.67V428.333H1044.06V427.72H1043.45V421.587H1044.06V420.974H1044.67V420.361H1048.35V420.974H1048.97V421.587ZM1050.81 428.946V420.361H1052.03V427.72H1056.94V428.946H1050.81ZM1059.39 425.267H1063.07V423.427H1062.46V422.814H1061.85V422.2H1060.62V422.814H1060.01V423.427H1059.39V425.267ZM1059.39 428.946H1058.17V422.814H1058.78V422.2H1059.39V421.587H1060.01V420.974H1060.62V420.361H1061.85V420.974H1062.46V421.587H1063.07V422.2H1063.69V422.814H1064.3V428.946H1063.07V426.493H1059.39V428.946ZM1071.04 421.587H1071.66V422.814H1070.43V422.2H1069.82V421.587H1067.36V422.2H1066.75V427.107H1067.36V427.72H1069.82V427.107H1070.43V425.267H1068.59V424.04H1071.66V427.72H1071.04V428.333H1070.43V428.946H1066.75V428.333H1066.14V427.72H1065.52V421.587H1066.14V420.974H1066.75V420.361H1070.43V420.974H1071.04V421.587ZM1077.18 421.587H1074.72V422.2H1074.11V427.107H1074.72V427.72H1077.18V427.107H1077.79V422.2H1077.18V421.587ZM1074.11 420.974V420.361H1077.79V420.974H1078.4V421.587H1079.02V427.72H1078.4V428.333H1077.79V428.946H1074.11V428.333H1073.5V427.72H1072.88V421.587H1073.5V420.974H1074.11ZM1085.76 421.587H1086.38V422.814H1085.15V422.2H1084.54V421.587H1082.08V422.2H1081.47V423.427H1082.08V424.04H1085.15V424.653H1085.76V425.267H1086.38V427.72H1085.76V428.333H1085.15V428.946H1081.47V428.333H1080.86V427.72H1080.24V426.493H1081.47V427.107H1082.08V427.72H1084.54V427.107H1085.15V425.88H1084.54V425.267H1081.47V424.653H1080.86V424.04H1080.24V421.587H1080.86V420.974H1081.47V420.361H1085.15V420.974H1085.76V421.587Z" fill="#1E1E1E"/>
<rect width="101" height="101" transform="translate(0 271)" fill="#039855"/>
<path d="M8.2089 293.72H10.6619V293.107H11.2752V292.493H12.5017V293.72H11.8885V294.333H11.2752V294.946H7.59564V294.333H6.98238V293.72H6.36912V287.587H6.98238V286.974H7.59564V286.361H11.2752V286.974H11.8885V287.587H12.5017V288.814H11.2752V288.2H10.6619V287.587H8.2089V288.2H7.59564V293.107H8.2089V293.72ZM15.568 293.72H18.0211V293.107H18.6343V290.04H18.0211V289.427H15.568V290.04H14.9548V293.107H15.568V293.72ZM14.9548 294.946V294.333H14.3415V293.72H13.7283V289.427H14.3415V288.814H14.9548V288.2H18.6343V288.814H19.2476V289.427H19.8609V293.72H19.2476V294.333H18.6343V294.946H14.9548ZM24.767 294.946H23.5404V289.427H21.7006V288.2H23.5404V286.974H24.1537V286.361H26.6067V287.587H24.767V288.2H26.6067V289.427H24.767V294.946ZM32.1261 294.946H30.8996V289.427H29.0598V288.2H30.8996V286.974H31.5128V286.361H33.9659V287.587H32.1261V288.2H33.9659V289.427H32.1261V294.946ZM37.0322 290.04V290.653H40.7117V290.04H40.0985V289.427H37.6454V290.04H37.0322ZM41.9383 293.107V293.72H41.325V294.333H40.7117V294.946H37.0322V294.333H36.4189V293.72H35.8056V289.427H36.4189V288.814H37.0322V288.2H40.7117V288.814H41.325V289.427H41.9383V291.267H41.325V291.88H37.0322V293.107H37.6454V293.72H40.0985V293.107H41.9383ZM44.3913 290.04V290.653H48.0709V290.04H47.4576V289.427H45.0046V290.04H44.3913ZM49.2974 293.107V293.72H48.6841V294.333H48.0709V294.946H44.3913V294.333H43.778V293.72H43.1648V289.427H43.778V288.814H44.3913V288.2H48.0709V288.814H48.6841V289.427H49.2974V291.267H48.6841V291.88H44.3913V293.107H45.0046V293.72H47.4576V293.107H49.2974ZM53.5902 293.72V294.946H52.3637V293.72H53.5902ZM8.2089 305.72H10.6619V305.107H11.2752V304.493H12.5017V305.72H11.8885V306.333H11.2752V306.946H7.59564V306.333H6.98238V305.72H6.36912V299.587H6.98238V298.974H7.59564V298.361H11.2752V298.974H11.8885V299.587H12.5017V300.814H11.2752V300.2H10.6619V299.587H8.2089V300.2H7.59564V305.107H8.2089V305.72ZM15.568 305.72H18.0211V305.107H18.6343V302.04H18.0211V301.427H15.568V302.04H14.9548V305.107H15.568V305.72ZM14.9548 306.946V306.333H14.3415V305.72H13.7283V301.427H14.3415V300.814H14.9548V300.2H18.6343V300.814H19.2476V301.427H19.8609V305.72H19.2476V306.333H18.6343V306.946H14.9548ZM25.9935 301.427V298.361H27.22V306.946H25.9935V305.72H25.3802V306.333H24.767V306.946H22.9272V306.333H22.3139V305.72H21.7006V305.107H21.0874V302.04H21.7006V301.427H22.3139V300.814H22.9272V300.2H24.767V300.814H25.3802V301.427H25.9935ZM22.9272 305.107H23.5404V305.72H24.1537V305.107H24.767V304.493H25.3802V302.653H24.767V302.04H24.1537V301.427H23.5404V302.04H22.9272V302.653H22.3139V304.493H22.9272V305.107ZM29.673 302.04V302.653H33.3526V302.04H32.7393V301.427H30.2863V302.04H29.673ZM34.5791 305.107V305.72H33.9659V306.333H33.3526V306.946H29.673V306.333H29.0598V305.72H28.4465V301.427H29.0598V300.814H29.673V300.2H33.3526V300.814H33.9659V301.427H34.5791V303.267H33.9659V303.88H29.673V305.107H30.2863V305.72H32.7393V305.107H34.5791ZM38.872 305.72V306.946H37.6454V305.72H38.872ZM8.2089 318.72H10.6619V318.107H11.2752V317.493H12.5017V318.72H11.8885V319.333H11.2752V319.946H7.59564V319.333H6.98238V318.72H6.36912V312.587H6.98238V311.974H7.59564V311.361H11.2752V311.974H11.8885V312.587H12.5017V313.814H11.2752V313.2H10.6619V312.587H8.2089V313.2H7.59564V318.107H8.2089V318.72ZM15.568 318.72H18.0211V318.107H18.6343V315.04H18.0211V314.427H15.568V315.04H14.9548V318.107H15.568V318.72ZM14.9548 319.946V319.333H14.3415V318.72H13.7283V314.427H14.3415V313.814H14.9548V313.2H18.6343V313.814H19.2476V314.427H19.8609V318.72H19.2476V319.333H18.6343V319.946H14.9548ZM22.3139 315.04V319.946H21.0874V313.2H22.3139V313.814H22.9272V313.2H25.9935V313.814H26.6067V314.427H27.22V319.946H25.9935V315.04H25.3802V314.427H24.767V319.946H23.5404V314.427H22.9272V315.04H22.3139ZM29.673 315.04V319.946H28.4465V313.2H29.673V313.814H30.2863V313.2H33.3526V313.814H33.9659V314.427H34.5791V319.946H33.3526V315.04H32.7393V314.427H32.1261V319.946H30.8996V314.427H30.2863V315.04H29.673ZM35.8056 313.2H37.0322V318.107H37.6454V318.72H40.0985V318.107H40.7117V313.2H41.9383V318.72H41.325V319.333H40.7117V319.946H37.0322V319.333H36.4189V318.72H35.8056V313.2ZM44.3913 315.04V319.946H43.1648V313.2H44.3913V313.814H45.0046V313.2H48.0709V313.814H48.6841V314.427H49.2974V319.946H48.0709V315.04H47.4576V314.427H45.0046V315.04H44.3913ZM54.2035 311.974V313.2H52.977V311.974H54.2035ZM54.8167 318.72H55.43V319.946H54.2035V319.333H53.5902V318.72H52.977V315.653H51.7504V314.427H54.2035V318.107H54.8167V318.72ZM62.1759 318.72H62.7891V319.946H61.5626V319.333H60.9494V318.72H60.3361V314.427H59.1096V313.2H60.3361V311.361H61.5626V313.2H62.7891V314.427H61.5626V318.107H62.1759V318.72ZM66.4687 319.946V318.72H69.535V318.107H70.1483V316.267H69.535V316.88H68.9217V317.493H66.4687V316.88H65.8554V316.267H65.2422V312.587H66.4687V315.653H67.082V316.267H68.3085V315.653H68.9217V315.04H69.535V313.814H70.1483V312.587H71.3748V318.72H70.7615V319.333H70.1483V319.946H66.4687ZM75.6676 318.72V319.946H74.4411V318.72H75.6676ZM7.59564 324.587V327.04H10.6619V326.427H11.2752V325.2H10.6619V324.587H7.59564ZM8.2089 328.267H7.59564V331.946H6.36912V323.361H11.2752V323.974H11.8885V324.587H12.5017V327.04H11.8885V327.653H11.2752V328.267H10.0487V328.88H10.6619V329.493H11.2752V330.107H11.8885V330.72H12.5017V331.946H11.2752V331.333H10.6619V330.72H10.0487V330.107H9.43543V329.493H8.82216V328.88H8.2089V328.267ZM14.9548 327.04V327.653H18.6343V327.04H18.0211V326.427H15.568V327.04H14.9548ZM19.8609 330.107V330.72H19.2476V331.333H18.6343V331.946H14.9548V331.333H14.3415V330.72H13.7283V326.427H14.3415V325.814H14.9548V325.2H18.6343V325.814H19.2476V326.427H19.8609V328.267H19.2476V328.88H14.9548V330.107H15.568V330.72H18.0211V330.107H19.8609ZM25.9935 326.427H25.3802V325.814H23.5404V326.427H22.9272V328.267H23.5404V328.88H25.3802V328.267H25.9935V326.427ZM22.3139 329.493V331.946H21.0874V324.587H22.3139V325.2H22.9272V324.587H25.9935V325.2H26.6067V325.814H27.22V328.88H26.6067V329.493H25.9935V330.107H22.9272V329.493H22.3139ZM29.673 327.04V327.653H33.3526V327.04H32.7393V326.427H30.2863V327.04H29.673ZM34.5791 330.107V330.72H33.9659V331.333H33.3526V331.946H29.673V331.333H29.0598V330.72H28.4465V326.427H29.0598V325.814H29.673V325.2H33.3526V325.814H33.9659V326.427H34.5791V328.267H33.9659V328.88H29.673V330.107H30.2863V330.72H32.7393V330.107H34.5791ZM37.6454 330.72H40.0985V330.107H40.7117V328.88H40.0985V328.267H37.6454V328.88H37.0322V330.107H37.6454V330.72ZM37.0322 331.946V331.333H36.4189V330.72H35.8056V328.267H36.4189V327.653H37.0322V327.04H40.0985V327.653H40.7117V326.427H40.0985V325.814H37.0322V324.587H40.7117V325.2H41.325V325.814H41.9383V331.946H40.7117V331.333H40.0985V331.946H37.0322ZM47.4576 330.72H48.0709V331.946H46.8443V331.333H46.2311V330.72H45.6178V326.427H44.3913V325.2H45.6178V323.361H46.8443V325.2H48.0709V326.427H46.8443V330.107H47.4576V330.72ZM53.5902 330.72V331.946H52.3637V330.72H53.5902Z" fill="#1E1E1E"/>
<rect width="101" height="101" transform="translate(279 89)" fill="#E89702"/>
<path d="M322.754 142.773V142.16H322.141V141.547H321.528V140.934H320.914V140.32H320.301V139.707H319.688V137.867H320.301V137.254H320.914V136.641H321.528V136.028H322.141V135.414H322.754V134.801H323.367V134.188H324.594V135.414H323.981V136.028H323.367V136.641H322.754V137.254H322.141V137.867H321.528V138.481H320.914V139.094H321.528V139.707H322.141V140.32H322.754V140.934H323.367V141.547H323.981V142.16H324.594V143.387H323.367V142.773H322.754ZM331.34 134.801H332.566V137.254H331.953V137.867H331.34V138.481H330.727V139.094H330.113V139.707H329.5V140.32H328.887V140.934H328.273V141.547H327.66V143.387H326.434V140.934H327.047V140.32H327.66V139.707H328.273V139.094H328.887V138.481H329.5V137.867H330.113V137.254H330.727V136.641H331.34V134.801ZM335.633 142.773V143.387H334.406V142.16H335.019V141.547H335.633V140.934H336.246V140.32H336.859V139.707H337.472V139.094H338.086V138.481H337.472V137.867H336.859V137.254H336.246V136.641H335.633V136.028H335.019V135.414H334.406V134.188H335.633V134.801H336.246V135.414H336.859V136.028H337.472V136.641H338.086V137.254H338.699V137.867H339.312V139.707H338.699V140.32H338.086V140.934H337.472V141.547H336.859V142.16H336.246V142.773H335.633Z" fill="#1E1E1E"/>
<rect width="101" height="101" transform="translate(744 228)" fill="#FA7319"/>
<path d="M787.754 281.773V281.16H787.141V280.547H786.528V279.934H785.914V279.32H785.301V278.707H784.688V276.867H785.301V276.254H785.914V275.641H786.528V275.028H787.141V274.414H787.754V273.801H788.367V273.188H789.594V274.414H788.981V275.028H788.367V275.641H787.754V276.254H787.141V276.867H786.528V277.481H785.914V278.094H786.528V278.707H787.141V279.32H787.754V279.934H788.367V280.547H788.981V281.16H789.594V282.387H788.367V281.773H787.754ZM796.34 273.801H797.566V276.254H796.953V276.867H796.34V277.481H795.727V278.094H795.113V278.707H794.5V279.32H793.887V279.934H793.273V280.547H792.66V282.387H791.434V279.934H792.047V279.32H792.66V278.707H793.273V278.094H793.887V277.481H794.5V276.867H795.113V276.254H795.727V275.641H796.34V273.801ZM800.633 281.773V282.387H799.406V281.16H800.019V280.547H800.633V279.934H801.246V279.32H801.859V278.707H802.472V278.094H803.086V277.481H802.472V276.867H801.859V276.254H801.246V275.641H800.633V275.028H800.019V274.414H799.406V273.188H800.633V273.801H801.246V274.414H801.859V275.028H802.472V275.641H803.086V276.254H803.699V276.867H804.312V278.707H803.699V279.32H803.086V279.934H802.472V280.547H801.859V281.16H801.246V281.773H800.633Z" fill="#1E1E1E"/>
<rect width="101" height="101" transform="translate(248 414)" fill="#FC7D73"/>
<path d="M256.822 427.587H254.369V426.361H260.502V427.587H258.049V434.946H256.822V427.587ZM262.955 430.04V430.653H266.634V430.04H266.021V429.427H263.568V430.04H262.955ZM267.861 433.107V433.72H267.248V434.333H266.634V434.946H262.955V434.333H262.342V433.72H261.728V429.427H262.342V428.814H262.955V428.2H266.634V428.814H267.248V429.427H267.861V431.267H267.248V431.88H262.955V433.107H263.568V433.72H266.021V433.107H267.861ZM273.993 433.107V432.493H275.22V433.72H274.607V434.333H273.993V434.946H270.314V434.333H269.701V433.72H269.087V429.427H269.701V428.814H270.314V428.2H273.993V428.814H274.607V429.427H275.22V430.653H273.993V430.04H273.38V429.427H270.927V430.04H270.314V433.107H270.927V433.72H273.38V433.107H273.993ZM277.673 431.267V434.946H276.447V426.361H277.673V429.427H278.286V428.814H278.9V428.2H280.739V428.814H281.353V429.427H281.966V430.04H282.579V434.946H281.353V430.653H280.739V430.04H280.126V429.427H279.513V430.04H278.9V430.653H278.286V431.267H277.673ZM287.485 426.974V428.2H286.259V426.974H287.485ZM288.098 433.72H288.712V434.946H287.485V434.333H286.872V433.72H286.259V430.653H285.032V429.427H287.485V433.107H288.098V433.72ZM292.391 430.04V430.653H296.071V430.04H295.458V429.427H293.005V430.04H292.391ZM297.297 433.107V433.72H296.684V434.333H296.071V434.946H292.391V434.333H291.778V433.72H291.165V429.427H291.778V428.814H292.391V428.2H296.071V428.814H296.684V429.427H297.297V431.267H296.684V431.88H292.391V433.107H293.005V433.72H295.458V433.107H297.297ZM299.137 433.72H298.524V432.493H299.75V433.107H300.364V433.72H302.817V432.493H301.59V431.88H300.364V431.267H299.137V430.653H298.524V429.427H299.137V428.814H299.75V428.2H303.43V428.814H304.043V429.427H304.657V430.653H303.43V430.04H302.817V429.427H300.364V430.653H302.203V431.267H303.43V431.88H304.043V432.493H304.657V433.72H304.043V434.333H303.43V434.946H299.75V434.333H299.137V433.72ZM255.596 444.267H259.275V442.427H258.662V441.814H258.049V441.2H256.822V441.814H256.209V442.427H255.596V444.267ZM255.596 447.946H254.369V441.814H254.982V441.2H255.596V440.587H256.209V439.974H256.822V439.361H258.049V439.974H258.662V440.587H259.275V441.2H259.888V441.814H260.502V447.946H259.275V445.493H255.596V447.946ZM262.342 446.72H261.728V445.493H262.955V446.107H263.568V446.72H266.021V445.493H264.795V444.88H263.568V444.267H262.342V443.653H261.728V442.427H262.342V441.814H262.955V441.2H266.634V441.814H267.248V442.427H267.861V443.653H266.634V443.04H266.021V442.427H263.568V443.653H265.408V444.267H266.634V444.88H267.248V445.493H267.861V446.72H267.248V447.333H266.634V447.946H262.955V447.333H262.342V446.72ZM269.701 446.72H269.087V445.493H270.314V446.107H270.927V446.72H273.38V445.493H272.154V444.88H270.927V444.267H269.701V443.653H269.087V442.427H269.701V441.814H270.314V441.2H273.993V441.814H274.607V442.427H275.22V443.653H273.993V443.04H273.38V442.427H270.927V443.653H272.767V444.267H273.993V444.88H274.607V445.493H275.22V446.72H274.607V447.333H273.993V447.946H270.314V447.333H269.701V446.72ZM277.673 443.04V443.653H281.353V443.04H280.739V442.427H278.286V443.04H277.673ZM282.579 446.107V446.72H281.966V447.333H281.353V447.946H277.673V447.333H277.06V446.72H276.447V442.427H277.06V441.814H277.673V441.2H281.353V441.814H281.966V442.427H282.579V444.267H281.966V444.88H277.673V446.107H278.286V446.72H280.739V446.107H282.579ZM285.032 443.04V447.946H283.806V441.2H285.032V441.814H285.645V441.2H288.712V441.814H289.325V442.427H289.938V447.946H288.712V443.04H288.098V442.427H287.485V447.946H286.259V442.427H285.645V443.04H285.032ZM294.231 446.72H294.844V446.107H295.458V445.493H296.071V443.653H295.458V443.04H294.844V442.427H294.231V443.04H293.618V443.653H293.005V445.493H293.618V446.107H294.231V446.72ZM292.391 446.72V447.946H291.165V439.361H292.391V442.427H293.005V441.814H293.618V441.2H295.458V441.814H296.071V442.427H296.684V443.04H297.297V446.107H296.684V446.72H296.071V447.333H295.458V447.946H293.618V447.333H293.005V446.72H292.391ZM302.203 439.361V447.946H300.977V439.361H302.203ZM307.11 443.04V443.653H310.789V443.04H310.176V442.427H307.723V443.04H307.11ZM312.016 446.107V446.72H311.402V447.333H310.789V447.946H307.11V447.333H306.496V446.72H305.883V442.427H306.496V441.814H307.11V441.2H310.789V441.814H311.402V442.427H312.016V444.267H311.402V444.88H307.11V446.107H307.723V446.72H310.176V446.107H312.016ZM316.308 446.72V447.946H315.082V446.72H316.308ZM316.308 445.493H315.082V439.361H316.308V445.493ZM323.668 446.72V447.946H322.441V446.72H323.668ZM323.668 445.493H322.441V439.361H323.668V445.493ZM331.027 446.72V447.946H329.8V446.72H331.027ZM331.027 445.493H329.8V439.361H331.027V445.493Z" fill="#1E1E1E"/>
<rect width="101" height="101" transform="translate(926 42)" fill="#4285F4"/>
<path d="M933.597 59.2667H937.276V57.427H936.663V56.8137H936.05V56.2004H934.823V56.8137H934.21V57.427H933.597V59.2667ZM933.597 62.9463H932.37V56.8137H932.983V56.2004H933.597V55.5872H934.21V54.9739H934.823V54.3607H936.05V54.9739H936.663V55.5872H937.276V56.2004H937.889V56.8137H938.503V62.9463H937.276V60.4933H933.597V62.9463ZM947.088 56.2004H948.315V61.1065H948.928V61.7198H949.541V58.6535H950.768V61.7198H951.381V61.1065H951.994V56.2004H953.221V61.7198H952.608V62.333H951.994V62.9463H950.768V62.333H949.541V62.9463H948.315V62.333H947.702V61.7198H947.088V56.2004ZM955.674 58.0402V58.6535H959.354V58.0402H958.74V57.427H956.287V58.0402H955.674ZM960.58 61.1065V61.7198H959.967V62.333H959.354V62.9463H955.674V62.333H955.061V61.7198H954.447V57.427H955.061V56.8137H955.674V56.2004H959.354V56.8137H959.967V57.427H960.58V59.2667H959.967V59.88H955.674V61.1065H956.287V61.7198H958.74V61.1065H960.58ZM963.033 58.0402V58.6535H966.713V58.0402H966.099V57.427H963.646V58.0402H963.033ZM967.939 61.1065V61.7198H967.326V62.333H966.713V62.9463H963.033V62.333H962.42V61.7198H961.807V57.427H962.42V56.8137H963.033V56.2004H966.713V56.8137H967.326V57.427H967.939V59.2667H967.326V59.88H963.033V61.1065H963.646V61.7198H966.099V61.1065H967.939ZM970.392 61.7198V62.9463H969.166V54.3607H970.392V59.88H971.006V59.2667H971.619V58.6535H972.232V58.0402H972.845V57.427H973.459V56.8137H974.072V56.2004H975.298V57.427H974.685V58.0402H974.072V58.6535H973.459V59.2667H972.845V59.88H973.459V60.4933H974.072V61.1065H974.685V61.7198H975.298V62.9463H974.072V62.333H973.459V61.7198H972.845V61.1065H972.232V60.4933H971.619V61.1065H971.006V61.7198H970.392ZM985.724 61.7198H988.177V61.1065H988.79V58.0402H988.177V57.427H985.724V58.0402H985.111V61.1065H985.724V61.7198ZM985.111 62.9463V62.333H984.497V61.7198H983.884V57.427H984.497V56.8137H985.111V56.2004H988.79V56.8137H989.403V57.427H990.017V61.7198H989.403V62.333H988.79V62.9463H985.111ZM994.923 62.9463H993.696V57.427H991.856V56.2004H993.696V54.9739H994.309V54.3607H996.763V55.5872H994.923V56.2004H996.763V57.427H994.923V62.9463ZM936.05 67.3607V75.9463H934.823V67.3607H936.05ZM940.956 71.0402V71.6535H944.635V71.0402H944.022V70.427H941.569V71.0402H940.956ZM945.862 74.1065V74.7198H945.249V75.333H944.635V75.9463H940.956V75.333H940.342V74.7198H939.729V70.427H940.342V69.8137H940.956V69.2004H944.635V69.8137H945.249V70.427H945.862V72.2667H945.249V72.88H940.956V74.1065H941.569V74.7198H944.022V74.1065H945.862ZM948.928 74.7198H951.381V74.1065H951.994V72.88H951.381V72.2667H948.928V72.88H948.315V74.1065H948.928V74.7198ZM948.315 75.9463V75.333H947.702V74.7198H947.088V72.2667H947.702V71.6535H948.315V71.0402H951.381V71.6535H951.994V70.427H951.381V69.8137H948.315V68.5872H951.994V69.2004H952.608V69.8137H953.221V75.9463H951.994V75.333H951.381V75.9463H948.315ZM955.674 72.2667V75.9463H954.447V69.2004H955.674V70.427H956.287V69.8137H956.901V69.2004H959.354V69.8137H959.967V70.427H960.58V71.6535H959.354V71.0402H958.74V70.427H957.514V71.0402H956.901V71.6535H956.287V72.2667H955.674ZM963.033 71.0402V75.9463H961.807V69.2004H963.033V69.8137H963.646V69.2004H966.713V69.8137H967.326V70.427H967.939V75.9463H966.713V71.0402H966.099V70.427H963.646V71.0402H963.033ZM972.845 67.9739V69.2004H971.619V67.9739H972.845ZM973.459 74.7198H974.072V75.9463H972.845V75.333H972.232V74.7198H971.619V71.6535H970.392V70.427H972.845V74.1065H973.459V74.7198ZM977.751 71.0402V75.9463H976.525V69.2004H977.751V69.8137H978.365V69.2004H981.431V69.8137H982.044V70.427H982.657V75.9463H981.431V71.0402H980.818V70.427H978.365V71.0402H977.751ZM988.79 71.0402V70.427H988.177V69.8137H985.724V70.427H985.111V71.0402H985.724V71.6535H988.177V71.0402H988.79ZM985.111 75.333H984.497V74.1065H985.724V74.7198H988.177V74.1065H988.79V72.2667H988.177V72.88H985.111V72.2667H984.497V71.6535H983.884V69.8137H984.497V69.2004H985.111V68.5872H988.79V69.2004H989.403V69.8137H990.017V74.7198H989.403V75.333H988.79V75.9463H985.111V75.333ZM993.696 74.7198V73.4933H994.923V74.7198H994.309V75.333H993.696V75.9463H992.47V75.333H993.083V74.7198H993.696ZM933.597 83.0402V87.9463H932.37V81.2004H933.597V81.8137H934.21V81.2004H937.276V81.8137H937.889V82.427H938.503V87.9463H937.276V83.0402H936.663V82.427H934.21V83.0402H933.597ZM940.956 83.0402V83.6535H944.635V83.0402H944.022V82.427H941.569V83.0402H940.956ZM945.862 86.1065V86.7198H945.249V87.333H944.635V87.9463H940.956V87.333H940.342V86.7198H939.729V82.427H940.342V81.8137H940.956V81.2004H944.635V81.8137H945.249V82.427H945.862V84.2667H945.249V84.88H940.956V86.1065H941.569V86.7198H944.022V86.1065H945.862ZM951.381 86.7198H951.994V87.9463H950.768V87.333H950.155V86.7198H949.541V82.427H948.315V81.2004H949.541V79.3607H950.768V81.2004H951.994V82.427H950.768V86.1065H951.381V86.7198ZM954.447 81.2004H955.674V86.1065H956.287V86.7198H956.901V83.6535H958.127V86.7198H958.74V86.1065H959.354V81.2004H960.58V86.7198H959.967V87.333H959.354V87.9463H958.127V87.333H956.901V87.9463H955.674V87.333H955.061V86.7198H954.447V81.2004ZM963.646 86.7198H966.099V86.1065H966.713V83.0402H966.099V82.427H963.646V83.0402H963.033V86.1065H963.646V86.7198ZM963.033 87.9463V87.333H962.42V86.7198H961.807V82.427H962.42V81.8137H963.033V81.2004H966.713V81.8137H967.326V82.427H967.939V86.7198H967.326V87.333H966.713V87.9463H963.033ZM970.392 84.2667V87.9463H969.166V81.2004H970.392V82.427H971.006V81.8137H971.619V81.2004H974.072V81.8137H974.685V82.427H975.298V83.6535H974.072V83.0402H973.459V82.427H972.232V83.0402H971.619V83.6535H971.006V84.2667H970.392ZM977.751 86.7198V87.9463H976.525V79.3607H977.751V84.88H978.365V84.2667H978.978V83.6535H979.591V83.0402H980.204V82.427H980.818V81.8137H981.431V81.2004H982.657V82.427H982.044V83.0402H981.431V83.6535H980.818V84.2667H980.204V84.88H980.818V85.4933H981.431V86.1065H982.044V86.7198H982.657V87.9463H981.431V87.333H980.818V86.7198H980.204V86.1065H979.591V85.4933H978.978V86.1065H978.365V86.7198H977.751ZM987.564 79.9739V81.2004H986.337V79.9739H987.564ZM988.177 86.7198H988.79V87.9463H987.564V87.333H986.95V86.7198H986.337V83.6535H985.111V82.427H987.564V86.1065H988.177V86.7198ZM992.47 83.0402V87.9463H991.243V81.2004H992.47V81.8137H993.083V81.2004H996.149V81.8137H996.763V82.427H997.376V87.9463H996.149V83.0402H995.536V82.427H993.083V83.0402H992.47ZM1003.51 83.0402V82.427H1002.9V81.8137H1000.44V82.427H999.829V83.0402H1000.44V83.6535H1002.9V83.0402H1003.51ZM999.829 87.333H999.216V86.1065H1000.44V86.7198H1002.9V86.1065H1003.51V84.2667H1002.9V84.88H999.829V84.2667H999.216V83.6535H998.602V81.8137H999.216V81.2004H999.829V80.5872H1003.51V81.2004H1004.12V81.8137H1004.73V86.7198H1004.12V87.333H1003.51V87.9463H999.829V87.333ZM934.21 99.7198H936.663V99.1065H937.276V97.88H936.663V97.2667H934.21V97.88H933.597V99.1065H934.21V99.7198ZM933.597 100.946V100.333H932.983V99.7198H932.37V97.2667H932.983V96.6535H933.597V96.0402H936.663V96.6535H937.276V95.427H936.663V94.8137H933.597V93.5872H937.276V94.2004H937.889V94.8137H938.503V100.946H937.276V100.333H936.663V100.946H933.597ZM940.956 96.0402V100.946H939.729V94.2004H940.956V94.8137H941.569V94.2004H944.635V94.8137H945.249V95.427H945.862V100.946H944.635V96.0402H944.022V95.427H941.569V96.0402H940.956ZM951.994 95.427V92.3607H953.221V100.946H951.994V99.7198H951.381V100.333H950.768V100.946H948.928V100.333H948.315V99.7198H947.702V99.1065H947.088V96.0402H947.702V95.427H948.315V94.8137H948.928V94.2004H950.768V94.8137H951.381V95.427H951.994ZM948.928 99.1065H949.541V99.7198H950.155V99.1065H950.768V98.4933H951.381V96.6535H950.768V96.0402H950.155V95.427H949.541V96.0402H948.928V96.6535H948.315V98.4933H948.928V99.1065ZM966.713 96.0402V95.427H966.099V94.8137H963.646V95.427H963.033V96.0402H963.646V96.6535H966.099V96.0402H966.713ZM963.033 100.333H962.42V99.1065H963.646V99.7198H966.099V99.1065H966.713V97.2667H966.099V97.88H963.033V97.2667H962.42V96.6535H961.807V94.8137H962.42V94.2004H963.033V93.5872H966.713V94.2004H967.326V94.8137H967.939V99.7198H967.326V100.333H966.713V100.946H963.033V100.333ZM970.392 97.2667V100.946H969.166V94.2004H970.392V95.427H971.006V94.8137H971.619V94.2004H974.072V94.8137H974.685V95.427H975.298V96.6535H974.072V96.0402H973.459V95.427H972.232V96.0402H971.619V96.6535H971.006V97.2667H970.392ZM977.751 96.0402V96.6535H981.431V96.0402H980.818V95.427H978.365V96.0402H977.751ZM982.657 99.1065V99.7198H982.044V100.333H981.431V100.946H977.751V100.333H977.138V99.7198H976.525V95.427H977.138V94.8137H977.751V94.2004H981.431V94.8137H982.044V95.427H982.657V97.2667H982.044V97.88H977.751V99.1065H978.365V99.7198H980.818V99.1065H982.657ZM985.724 99.7198H988.177V99.1065H988.79V97.88H988.177V97.2667H985.724V97.88H985.111V99.1065H985.724V99.7198ZM985.111 100.946V100.333H984.497V99.7198H983.884V97.2667H984.497V96.6535H985.111V96.0402H988.177V96.6535H988.79V95.427H988.177V94.8137H985.111V93.5872H988.79V94.2004H989.403V94.8137H990.017V100.946H988.79V100.333H988.177V100.946H985.111ZM995.536 99.7198H996.149V100.946H994.923V100.333H994.309V99.7198H993.696V95.427H992.47V94.2004H993.696V92.3607H994.923V94.2004H996.149V95.427H994.923V99.1065H995.536V99.7198ZM932.37 106.2H933.597V109.88H934.21V110.493H934.823V111.107H936.05V110.493H936.663V109.88H937.276V106.2H938.503V110.493H937.889V111.107H937.276V111.72H936.663V112.333H936.05V112.946H934.823V112.333H934.21V111.72H933.597V111.107H932.983V110.493H932.37V106.2ZM943.409 104.974V106.2H942.182V104.974H943.409ZM944.022 111.72H944.635V112.946H943.409V112.333H942.796V111.72H942.182V108.653H940.956V107.427H943.409V111.107H944.022V111.72ZM950.155 111.72H950.768V111.107H951.381V110.493H951.994V108.653H951.381V108.04H950.768V107.427H950.155V108.04H949.541V108.653H948.928V110.493H949.541V111.107H950.155V111.72ZM948.315 111.72V112.946H947.088V104.361H948.315V107.427H948.928V106.814H949.541V106.2H951.381V106.814H951.994V107.427H952.608V108.04H953.221V111.107H952.608V111.72H951.994V112.333H951.381V112.946H949.541V112.333H948.928V111.72H948.315ZM955.674 108.04V108.653H959.354V108.04H958.74V107.427H956.287V108.04H955.674ZM960.58 111.107V111.72H959.967V112.333H959.354V112.946H955.674V112.333H955.061V111.72H954.447V107.427H955.061V106.814H955.674V106.2H959.354V106.814H959.967V107.427H960.58V109.267H959.967V109.88H955.674V111.107H956.287V111.72H958.74V111.107H960.58ZM962.42 111.72H961.807V110.493H963.033V111.107H963.646V111.72H966.099V110.493H964.873V109.88H963.646V109.267H962.42V108.653H961.807V107.427H962.42V106.814H963.033V106.2H966.713V106.814H967.326V107.427H967.939V108.653H966.713V108.04H966.099V107.427H963.646V108.653H965.486V109.267H966.713V109.88H967.326V110.493H967.939V111.72H967.326V112.333H966.713V112.946H963.033V112.333H962.42V111.72Z" fill="#1E1E1E"/>
<path d="M822.854 520H818.899L824.925 502.545H829.681L835.698 520H831.743L827.371 506.534H827.235L822.854 520ZM822.607 513.139H831.948V516.02H822.607V513.139ZM837.079 520V502.545H843.965C845.283 502.545 846.408 502.781 847.34 503.253C848.277 503.719 848.991 504.381 849.479 505.239C849.973 506.091 850.221 507.094 850.221 508.247C850.221 509.406 849.971 510.403 849.471 511.239C848.971 512.068 848.246 512.705 847.297 513.148C846.354 513.591 845.212 513.812 843.871 513.812H839.26V510.847H843.275C843.979 510.847 844.564 510.75 845.03 510.557C845.496 510.364 845.843 510.074 846.07 509.688C846.303 509.301 846.42 508.821 846.42 508.247C846.42 507.668 846.303 507.179 846.07 506.781C845.843 506.384 845.493 506.082 845.022 505.878C844.556 505.668 843.968 505.562 843.258 505.562H840.769V520H837.079ZM846.505 512.057L850.843 520H846.769L842.525 512.057H846.505ZM852.109 520V502.545H863.87V505.588H855.799V509.747H863.265V512.79H855.799V516.957H863.904V520H852.109ZM869.896 502.545H874.029L878.01 510.062H878.18L882.16 502.545H886.294L879.927 513.83V520H876.262V513.83L869.896 502.545ZM902.574 511.273C902.574 513.176 902.214 514.795 901.492 516.131C900.776 517.466 899.799 518.486 898.56 519.19C897.327 519.889 895.941 520.239 894.401 520.239C892.85 520.239 891.458 519.886 890.225 519.182C888.992 518.477 888.018 517.457 887.302 516.122C886.586 514.787 886.228 513.17 886.228 511.273C886.228 509.369 886.586 507.75 887.302 506.415C888.018 505.08 888.992 504.062 890.225 503.364C891.458 502.659 892.85 502.307 894.401 502.307C895.941 502.307 897.327 502.659 898.56 503.364C899.799 504.062 900.776 505.08 901.492 506.415C902.214 507.75 902.574 509.369 902.574 511.273ZM898.833 511.273C898.833 510.04 898.648 509 898.279 508.153C897.915 507.307 897.401 506.665 896.736 506.227C896.071 505.79 895.293 505.571 894.401 505.571C893.509 505.571 892.731 505.79 892.066 506.227C891.401 506.665 890.884 507.307 890.515 508.153C890.151 509 889.969 510.04 889.969 511.273C889.969 512.506 890.151 513.545 890.515 514.392C890.884 515.239 891.401 515.881 892.066 516.318C892.731 516.756 893.509 516.974 894.401 516.974C895.293 516.974 896.071 516.756 896.736 516.318C897.401 515.881 897.915 515.239 898.279 514.392C898.648 513.545 898.833 512.506 898.833 511.273ZM915.369 502.545H919.06V513.881C919.06 515.153 918.756 516.267 918.148 517.222C917.545 518.176 916.702 518.92 915.616 519.455C914.531 519.983 913.267 520.247 911.824 520.247C910.375 520.247 909.108 519.983 908.023 519.455C906.937 518.92 906.094 518.176 905.491 517.222C904.889 516.267 904.588 515.153 904.588 513.881V502.545H908.278V513.565C908.278 514.23 908.423 514.821 908.713 515.338C909.008 515.855 909.423 516.261 909.957 516.557C910.491 516.852 911.114 517 911.824 517C912.54 517 913.162 516.852 913.69 516.557C914.224 516.261 914.636 515.855 914.926 515.338C915.222 514.821 915.369 514.23 915.369 513.565V502.545ZM925.546 505.588V502.545H939.881V505.588H934.537V520H930.889V505.588H925.546ZM941.522 520V502.545H945.212V509.747H952.704V502.545H956.385V520H952.704V512.79H945.212V520H941.522ZM958.708 520V502.545H970.469V505.588H962.398V509.747H969.864V512.79H962.398V516.957H970.503V520H958.708ZM972.683 520V502.545H979.57C980.888 502.545 982.013 502.781 982.945 503.253C983.882 503.719 984.595 504.381 985.084 505.239C985.578 506.091 985.825 507.094 985.825 508.247C985.825 509.406 985.575 510.403 985.075 511.239C984.575 512.068 983.851 512.705 982.902 513.148C981.959 513.591 980.817 513.812 979.476 513.812H974.865V510.847H978.879C979.584 510.847 980.169 510.75 980.635 510.557C981.101 510.364 981.448 510.074 981.675 509.688C981.908 509.301 982.024 508.821 982.024 508.247C982.024 507.668 981.908 507.179 981.675 506.781C981.448 506.384 981.098 506.082 980.626 505.878C980.161 505.668 979.573 505.562 978.862 505.562H976.374V520H972.683ZM982.109 512.057L986.448 520H982.374L978.129 512.057H982.109ZM987.713 520V502.545H999.475V505.588H991.404V509.747H998.87V512.79H991.404V516.957H999.509V520H987.713ZM1004.74 514.767V514.477C1004.75 513.483 1004.83 512.69 1005 512.099C1005.18 511.509 1005.44 511.031 1005.77 510.668C1006.11 510.304 1006.51 509.974 1006.98 509.679C1007.33 509.452 1007.65 509.216 1007.93 508.972C1008.21 508.727 1008.43 508.457 1008.59 508.162C1008.76 507.861 1008.84 507.526 1008.84 507.156C1008.84 506.764 1008.75 506.42 1008.56 506.125C1008.37 505.83 1008.12 505.602 1007.8 505.443C1007.49 505.284 1007.14 505.205 1006.76 505.205C1006.39 505.205 1006.04 505.287 1005.71 505.452C1005.38 505.611 1005.11 505.849 1004.9 506.168C1004.69 506.48 1004.58 506.869 1004.56 507.335H1001.08C1001.11 506.199 1001.38 505.261 1001.9 504.523C1002.42 503.778 1003.1 503.224 1003.96 502.861C1004.81 502.491 1005.75 502.307 1006.78 502.307C1007.91 502.307 1008.91 502.494 1009.78 502.869C1010.65 503.239 1011.33 503.776 1011.82 504.48C1012.32 505.185 1012.56 506.034 1012.56 507.028C1012.56 507.693 1012.45 508.284 1012.23 508.801C1012.02 509.312 1011.71 509.767 1011.32 510.165C1010.93 510.557 1010.46 510.912 1009.93 511.23C1009.48 511.497 1009.11 511.776 1008.82 512.065C1008.54 512.355 1008.32 512.69 1008.18 513.071C1008.05 513.452 1007.98 513.92 1007.97 514.477V514.767H1004.74ZM1006.43 520.222C1005.86 520.222 1005.37 520.023 1004.97 519.625C1004.57 519.222 1004.38 518.739 1004.38 518.176C1004.38 517.619 1004.57 517.142 1004.97 516.744C1005.37 516.347 1005.86 516.148 1006.43 516.148C1006.97 516.148 1007.44 516.347 1007.85 516.744C1008.26 517.142 1008.47 517.619 1008.47 518.176C1008.47 518.551 1008.37 518.895 1008.17 519.207C1007.99 519.514 1007.74 519.761 1007.43 519.949C1007.13 520.131 1006.79 520.222 1006.43 520.222Z" fill="#282828"/>
<path d="M815.148 483.986L806.792 470.899C810.154 470.341 813.144 468.567 815.757 465.577C818.375 462.592 819.68 458.949 819.68 454.65C819.68 449.796 817.955 445.643 814.496 442.184C811.042 438.729 806.792 437 801.749 437C796.706 437 792.459 438.729 789.002 442.184C784.888 446.303 783.221 451.408 784.008 457.507C784.291 459.701 784.906 461.835 785.822 463.849C787.131 466.724 789.078 470.008 791.663 473.702L803.457 491.571C804.419 493.029 806.377 493.439 807.843 492.488L814.197 488.368C815.664 487.416 816.089 485.459 815.148 483.986Z" fill="#34A853"/>
<path d="M815.148 483.986L806.792 470.899C810.154 470.341 813.144 468.567 815.757 465.577C818.375 462.592 819.68 458.949 819.68 454.65C819.68 449.796 817.955 445.643 814.496 442.184C811.042 438.729 806.792 437 801.749 437C796.706 437 792.459 438.729 789.002 442.184C784.888 446.303 783.221 451.408 784.008 457.507C784.291 459.701 784.906 461.835 785.822 463.849C787.131 466.724 789.078 470.008 791.663 473.702L803.457 491.571C804.419 493.029 806.377 493.439 807.843 492.488L814.197 488.368C815.664 487.416 816.089 485.459 815.148 483.986Z" stroke="#1E1E1E" stroke-width="4.14816" stroke-miterlimit="10"/>
<path d="M775.328 483.986L766.972 470.899C770.334 470.341 773.324 468.567 775.937 465.577C778.554 462.592 779.859 458.949 779.859 454.65C779.859 449.796 778.135 445.643 774.676 442.184C771.222 438.729 766.972 437 761.929 437C756.886 437 752.639 438.729 749.181 442.184C745.068 446.303 743.401 451.408 744.188 457.507C744.471 459.701 745.085 461.835 746.002 463.849C747.31 466.724 749.258 470.008 751.843 473.702L763.637 491.571C764.599 493.029 766.557 493.439 768.023 492.488L774.377 488.368C775.844 487.416 776.269 485.459 775.328 483.986Z" fill="#34A853"/>
<path d="M775.328 483.986L766.972 470.899C770.334 470.341 773.324 468.567 775.937 465.577C778.554 462.592 779.859 458.949 779.859 454.65C779.859 449.796 778.135 445.643 774.676 442.184C771.222 438.729 766.972 437 761.929 437C756.886 437 752.639 438.729 749.181 442.184C745.068 446.303 743.401 451.408 744.188 457.507C744.471 459.701 745.085 461.835 746.002 463.849C747.31 466.724 749.258 470.008 751.843 473.702L763.637 491.571C764.599 493.029 766.557 493.439 768.023 492.488L774.377 488.368C775.844 487.416 776.269 485.459 775.328 483.986Z" stroke="#1E1E1E" stroke-width="4.14816" stroke-miterlimit="10"/>
<path d="M1026.53 536.014L1034.89 549.101C1031.53 549.659 1028.54 551.433 1025.92 554.423C1023.31 557.408 1022 561.051 1022 565.35C1022 570.204 1023.72 574.357 1027.18 577.816C1030.64 581.271 1034.89 583 1039.93 583C1044.97 583 1049.22 581.271 1052.68 577.816C1056.79 573.697 1058.46 568.592 1057.67 562.493C1057.39 560.299 1056.77 558.165 1055.86 556.151C1054.55 553.276 1052.6 549.992 1050.02 546.298L1038.22 528.429C1037.26 526.971 1035.3 526.561 1033.84 527.512L1027.48 531.632C1026.02 532.584 1025.59 534.541 1026.53 536.014Z" fill="#34A853"/>
<path d="M1026.53 536.014L1034.89 549.101C1031.53 549.659 1028.54 551.433 1025.92 554.423C1023.31 557.408 1022 561.051 1022 565.35C1022 570.204 1023.72 574.357 1027.18 577.816C1030.64 581.271 1034.89 583 1039.93 583C1044.97 583 1049.22 581.271 1052.68 577.816C1056.79 573.697 1058.46 568.592 1057.67 562.493C1057.39 560.299 1056.77 558.165 1055.86 556.151C1054.55 553.276 1052.6 549.992 1050.02 546.298L1038.22 528.429C1037.26 526.971 1035.3 526.561 1033.84 527.512L1027.48 531.632C1026.02 532.584 1025.59 534.541 1026.53 536.014Z" stroke="#1E1E1E" stroke-width="4.14816" stroke-miterlimit="10"/>
<path d="M1064.53 536.014L1072.89 549.101C1069.53 549.659 1066.54 551.433 1063.92 554.423C1061.31 557.408 1060 561.051 1060 565.35C1060 570.204 1061.72 574.357 1065.18 577.816C1068.64 581.271 1072.89 583 1077.93 583C1082.97 583 1087.22 581.271 1090.68 577.816C1094.79 573.697 1096.46 568.592 1095.67 562.493C1095.39 560.299 1094.77 558.165 1093.86 556.151C1092.55 553.276 1090.6 549.992 1088.02 546.298L1076.22 528.429C1075.26 526.971 1073.3 526.561 1071.84 527.512L1065.48 531.632C1064.02 532.584 1063.59 534.541 1064.53 536.014Z" fill="#34A853"/>
<path d="M1064.53 536.014L1072.89 549.101C1069.53 549.659 1066.54 551.433 1063.92 554.423C1061.31 557.408 1060 561.051 1060 565.35C1060 570.204 1061.72 574.357 1065.18 577.816C1068.64 581.271 1072.89 583 1077.93 583C1082.97 583 1087.22 581.271 1090.68 577.816C1094.79 573.697 1096.46 568.592 1095.67 562.493C1095.39 560.299 1094.77 558.165 1093.86 556.151C1092.55 553.276 1090.6 549.992 1088.02 546.298L1076.22 528.429C1075.26 526.971 1073.3 526.561 1071.84 527.512L1065.48 531.632C1064.02 532.584 1063.59 534.541 1064.53 536.014Z" stroke="#1E1E1E" stroke-width="4.14816" stroke-miterlimit="10"/>
</svg>
