<svg width="205" height="73" viewBox="0 0 205 73" fill="none" xmlns="http://www.w3.org/2000/svg">
<path d="M35.829 0.0112457C49.6676 -0.325653 61.8248 6.93752 68.3747 17.895C68.9358 18.8338 70.3028 18.8579 70.8635 17.9188C77.2642 7.19244 89.0355 9.91821e-05 102.5 9.91821e-05C115.965 9.91821e-05 127.736 7.19208 134.137 17.9188C134.697 18.8579 136.064 18.8338 136.626 17.895C143.176 6.93752 155.333 -0.325653 169.171 0.0112457C188.383 0.479012 204.729 16.8955 204.996 35.9798C205.282 56.3768 188.72 73 168.248 73C154.784 73 143.012 65.808 136.612 55.0817C136.057 54.153 134.691 54.153 134.137 55.0817C127.736 65.808 115.965 73 102.5 73C89.0355 73 77.2642 65.808 70.8635 55.0817C70.3093 54.1526 68.9429 54.1526 68.3887 55.0817C61.9881 65.808 50.2164 73 36.7518 73C16.2803 73 -0.282288 56.3768 0.00363159 35.9798C0.271576 16.8951 16.6169 0.479012 35.829 0.0112457Z" fill="#FFB8B8"/>
</svg>
