<svg width="19" height="18" viewBox="0 0 19 18" fill="none" xmlns="http://www.w3.org/2000/svg">
<path d="M9.5 18C4.5293 18 0.5 13.9707 0.5 9C0.5 4.0293 4.5293 0 9.5 0C14.4707 0 18.5 4.0293 18.5 9C18.5 13.9707 14.4707 18 9.5 18ZM9.5 16.2C11.4096 16.2 13.2409 15.4414 14.5912 14.0912C15.9414 12.7409 16.7 10.9096 16.7 9C16.7 7.09044 15.9414 5.25909 14.5912 3.90883C13.2409 2.55857 11.4096 1.8 9.5 1.8C7.59044 1.8 5.75909 2.55857 4.40883 3.90883C3.05857 5.25909 2.3 7.09044 2.3 9C2.3 10.9096 3.05857 12.7409 4.40883 14.0912C5.75909 15.4414 7.59044 16.2 9.5 16.2ZM8.2598 5.7735L12.6509 8.7003C12.7003 8.73316 12.7408 8.77772 12.7688 8.83C12.7968 8.88229 12.8115 8.94068 12.8115 9C12.8115 9.05932 12.7968 9.11771 12.7688 9.17C12.7408 9.22228 12.7003 9.26684 12.6509 9.2997L8.2589 12.2265C8.20475 12.2624 8.14188 12.283 8.07698 12.286C8.01208 12.2891 7.94757 12.2745 7.89027 12.2439C7.83297 12.2133 7.78503 12.1677 7.75153 12.112C7.71803 12.0564 7.70023 11.9927 7.7 11.9277V6.0723C7.70012 6.00719 7.7179 5.94332 7.75144 5.88751C7.78499 5.8317 7.83304 5.78604 7.89048 5.75537C7.94793 5.72471 8.01261 5.71021 8.07765 5.7134C8.14268 5.71659 8.20563 5.73736 8.2598 5.7735Z" fill="#050505"/>
</svg>
