<svg width="81" height="62" viewBox="0 0 81 62" fill="none" xmlns="http://www.w3.org/2000/svg">
<path d="M74.1482 49.9857L65.7922 36.899C69.1538 36.3407 72.1438 34.5669 74.7572 31.5769C77.3747 28.5919 78.6797 24.949 78.6797 20.6499C78.6797 15.7957 76.9549 11.6425 73.4961 8.18379C70.0424 4.72919 65.7922 3.00024 60.7488 3.00024C55.7063 3.00024 51.4594 4.72919 48.0015 8.18379C43.8882 12.3029 42.2215 17.4076 43.008 23.5071C43.2909 25.7015 43.9056 27.8353 44.8224 29.8488C46.1307 32.7243 48.0778 36.008 50.663 39.7015L62.457 57.571C63.4194 59.0287 65.3774 59.4385 66.8433 58.4878L73.1975 54.3678C74.6643 53.4162 75.089 51.4591 74.1482 49.9857Z" fill="#34A853"/>
<path d="M74.1482 49.9857L65.7922 36.899C69.1538 36.3407 72.1438 34.5669 74.7572 31.5769C77.3747 28.5919 78.6797 24.949 78.6797 20.6499C78.6797 15.7957 76.9549 11.6425 73.4961 8.18379C70.0424 4.7292 65.7922 3.00024 60.7488 3.00024C55.7063 3.00024 51.4594 4.7292 48.0015 8.18379C43.8882 12.3029 42.2215 17.4076 43.008 23.5071C43.2909 25.7015 43.9056 27.8353 44.8224 29.8488C46.1307 32.7243 48.0778 36.008 50.663 39.7015L62.457 57.571C63.4194 59.0287 65.3774 59.4385 66.8433 58.4878L73.1975 54.3678C74.6643 53.4162 75.089 51.4591 74.1482 49.9857Z" stroke="#1E1E1E" stroke-width="4.14816" stroke-miterlimit="10"/>
<path d="M34.3279 49.9857L25.9719 36.899C29.3335 36.3407 32.3235 34.5669 34.9369 31.5769C37.5544 28.5919 38.8594 24.949 38.8594 20.6499C38.8594 15.7957 37.1346 11.6425 33.6758 8.18379C30.2221 4.72919 25.9719 3.00024 20.9285 3.00024C15.886 3.00024 11.6391 4.72919 8.18121 8.18379C4.06789 12.3029 2.40115 17.4076 3.18764 23.5071C3.47055 25.7015 4.08531 27.8353 5.00206 29.8488C6.31039 32.7243 8.25753 36.008 10.8427 39.7015L22.6367 57.571C23.5991 59.0287 25.557 59.4385 27.023 58.4878L33.3772 54.3678C34.844 53.4162 35.2687 51.4591 34.3279 49.9857Z" fill="#34A853"/>
<path d="M34.3279 49.9857L25.9719 36.899C29.3335 36.3407 32.3235 34.5669 34.9369 31.5769C37.5544 28.5919 38.8594 24.949 38.8594 20.6499C38.8594 15.7957 37.1346 11.6425 33.6758 8.18379C30.2221 4.7292 25.9719 3.00024 20.9285 3.00024C15.886 3.00024 11.6391 4.7292 8.18121 8.18379C4.06789 12.3029 2.40115 17.4076 3.18765 23.5071C3.47055 25.7015 4.08531 27.8353 5.00206 29.8488C6.31039 32.7243 8.25753 36.008 10.8427 39.7015L22.6367 57.571C23.5991 59.0287 25.557 59.4385 27.023 58.4878L33.3772 54.3678C34.844 53.4162 35.2687 51.4591 34.3279 49.9857Z" stroke="#1E1E1E" stroke-width="4.14816" stroke-miterlimit="10"/>
</svg>
