<svg width="70" height="128" viewBox="0 0 70 128" fill="none" xmlns="http://www.w3.org/2000/svg">
<path d="M24.3746 9.93859L34.1039 23.4765L43.8332 9.93859C48.1684 3.90659 56.5726 2.53063 62.6049 6.86584C68.6373 11.2011 70.0133 19.6056 65.678 25.6376L45.0282 54.3704C44.9996 54.4105 44.9688 54.4479 44.9399 54.4872C44.8702 54.5822 44.799 54.6756 44.7266 54.7687C44.6554 54.8603 44.5839 54.9516 44.5108 55.041C44.4507 55.1137 44.3899 55.1856 44.3283 55.2576C44.2341 55.3681 44.1388 55.4771 44.042 55.5836C44.0031 55.6266 43.9634 55.6685 43.9237 55.7108C43.7976 55.8458 43.6693 55.9782 43.5387 56.1072C43.5268 56.1187 43.5153 56.1295 43.5038 56.141C42.5218 57.1027 41.4165 57.8893 40.2319 58.4942C40.2108 58.505 40.19 58.5157 40.1689 58.5265C40.0109 58.6062 39.8514 58.6823 39.6905 58.7553C39.6333 58.7817 39.5762 58.808 39.5187 58.8332C39.3964 58.887 39.2728 58.9382 39.149 58.9882C39.0551 59.0261 38.9617 59.0639 38.8671 59.0999C38.7788 59.1333 38.6902 59.1644 38.6012 59.1959C38.4736 59.2412 38.346 59.2857 38.2177 59.3272C38.1591 59.3458 38.1001 59.3632 38.0415 59.381C37.8858 59.4288 37.7296 59.4748 37.5727 59.5164C37.536 59.5264 37.4989 59.5349 37.4626 59.5446C37.2864 59.5898 37.1102 59.6325 36.9333 59.6707C36.9074 59.6758 36.8814 59.6807 36.8555 59.6862C36.6704 59.7248 36.4849 59.7604 36.2991 59.7908C36.2709 59.7956 36.2428 59.7994 36.2142 59.8038C36.0325 59.8324 35.8504 59.8587 35.6679 59.8798C35.6256 59.8847 35.5826 59.8884 35.5399 59.8928C35.3738 59.9106 35.2076 59.9266 35.0411 59.9381C34.9714 59.9429 34.9013 59.9455 34.8316 59.9492C34.6928 59.9566 34.5545 59.964 34.4158 59.967C34.312 59.9696 34.2077 59.9685 34.1039 59.9688C33.9997 59.9685 33.8958 59.9696 33.792 59.967C33.6533 59.964 33.5149 59.9566 33.3762 59.9492C33.3065 59.9455 33.2364 59.9429 33.1667 59.9381C33.0002 59.9266 32.834 59.9106 32.6675 59.8928C32.6252 59.8884 32.5825 59.8847 32.5399 59.8798C32.3574 59.8587 32.1753 59.8324 31.9932 59.8038C31.965 59.7994 31.9368 59.7956 31.9086 59.7908C31.7228 59.7604 31.5374 59.7248 31.3523 59.6862C31.3264 59.6807 31.3004 59.6758 31.2744 59.6707C31.0975 59.6325 30.9214 59.5898 30.7452 59.5446C30.7085 59.5349 30.6718 59.5264 30.635 59.5164C30.4785 59.4748 30.3224 59.4288 30.1666 59.381C30.1077 59.3632 30.0487 59.3458 29.9897 59.3268C29.8618 59.2857 29.7342 59.2412 29.607 59.1959C29.518 59.1648 29.4289 59.1333 29.3407 59.0999C29.2461 59.0639 29.1526 59.0261 29.0588 58.9882C28.9349 58.9382 28.8114 58.887 28.689 58.8332C28.6316 58.808 28.5744 58.7817 28.517 58.7553C28.3564 58.6823 28.1969 58.6062 28.0389 58.5265C28.0177 58.5157 27.997 58.505 27.9758 58.4942C26.7912 57.8893 25.686 57.1027 24.7039 56.141C24.6924 56.1295 24.6809 56.1187 24.6694 56.1072C24.5385 55.9782 24.4102 55.8458 24.2841 55.7108C24.2444 55.6685 24.2047 55.6266 24.1662 55.5836C24.0686 55.4771 23.9737 55.3681 23.8795 55.2576C23.8179 55.1856 23.7567 55.1137 23.697 55.041C23.6239 54.9516 23.5523 54.8603 23.4811 54.7687C23.4088 54.6756 23.3376 54.5822 23.2679 54.4872C23.239 54.4479 23.2082 54.4105 23.1796 54.3704L2.52974 25.6376C-1.80511 19.6056 -0.429512 11.2011 5.60286 6.86585C11.6352 2.53063 20.0394 3.90659 24.3746 9.93859Z" fill="#FF7DAF"/>
<path d="M24.3746 6.601L34.1039 20.1389L43.8332 6.601C48.1684 0.569006 56.5726 -0.80696 62.6049 3.52826C68.6373 7.86348 70.0133 16.268 65.678 22.3L45.0282 51.0328C44.9996 51.0729 44.9688 51.1103 44.9399 51.1497C44.8702 51.2446 44.799 51.3381 44.7266 51.4311C44.6554 51.5228 44.5839 51.614 44.5108 51.7034C44.4507 51.7761 44.3899 51.848 44.3283 51.92C44.2341 52.0305 44.1388 52.1395 44.042 52.246C44.0031 52.289 43.9634 52.3309 43.9237 52.3732C43.7976 52.5082 43.6693 52.6406 43.5387 52.7697C43.5268 52.7812 43.5153 52.7919 43.5038 52.8034C42.5218 53.7651 41.4165 54.5517 40.2319 55.1566C40.2108 55.1674 40.19 55.1782 40.1689 55.1889C40.0109 55.2686 39.8514 55.3447 39.6905 55.4177C39.6333 55.4441 39.5762 55.4704 39.5187 55.4956C39.3964 55.5494 39.2728 55.6006 39.149 55.6507C39.0551 55.6885 38.9617 55.7263 38.8671 55.7623C38.7788 55.7957 38.6902 55.8268 38.6012 55.8583C38.4736 55.9036 38.346 55.9481 38.2177 55.9896C38.1591 56.0082 38.1001 56.0256 38.0415 56.0434C37.8858 56.0913 37.7296 56.1372 37.5727 56.1788C37.536 56.1888 37.4989 56.1973 37.4626 56.207C37.2864 56.2522 37.1102 56.2949 36.9333 56.3331C36.9074 56.3383 36.8814 56.3431 36.8555 56.3487C36.6704 56.3872 36.4849 56.4228 36.2991 56.4532C36.2709 56.4581 36.2428 56.4618 36.2142 56.4662C36.0325 56.4948 35.8504 56.5211 35.6679 56.5423C35.6256 56.5471 35.5826 56.5508 35.5399 56.5552C35.3738 56.573 35.2076 56.589 35.0411 56.6005C34.9714 56.6053 34.9013 56.6079 34.8316 56.6116C34.6928 56.619 34.5545 56.6264 34.4158 56.6294C34.312 56.632 34.2077 56.6309 34.1039 56.6313C33.9997 56.6309 33.8958 56.632 33.792 56.6294C33.6533 56.6264 33.5149 56.619 33.3762 56.6116C33.3065 56.6079 33.2364 56.6053 33.1667 56.6005C33.0002 56.589 32.834 56.573 32.6675 56.5552C32.6252 56.5508 32.5825 56.5471 32.5399 56.5423C32.3574 56.5211 32.1753 56.4948 31.9932 56.4662C31.965 56.4618 31.9368 56.4581 31.9086 56.4532C31.7228 56.4228 31.5374 56.3872 31.3523 56.3487C31.3264 56.3431 31.3004 56.3383 31.2744 56.3331C31.0975 56.2949 30.9214 56.2522 30.7452 56.207C30.7085 56.1973 30.6718 56.1888 30.635 56.1788C30.4785 56.1372 30.3224 56.0913 30.1666 56.0434C30.1077 56.0256 30.0487 56.0082 29.9897 55.9893C29.8618 55.9481 29.7342 55.9036 29.607 55.8583C29.518 55.8272 29.4289 55.7957 29.3407 55.7623C29.2461 55.7263 29.1526 55.6885 29.0588 55.6507C28.9349 55.6006 28.8114 55.5494 28.689 55.4956C28.6316 55.4704 28.5744 55.4441 28.517 55.4177C28.3564 55.3447 28.1969 55.2686 28.0389 55.1889C28.0177 55.1782 27.997 55.1674 27.9758 55.1566C26.7912 54.5517 25.686 53.7651 24.7039 52.8034C24.6924 52.7919 24.6809 52.7812 24.6694 52.7697C24.5385 52.6406 24.4102 52.5082 24.2841 52.3732C24.2444 52.3309 24.2047 52.289 24.1662 52.246C24.0686 52.1395 23.9737 52.0305 23.8795 51.92C23.8179 51.848 23.7567 51.7761 23.697 51.7034C23.6239 51.614 23.5523 51.5228 23.4811 51.4312C23.4088 51.3381 23.3376 51.2446 23.2679 51.1497C23.239 51.1103 23.2082 51.0729 23.1796 51.0328L2.52974 22.3C-1.80511 16.268 -0.429509 7.86348 5.60286 3.52826C11.6352 -0.806958 20.0394 0.569007 24.3746 6.601Z" stroke="#1E1E1E" stroke-width="1.8544" stroke-miterlimit="10"/>
<path d="M24.3746 113.336L34.1039 99.7983L43.8332 113.336C48.1684 119.368 56.5726 120.744 62.6049 116.409C68.6373 112.074 70.0133 103.669 65.678 97.6372L45.0282 68.9043C44.9996 68.8643 44.9688 68.8268 44.9399 68.7875C44.8702 68.6926 44.799 68.5991 44.7266 68.506C44.6554 68.4144 44.5839 68.3232 44.5108 68.2338C44.4507 68.1611 44.3899 68.0891 44.3283 68.0172C44.2341 67.9067 44.1388 67.7976 44.042 67.6912C44.0031 67.6482 43.9634 67.6063 43.9237 67.564C43.7976 67.429 43.6693 67.2966 43.5387 67.1675C43.5268 67.156 43.5153 67.1453 43.5038 67.1338C42.5218 66.1721 41.4165 65.3854 40.2319 64.7805C40.2108 64.7698 40.19 64.759 40.1689 64.7483C40.0109 64.6685 39.8514 64.5925 39.6905 64.5194C39.6333 64.4931 39.5762 64.4668 39.5187 64.4415C39.3963 64.3878 39.2728 64.3366 39.149 64.2869C39.0551 64.2487 38.9617 64.2109 38.8671 64.1749C38.7788 64.1415 38.6902 64.1103 38.6012 64.0788C38.4736 64.0336 38.346 63.9891 38.2177 63.9475C38.1591 63.929 38.1001 63.9116 38.0415 63.8938C37.8858 63.8459 37.7296 63.7999 37.5727 63.7584C37.536 63.7484 37.4989 63.7398 37.4626 63.7302C37.2864 63.6849 37.1102 63.6423 36.9333 63.6041C36.9074 63.5989 36.8814 63.5941 36.8554 63.5885C36.6704 63.5499 36.4849 63.5143 36.2991 63.4839C36.2709 63.4791 36.2428 63.4754 36.2142 63.4709C36.0325 63.4424 35.8504 63.4161 35.6679 63.3949C35.6256 63.3901 35.5826 63.3864 35.5399 63.3819C35.3738 63.3641 35.2076 63.3482 35.0411 63.3367C34.9714 63.3319 34.9013 63.3293 34.8316 63.3256C34.6928 63.3181 34.5545 63.3107 34.4158 63.3078C34.312 63.3052 34.2077 63.3063 34.1039 63.3059C33.9997 63.3063 33.8958 63.3052 33.792 63.3078C33.6533 63.3107 33.5149 63.3181 33.3762 63.3256C33.3065 63.3293 33.2364 63.3319 33.1667 63.3367C33.0001 63.3482 32.834 63.3641 32.6675 63.3819C32.6252 63.3864 32.5825 63.3901 32.5399 63.3949C32.3574 63.4161 32.1753 63.4424 31.9932 63.4709C31.965 63.4754 31.9368 63.4791 31.9086 63.4839C31.7228 63.5143 31.5374 63.5499 31.3523 63.5885C31.3264 63.5941 31.3004 63.5989 31.2744 63.6041C31.0975 63.6423 30.9214 63.6849 30.7452 63.7302C30.7085 63.7398 30.6718 63.7484 30.635 63.7584C30.4785 63.7999 30.3224 63.8459 30.1666 63.8938C30.1077 63.9116 30.0487 63.929 29.9897 63.9479C29.8618 63.9891 29.7342 64.0336 29.607 64.0788C29.518 64.11 29.4289 64.1415 29.3407 64.1749C29.2461 64.2109 29.1526 64.2487 29.0588 64.2869C28.9349 64.3366 28.8114 64.3878 28.689 64.4415C28.6315 64.4668 28.5744 64.4931 28.5169 64.5194C28.3564 64.5925 28.1969 64.6685 28.0389 64.7483C28.0177 64.759 27.997 64.7698 27.9758 64.7805C26.7912 65.3854 25.686 66.1721 24.7039 67.1338C24.6924 67.1453 24.6809 67.156 24.6694 67.1675C24.5385 67.2966 24.4102 67.429 24.2841 67.564C24.2444 67.6063 24.2047 67.6482 24.1662 67.6912C24.0686 67.7976 23.9737 67.9067 23.8795 68.0172C23.8179 68.0892 23.7567 68.1611 23.697 68.2338C23.6239 68.3232 23.5523 68.4144 23.4811 68.506C23.4088 68.5991 23.3376 68.6926 23.2679 68.7875C23.239 68.8268 23.2082 68.8643 23.1796 68.9043L2.52974 97.6372C-1.80511 103.669 -0.42951 112.074 5.60286 116.409C11.6352 120.744 20.0394 119.368 24.3746 113.336Z" fill="#FF7DAF"/>
<path d="M24.3746 121.126L34.1039 107.588L43.8332 121.126C48.1684 127.158 56.5726 128.534 62.6049 124.199C68.6373 119.864 70.0133 111.459 65.678 105.427L45.0282 76.6945C44.9996 76.6544 44.9688 76.617 44.9399 76.5776C44.8702 76.4827 44.799 76.3892 44.7266 76.2961C44.6554 76.2045 44.5839 76.1133 44.5108 76.0239C44.4507 75.9512 44.3899 75.8793 44.3283 75.8073C44.2341 75.6968 44.1388 75.5878 44.042 75.4813C44.0031 75.4383 43.9634 75.3964 43.9237 75.3541C43.7976 75.2191 43.6693 75.0867 43.5387 74.9576C43.5268 74.9461 43.5153 74.9354 43.5038 74.9239C42.5218 73.9622 41.4165 73.1756 40.2319 72.5707C40.2108 72.5599 40.19 72.5491 40.1689 72.5384C40.0109 72.4587 39.8514 72.3826 39.6905 72.3096C39.6333 72.2832 39.5762 72.2569 39.5187 72.2317C39.3963 72.1779 39.2728 72.1267 39.149 72.077C39.0551 72.0388 38.9617 72.001 38.8671 71.965C38.7788 71.9316 38.6902 71.9005 38.6012 71.869C38.4736 71.8237 38.346 71.7792 38.2177 71.7377C38.1591 71.7191 38.1001 71.7017 38.0415 71.6839C37.8858 71.636 37.7296 71.5901 37.5727 71.5485C37.536 71.5385 37.4989 71.53 37.4626 71.5203C37.2864 71.4751 37.1102 71.4324 36.9333 71.3942C36.9074 71.389 36.8814 71.3842 36.8554 71.3786C36.6704 71.3401 36.4849 71.3045 36.2991 71.2741C36.2709 71.2692 36.2428 71.2655 36.2142 71.2611C36.0325 71.2325 35.8504 71.2062 35.6679 71.185C35.6256 71.1802 35.5826 71.1765 35.5399 71.1721C35.3738 71.1543 35.2076 71.1383 35.0411 71.1268C34.9714 71.122 34.9013 71.1194 34.8316 71.1157C34.6928 71.1083 34.5545 71.1009 34.4158 71.0979C34.312 71.0953 34.2077 71.0964 34.1039 71.096C33.9997 71.0964 33.8958 71.0953 33.792 71.0979C33.6533 71.1009 33.5149 71.1083 33.3762 71.1157C33.3065 71.1194 33.2364 71.122 33.1667 71.1268C33.0001 71.1383 32.834 71.1543 32.6675 71.1721C32.6252 71.1765 32.5825 71.1802 32.5399 71.185C32.3574 71.2062 32.1753 71.2325 31.9932 71.2611C31.965 71.2655 31.9368 71.2692 31.9086 71.2741C31.7228 71.3045 31.5374 71.3401 31.3523 71.3786C31.3264 71.3842 31.3004 71.389 31.2744 71.3942C31.0975 71.4324 30.9214 71.4751 30.7452 71.5203C30.7085 71.53 30.6718 71.5385 30.635 71.5485C30.4785 71.5901 30.3224 71.636 30.1666 71.6839C30.1077 71.7017 30.0487 71.7191 29.9897 71.738C29.8618 71.7792 29.7342 71.8237 29.607 71.869C29.518 71.9001 29.4289 71.9316 29.3407 71.965C29.2461 72.001 29.1526 72.0388 29.0588 72.077C28.9349 72.1267 28.8114 72.1779 28.689 72.2317C28.6315 72.2569 28.5744 72.2832 28.5169 72.3096C28.3564 72.3826 28.1969 72.4587 28.0389 72.5384C28.0177 72.5491 27.997 72.5599 27.9758 72.5707C26.7912 73.1756 25.686 73.9622 24.7039 74.9239C24.6924 74.9354 24.6809 74.9461 24.6694 74.9576C24.5385 75.0867 24.4102 75.2191 24.2841 75.3541C24.2444 75.3964 24.2047 75.4383 24.1662 75.4813C24.0686 75.5878 23.9737 75.6968 23.8795 75.8073C23.8179 75.8793 23.7567 75.9512 23.697 76.0239C23.6239 76.1133 23.5523 76.2045 23.4811 76.2962C23.4088 76.3892 23.3376 76.4827 23.2679 76.5776C23.239 76.617 23.2082 76.6544 23.1796 76.6945L2.52974 105.427C-1.80511 111.459 -0.429507 119.864 5.60286 124.199C11.6352 128.534 20.0394 127.158 24.3746 121.126Z" stroke="#1E1E1E" stroke-width="1.8544" stroke-miterlimit="10"/>
</svg>
